SplineFontDB: 3.2
FontName: Kilroy2-24ptBold
FullName: Kilroy2 24pt Bold
FamilyName: Kilroy2 24pt
Weight: Bold
Copyright: Copyright 2020 The Roboto Serif Project Authors (https://github.com/googlefonts/RobotoSerif) OFL
Version: 1.008
ItalicAngle: 0
UnderlinePosition: -200
UnderlineWidth: 100
Ascent: 800
Descent: 200
InvalidEm: 0
sfntRevision: 0x0001020c
LayerCount: 2
Layer: 0 1 "Back" 1
Layer: 1 1 "Fore" 0
XUID: [1021 1018 -1064020043 15442]
StyleMap: 0x0040
FSType: 0
OS2Version: 4
OS2_WeightWidthSlopeOnly: 0
OS2_UseTypoMetrics: 1
CreationTime: 1586430965
ModificationTime: 1751691811
PfmFamily: 81
TTFWeight: 700
TTFWidth: 5
LineGap: 0
VLineGap: 0
Panose: 0 0 0 0 0 0 0 0 0 0
OS2TypoAscent: 927
OS2TypoAOffset: 0
OS2TypoDescent: -244
OS2TypoDOffset: 0
OS2TypoLinegap: 0
OS2WinAscent: 1048
OS2WinAOffset: 0
OS2WinDescent: 251
OS2WinDOffset: 0
HheadAscent: 927
HheadAOffset: 0
HheadDescent: -244
HheadDOffset: 0
OS2SubXSize: 650
OS2SubYSize: 600
OS2SubXOff: 0
OS2SubYOff: 75
OS2SupXSize: 650
OS2SupYSize: 600
OS2SupXOff: 0
OS2SupYOff: 350
OS2StrikeYSize: 100
OS2StrikeYPos: 311
OS2CapHeight: 710
OS2XHeight: 518
OS2Vendor: 'COMM'
OS2CodePages: 20000193.00000000
OS2UnicodeRanges: a10000ef.4000267a.00000000.00000000
Lookup: 5 0 0 "'locl' Localized Forms in Latin lookup 0" { "'locl' Localized Forms in Latin lookup 0 subtable"  } ['locl' ('latn' <'AZE ' 'CRT ' 'TRK ' > ) ]
Lookup: 1 0 0 "Single Substitution lookup 1" { "Single Substitution lookup 1 subtable"  } []
Lookup: 5 0 0 "'locl' Localized Forms in Latin lookup 2" { "'locl' Localized Forms in Latin lookup 2 subtable"  } ['locl' ('latn' <'PLK ' > ) ]
Lookup: 1 0 0 "Single Substitution lookup 3" { "Single Substitution lookup 3 subtable"  } []
Lookup: 6 0 0 "'locl' Localized Forms in Latin lookup 4" { "'locl' Localized Forms in Latin lookup 4 subtable"  } ['locl' ('latn' <'CAT ' > ) ]
Lookup: 4 0 0 "Ligature Substitution lookup 5" { "Ligature Substitution lookup 5 subtable"  } []

StartChar: .notdef
Encoding: 65536 -1 0
Width: 400
GlyphClass: 1
Flags: W
LayerCount: 2
Fore
SplineSet
0 0 m 1,0,-1
 0 700 l 1,1,-1
 400 700 l 1,2,-1
 400 0 l 1,3,-1
 0 0 l 1,0,-1
50 650 m 1,4,-1
 50 50 l 1,5,-1
 350 50 l 1,6,-1
 350 650 l 1,7,-1
 50 650 l 1,4,-1
EndSplineSet
EndChar

StartChar: A
Encoding: 65 65 6
Width: 723
GlyphClass: 2
Flags: W
AnchorPoint: "Anchor-2" 572 0 basechar 0
AnchorPoint: "Anchor-1" 361 0 basechar 0
AnchorPoint: "Anchor-0" 361 721 basechar 0
LayerCount: 2
Fore
SplineSet
166 306 m 1,0,-1
 441 306 l 1,1,-1
 442 230 l 1,2,-1
 163 230 l 1,3,-1
 166 306 l 1,0,-1
280 649 m 1,4,-1
 313 601 l 1,5,-1
 145 85 l 2,6,7
 145 80 145 80 154 75.5 c 128,-1,8
 163 71 163 71 177 69 c 128,-1,9
 191 67 191 67 206 67 c 2,10,-1
 220 67 l 1,11,-1
 220 0 l 1,12,-1
 9 0 l 1,13,-1
 9 67 l 1,14,-1
 14 67 l 2,15,16
 36 67 36 67 48 75.5 c 128,-1,17
 60 84 60 84 68 110 c 2,18,-1
 265 710 l 1,19,-1
 454 710 l 1,20,-1
 657 95 l 2,21,22
 663 78 663 78 676.5 72.5 c 128,-1,23
 690 67 690 67 710 67 c 2,24,-1
 714 67 l 1,25,-1
 714 0 l 1,26,-1
 386 0 l 1,27,-1
 386 67 l 1,28,-1
 402 67 l 2,29,30
 417 67 417 67 431.5 68 c 128,-1,31
 446 69 446 69 455.5 71.5 c 128,-1,32
 465 74 465 74 465 77 c 2,33,-1
 280 649 l 1,4,-1
EndSplineSet
EndChar

StartChar: Aogonek
Encoding: 260 260 15
Width: 723
GlyphClass: 1
Flags: W
LayerCount: 2
Fore
SplineSet
171 306 m 1,0,-1
 441 306 l 1,1,-1
 442 230 l 1,2,-1
 158 230 l 1,3,-1
 171 306 l 1,0,-1
533 56 m 1,4,-1
 570 12 l 1,5,6
 524 -10 524 -10 499.5 -32.5 c 128,-1,7
 475 -55 475 -55 465.5 -76 c 128,-1,8
 456 -97 456 -97 456 -116 c 0,9,10
 456 -138 456 -138 467 -148.5 c 128,-1,11
 478 -159 478 -159 495 -159 c 0,12,13
 514 -159 514 -159 527 -149 c 128,-1,14
 540 -139 540 -139 548 -131 c 1,15,-1
 588 -176 l 1,16,17
 564 -205 564 -205 532 -223.5 c 128,-1,18
 500 -242 500 -242 447 -242 c 0,19,20
 388 -242 388 -242 352 -216 c 128,-1,21
 316 -190 316 -190 316 -140 c 0,22,23
 316 -109 316 -109 330 -83 c 128,-1,24
 344 -57 344 -57 371.5 -33.5 c 128,-1,25
 399 -10 399 -10 440 12 c 128,-1,26
 481 34 481 34 533 56 c 1,4,-1
714 0 m 1,27,-1
 489 0 l 1,28,-1
 280 649 l 1,29,-1
 321 629 l 1,30,-1
 144 85 l 2,31,32
 144 80 144 80 153 75.5 c 128,-1,33
 162 71 162 71 176 69 c 128,-1,34
 190 67 190 67 205 67 c 2,35,-1
 219 67 l 1,36,-1
 219 0 l 1,37,-1
 9 0 l 1,38,-1
 9 67 l 1,39,-1
 14 67 l 2,40,41
 36 67 36 67 48 75.5 c 128,-1,42
 60 84 60 84 68 110 c 2,43,-1
 265 710 l 1,44,-1
 454 710 l 1,45,-1
 657 95 l 2,46,47
 663 78 663 78 676.5 72.5 c 128,-1,48
 690 67 690 67 710 67 c 2,49,-1
 714 67 l 1,50,-1
 714 0 l 1,27,-1
EndSplineSet
EndChar

StartChar: Acaron
Encoding: 461 461 16
Width: 723
GlyphClass: 1
Flags: W
LayerCount: 2
Fore
SplineSet
287 753 m 1,0,-1
 428 753 l 1,1,-1
 539 890 l 1,2,-1
 539 910 l 1,3,-1
 458 910 l 1,4,-1
 318 817 l 1,5,-1
 407 817 l 1,6,-1
 268 910 l 1,7,-1
 177 910 l 1,8,-1
 177 890 l 1,9,-1
 287 753 l 1,0,-1
166 306 m 1,10,-1
 441 306 l 1,11,-1
 442 230 l 1,12,-1
 163 230 l 1,13,-1
 166 306 l 1,10,-1
280 649 m 1,14,-1
 313 601 l 1,15,-1
 145 85 l 2,16,17
 145 80 145 80 154 75.5 c 128,-1,18
 163 71 163 71 177 69 c 128,-1,19
 191 67 191 67 206 67 c 2,20,-1
 220 67 l 1,21,-1
 220 0 l 1,22,-1
 9 0 l 1,23,-1
 9 67 l 1,24,-1
 14 67 l 2,25,26
 36 67 36 67 48 75.5 c 128,-1,27
 60 84 60 84 68 110 c 2,28,-1
 265 710 l 1,29,-1
 454 710 l 1,30,-1
 657 95 l 2,31,32
 663 78 663 78 676.5 72.5 c 128,-1,33
 690 67 690 67 710 67 c 2,34,-1
 714 67 l 1,35,-1
 714 0 l 1,36,-1
 386 0 l 1,37,-1
 386 67 l 1,38,-1
 402 67 l 2,39,40
 417 67 417 67 431.5 68 c 128,-1,41
 446 69 446 69 455.5 71.5 c 128,-1,42
 465 74 465 74 465 77 c 2,43,-1
 280 649 l 1,14,-1
EndSplineSet
EndChar

StartChar: Adblgrave
Encoding: 512 512 18
Width: 723
GlyphClass: 1
Flags: W
LayerCount: 2
Fore
SplineSet
474 850 m 2,0,-1
 485 771 l 1,1,-1
 485 746 l 1,2,-1
 426 746 l 1,3,-1
 384 793 l 2,4,5
 355 825 355 825 344 844.5 c 128,-1,6
 333 864 333 864 333 887 c 0,7,8
 333 911 333 911 349.5 927 c 128,-1,9
 366 943 366 943 397 943 c 0,10,11
 422 943 422 943 437 933 c 128,-1,12
 452 923 452 923 461 902 c 128,-1,13
 470 881 470 881 474 850 c 2,0,-1
286 850 m 2,14,-1
 297 771 l 1,15,-1
 297 746 l 1,16,-1
 238 746 l 1,17,-1
 196 793 l 2,18,19
 168 825 168 825 156.5 844.5 c 128,-1,20
 145 864 145 864 145 887 c 0,21,22
 145 911 145 911 161.5 927 c 128,-1,23
 178 943 178 943 209 943 c 0,24,25
 234 943 234 943 249.5 933 c 128,-1,26
 265 923 265 923 273.5 902 c 128,-1,27
 282 881 282 881 286 850 c 2,14,-1
166 306 m 1,28,-1
 441 306 l 1,29,-1
 442 230 l 1,30,-1
 163 230 l 1,31,-1
 166 306 l 1,28,-1
280 649 m 1,32,-1
 313 601 l 1,33,-1
 145 85 l 2,34,35
 145 80 145 80 154 75.5 c 128,-1,36
 163 71 163 71 177 69 c 128,-1,37
 191 67 191 67 206 67 c 2,38,-1
 220 67 l 1,39,-1
 220 0 l 1,40,-1
 9 0 l 1,41,-1
 9 67 l 1,42,-1
 14 67 l 2,43,44
 36 67 36 67 48 75.5 c 128,-1,45
 60 84 60 84 68 110 c 2,46,-1
 265 710 l 1,47,-1
 454 710 l 1,48,-1
 657 95 l 2,49,50
 663 78 663 78 676.5 72.5 c 128,-1,51
 690 67 690 67 710 67 c 2,52,-1
 714 67 l 1,53,-1
 714 0 l 1,54,-1
 386 0 l 1,55,-1
 386 67 l 1,56,-1
 402 67 l 2,57,58
 417 67 417 67 431.5 68 c 128,-1,59
 446 69 446 69 455.5 71.5 c 128,-1,60
 465 74 465 74 465 77 c 2,61,-1
 280 649 l 1,32,-1
EndSplineSet
EndChar

StartChar: Ainvertedbreve
Encoding: 514 514 19
Width: 723
GlyphClass: 1
Flags: W
LayerCount: 2
Fore
SplineSet
363 915 m 256,0,1
 318 915 318 915 282.5 897.5 c 128,-1,2
 247 880 247 880 226 845 c 128,-1,3
 205 810 205 810 201 756 c 1,4,-1
 285 756 l 1,5,6
 288 777 288 777 297.5 789.5 c 128,-1,7
 307 802 307 802 322.5 807 c 128,-1,8
 338 812 338 812 360 812 c 256,9,10
 382 812 382 812 398 807 c 128,-1,11
 414 802 414 802 423.5 789.5 c 128,-1,12
 433 777 433 777 436 756 c 1,13,-1
 525 756 l 1,14,15
 522 810 522 810 500.5 845 c 128,-1,16
 479 880 479 880 443.5 897.5 c 128,-1,17
 408 915 408 915 363 915 c 256,0,1
166 306 m 1,18,-1
 441 306 l 1,19,-1
 442 230 l 1,20,-1
 163 230 l 1,21,-1
 166 306 l 1,18,-1
280 649 m 1,22,-1
 313 601 l 1,23,-1
 145 85 l 2,24,25
 145 80 145 80 154 75.5 c 128,-1,26
 163 71 163 71 177 69 c 128,-1,27
 191 67 191 67 206 67 c 2,28,-1
 220 67 l 1,29,-1
 220 0 l 1,30,-1
 9 0 l 1,31,-1
 9 67 l 1,32,-1
 14 67 l 2,33,34
 36 67 36 67 48 75.5 c 128,-1,35
 60 84 60 84 68 110 c 2,36,-1
 265 710 l 1,37,-1
 454 710 l 1,38,-1
 657 95 l 2,39,40
 663 78 663 78 676.5 72.5 c 128,-1,41
 690 67 690 67 710 67 c 2,42,-1
 714 67 l 1,43,-1
 714 0 l 1,44,-1
 386 0 l 1,45,-1
 386 67 l 1,46,-1
 402 67 l 2,47,48
 417 67 417 67 431.5 68 c 128,-1,49
 446 69 446 69 455.5 71.5 c 128,-1,50
 465 74 465 74 465 77 c 2,51,-1
 280 649 l 1,22,-1
EndSplineSet
EndChar

StartChar: B
Encoding: 66 66 32
Width: 719
GlyphClass: 2
Flags: W
AnchorPoint: "Anchor-0" 319 741 basechar 0
LayerCount: 2
Fore
SplineSet
396 710 m 2,0,1
 459 710 459 710 507.5 698 c 128,-1,2
 556 686 556 686 588.5 663.5 c 128,-1,3
 621 641 621 641 638 609 c 128,-1,4
 655 577 655 577 655 537 c 0,5,6
 655 483 655 483 626.5 446 c 128,-1,7
 598 409 598 409 547.5 390 c 128,-1,8
 497 371 497 371 430 368 c 1,9,-1
 472 389 l 1,10,-1
 472 359 l 1,11,-1
 438 382 l 1,12,13
 511 380 511 380 566.5 358.5 c 128,-1,14
 622 337 622 337 653 297.5 c 128,-1,15
 684 258 684 258 684 200 c 0,16,17
 684 153 684 153 665.5 116 c 128,-1,18
 647 79 647 79 611.5 53 c 128,-1,19
 576 27 576 27 524 13.5 c 128,-1,20
 472 0 472 0 405 0 c 2,21,-1
 31 0 l 1,22,-1
 31 67 l 1,23,-1
 41 67 l 2,24,25
 68 67 68 67 84.5 74 c 128,-1,26
 101 81 101 81 101 103 c 2,27,-1
 101 607 l 2,28,29
 101 629 101 629 84.5 636 c 128,-1,30
 68 643 68 643 41 643 c 2,31,-1
 31 643 l 1,32,-1
 31 710 l 1,33,-1
 396 710 l 2,0,1
262 407 m 1,34,-1
 350 407 l 2,35,36
 391 407 391 407 415.5 421 c 128,-1,37
 440 435 440 435 451 461.5 c 128,-1,38
 462 488 462 488 462 527 c 0,39,40
 462 562 462 562 450 585.5 c 128,-1,41
 438 609 438 609 414 621.5 c 128,-1,42
 390 634 390 634 354 634 c 2,43,-1
 294 634 l 1,44,-1
 294 76 l 1,45,-1
 361 76 l 2,46,47
 402 76 402 76 430.5 90 c 128,-1,48
 459 104 459 104 473.5 133 c 128,-1,49
 488 162 488 162 488 207 c 0,50,51
 488 246 488 246 474.5 274.5 c 128,-1,52
 461 303 461 303 432 318.5 c 128,-1,53
 403 334 403 334 357 334 c 2,54,-1
 262 334 l 1,55,-1
 262 407 l 1,34,-1
EndSplineSet
EndChar

StartChar: C
Encoding: 67 67 33
Width: 700
GlyphClass: 2
Flags: W
AnchorPoint: "Anchor-1" 370 0 basechar 0
AnchorPoint: "Anchor-0" 370 741 basechar 0
LayerCount: 2
Fore
SplineSet
405 636 m 0,0,1
 366 636 366 636 335 616 c 128,-1,2
 304 596 304 596 282 559.5 c 128,-1,3
 260 523 260 523 249 471 c 128,-1,4
 238 419 238 419 238 355 c 0,5,6
 238 288 238 288 249.5 236.5 c 128,-1,7
 261 185 261 185 283.5 148.5 c 128,-1,8
 306 112 306 112 340 93 c 128,-1,9
 374 74 374 74 417 74 c 0,10,11
 465 74 465 74 501.5 98 c 128,-1,12
 538 122 538 122 562.5 165.5 c 128,-1,13
 587 209 587 209 598 265 c 1,14,-1
 672 235 l 1,15,16
 657 163 657 163 621.5 107.5 c 128,-1,17
 586 52 586 52 529 21 c 128,-1,18
 472 -10 472 -10 393 -10 c 256,19,20
 314 -10 314 -10 249 16 c 128,-1,21
 184 42 184 42 136 90.5 c 128,-1,22
 88 139 88 139 62 206 c 128,-1,23
 36 273 36 273 36 355 c 256,24,25
 36 437 36 437 63 504 c 128,-1,26
 90 571 90 571 137.5 619.5 c 128,-1,27
 185 668 185 668 247 694 c 128,-1,28
 309 720 309 720 379 720 c 0,29,30
 450 720 450 720 496 695.5 c 128,-1,31
 542 671 542 671 570.5 629 c 128,-1,32
 599 587 599 587 615 531 c 1,33,-1
 562 541 l 1,34,-1
 581 710 l 1,35,-1
 662 710 l 1,36,-1
 662 486 l 1,37,-1
 568 486 l 1,38,39
 553 531 553 531 531.5 565 c 128,-1,40
 510 599 510 599 479.5 617.5 c 128,-1,41
 449 636 449 636 405 636 c 0,0,1
EndSplineSet
EndChar

StartChar: Ccaron
Encoding: 268 268 38
Width: 700
GlyphClass: 1
Flags: W
LayerCount: 2
Fore
SplineSet
299 753 m 1,0,-1
 441 753 l 1,1,-1
 552 890 l 1,2,-1
 552 910 l 1,3,-1
 470 910 l 1,4,-1
 331 817 l 1,5,-1
 419 817 l 1,6,-1
 281 910 l 1,7,-1
 189 910 l 1,8,-1
 189 890 l 1,9,-1
 299 753 l 1,0,-1
405 636 m 0,10,11
 366 636 366 636 335 616 c 128,-1,12
 304 596 304 596 282 559.5 c 128,-1,13
 260 523 260 523 249 471 c 128,-1,14
 238 419 238 419 238 355 c 0,15,16
 238 288 238 288 249.5 236.5 c 128,-1,17
 261 185 261 185 283.5 148.5 c 128,-1,18
 306 112 306 112 340 93 c 128,-1,19
 374 74 374 74 417 74 c 0,20,21
 465 74 465 74 501.5 98 c 128,-1,22
 538 122 538 122 562.5 165.5 c 128,-1,23
 587 209 587 209 598 265 c 1,24,-1
 672 235 l 1,25,26
 657 163 657 163 621.5 107.5 c 128,-1,27
 586 52 586 52 529 21 c 128,-1,28
 472 -10 472 -10 393 -10 c 256,29,30
 314 -10 314 -10 249 16 c 128,-1,31
 184 42 184 42 136 90.5 c 128,-1,32
 88 139 88 139 62 206 c 128,-1,33
 36 273 36 273 36 355 c 256,34,35
 36 437 36 437 63 504 c 128,-1,36
 90 571 90 571 137.5 619.5 c 128,-1,37
 185 668 185 668 247 694 c 128,-1,38
 309 720 309 720 379 720 c 0,39,40
 450 720 450 720 496 695.5 c 128,-1,41
 542 671 542 671 570.5 629 c 128,-1,42
 599 587 599 587 615 531 c 1,43,-1
 562 541 l 1,44,-1
 581 710 l 1,45,-1
 662 710 l 1,46,-1
 662 486 l 1,47,-1
 568 486 l 1,48,49
 553 531 553 531 531.5 565 c 128,-1,50
 510 599 510 599 479.5 617.5 c 128,-1,51
 449 636 449 636 405 636 c 0,10,11
EndSplineSet
EndChar

StartChar: D
Encoding: 68 68 40
Width: 803
GlyphClass: 2
Flags: W
AnchorPoint: "Anchor-1" 404 0 basechar 0
AnchorPoint: "Anchor-0" 404 741 basechar 0
LayerCount: 2
Fore
SplineSet
31 643 m 1,0,-1
 31 710 l 1,1,-1
 375 710 l 2,2,3
 462 710 462 710 533.5 686.5 c 128,-1,4
 605 663 605 663 657.5 617.5 c 128,-1,5
 710 572 710 572 738.5 506 c 128,-1,6
 767 440 767 440 767 357 c 256,7,8
 767 274 767 274 738.5 208 c 128,-1,9
 710 142 710 142 657.5 95.5 c 128,-1,10
 605 49 605 49 533.5 24.5 c 128,-1,11
 462 0 462 0 375 0 c 2,12,-1
 31 0 l 1,13,-1
 31 67 l 1,14,-1
 42 67 l 2,15,16
 68 67 68 67 85 74 c 128,-1,17
 102 81 102 81 102 103 c 2,18,-1
 102 607 l 2,19,20
 102 627 102 627 85 635 c 128,-1,21
 68 643 68 643 42 643 c 2,22,-1
 31 643 l 1,0,-1
368 632 m 2,23,-1
 294 632 l 1,24,-1
 294 78 l 1,25,-1
 368 78 l 2,26,27
 413 78 413 78 449 96.5 c 128,-1,28
 485 115 485 115 511 151 c 128,-1,29
 537 187 537 187 551 239 c 128,-1,30
 565 291 565 291 565 357 c 256,31,32
 565 423 565 423 551 474 c 128,-1,33
 537 525 537 525 511 560.5 c 128,-1,34
 485 596 485 596 449 614 c 128,-1,35
 413 632 413 632 368 632 c 2,23,-1
EndSplineSet
EndChar

StartChar: Dcaron
Encoding: 270 270 41
Width: 803
GlyphClass: 1
Flags: W
LayerCount: 2
Fore
SplineSet
311 753 m 1,0,-1
 452 753 l 1,1,-1
 563 890 l 1,2,-1
 563 910 l 1,3,-1
 481 910 l 1,4,-1
 342 817 l 1,5,-1
 431 817 l 1,6,-1
 292 910 l 1,7,-1
 200 910 l 1,8,-1
 200 890 l 1,9,-1
 311 753 l 1,0,-1
31 643 m 1,10,-1
 31 710 l 1,11,-1
 375 710 l 2,12,13
 462 710 462 710 533.5 686.5 c 128,-1,14
 605 663 605 663 657.5 617.5 c 128,-1,15
 710 572 710 572 738.5 506 c 128,-1,16
 767 440 767 440 767 357 c 256,17,18
 767 274 767 274 738.5 208 c 128,-1,19
 710 142 710 142 657.5 95.5 c 128,-1,20
 605 49 605 49 533.5 24.5 c 128,-1,21
 462 0 462 0 375 0 c 2,22,-1
 31 0 l 1,23,-1
 31 67 l 1,24,-1
 42 67 l 2,25,26
 68 67 68 67 85 74 c 128,-1,27
 102 81 102 81 102 103 c 2,28,-1
 102 607 l 2,29,30
 102 627 102 627 85 635 c 128,-1,31
 68 643 68 643 42 643 c 2,32,-1
 31 643 l 1,10,-1
368 632 m 2,33,-1
 294 632 l 1,34,-1
 294 78 l 1,35,-1
 368 78 l 2,36,37
 413 78 413 78 449 96.5 c 128,-1,38
 485 115 485 115 511 151 c 128,-1,39
 537 187 537 187 551 239 c 128,-1,40
 565 291 565 291 565 357 c 256,41,42
 565 423 565 423 551 474 c 128,-1,43
 537 525 537 525 511 560.5 c 128,-1,44
 485 596 485 596 449 614 c 128,-1,45
 413 632 413 632 368 632 c 2,33,-1
EndSplineSet
EndChar

StartChar: E
Encoding: 69 69 44
Width: 646
GlyphClass: 2
Flags: W
AnchorPoint: "Anchor-2" 447 0 basechar 0
AnchorPoint: "Anchor-1" 382 0 basechar 0
AnchorPoint: "Anchor-0" 363 741 basechar 0
LayerCount: 2
Fore
SplineSet
609 227 m 1,0,-1
 609 0 l 1,1,-1
 31 0 l 1,2,-1
 31 67 l 1,3,-1
 41 67 l 2,4,5
 67 67 67 67 84 74 c 128,-1,6
 101 81 101 81 101 103 c 2,7,-1
 101 607 l 2,8,9
 101 629 101 629 84 636 c 128,-1,10
 67 643 67 643 41 643 c 2,11,-1
 31 643 l 1,12,-1
 31 710 l 1,13,-1
 581 710 l 1,14,-1
 581 508 l 1,15,-1
 496 508 l 1,16,-1
 489 589 l 2,17,18
 488 607 488 607 476 616.5 c 128,-1,19
 464 626 464 626 441.5 629 c 128,-1,20
 419 632 419 632 386 632 c 2,21,-1
 294 632 l 1,22,-1
 294 78 l 1,23,-1
 397 78 l 2,24,25
 427 78 427 78 448 79.5 c 128,-1,26
 469 81 469 81 483 86 c 128,-1,27
 497 91 497 91 504 99.5 c 128,-1,28
 511 108 511 108 512 121 c 2,29,-1
 523 227 l 1,30,-1
 609 227 l 1,0,-1
266 397 m 1,31,32
 304 400 304 400 342 401.5 c 128,-1,33
 380 403 380 403 417.5 405.5 c 128,-1,34
 455 408 455 408 492 409 c 1,35,-1
 492 317 l 1,36,37
 455 320 455 320 417.5 322 c 128,-1,38
 380 324 380 324 342 326 c 128,-1,39
 304 328 304 328 266 330 c 1,40,-1
 266 397 l 1,31,32
EndSplineSet
Substitution2: "'ss01' Style Set 1 lookup 61 subtable" E.alt
EndChar

StartChar: Ecaron
Encoding: 282 282 53
Width: 646
GlyphClass: 1
Flags: W
LayerCount: 2
Fore
SplineSet
244 753 m 1,0,-1
 386 753 l 1,1,-1
 497 890 l 1,2,-1
 497 910 l 1,3,-1
 415 910 l 1,4,-1
 276 817 l 1,5,-1
 364 817 l 1,6,-1
 226 910 l 1,7,-1
 134 910 l 1,8,-1
 134 890 l 1,9,-1
 244 753 l 1,0,-1
609 227 m 1,10,-1
 609 0 l 1,11,-1
 31 0 l 1,12,-1
 31 67 l 1,13,-1
 41 67 l 2,14,15
 67 67 67 67 84 74 c 128,-1,16
 101 81 101 81 101 103 c 2,17,-1
 101 607 l 2,18,19
 101 629 101 629 84 636 c 128,-1,20
 67 643 67 643 41 643 c 2,21,-1
 31 643 l 1,22,-1
 31 710 l 1,23,-1
 581 710 l 1,24,-1
 581 508 l 1,25,-1
 496 508 l 1,26,-1
 489 589 l 2,27,28
 488 607 488 607 476 616.5 c 128,-1,29
 464 626 464 626 441.5 629 c 128,-1,30
 419 632 419 632 386 632 c 2,31,-1
 294 632 l 1,32,-1
 294 78 l 1,33,-1
 397 78 l 2,34,35
 427 78 427 78 448 79.5 c 128,-1,36
 469 81 469 81 483 86 c 128,-1,37
 497 91 497 91 504 99.5 c 128,-1,38
 511 108 511 108 512 121 c 2,39,-1
 523 227 l 1,40,-1
 609 227 l 1,10,-1
266 397 m 1,41,42
 304 400 304 400 342 401.5 c 128,-1,43
 380 403 380 403 417.5 405.5 c 128,-1,44
 455 408 455 408 492 409 c 1,45,-1
 492 317 l 1,46,47
 455 320 455 320 417.5 322 c 128,-1,48
 380 324 380 324 342 326 c 128,-1,49
 304 328 304 328 266 330 c 1,50,-1
 266 397 l 1,41,42
EndSplineSet
Substitution2: "'ss01' Style Set 1 lookup 61 subtable" Ecaron.alt
EndChar

StartChar: Edblgrave
Encoding: 516 516 54
Width: 646
GlyphClass: 1
Flags: W
LayerCount: 2
Fore
SplineSet
469 850 m 2,0,-1
 480 771 l 1,1,-1
 480 746 l 1,2,-1
 421 746 l 1,3,-1
 379 793 l 2,4,5
 350 825 350 825 339 844.5 c 128,-1,6
 328 864 328 864 328 887 c 0,7,8
 328 911 328 911 344.5 927 c 128,-1,9
 361 943 361 943 392 943 c 0,10,11
 417 943 417 943 432.5 933 c 128,-1,12
 448 923 448 923 456.5 902 c 128,-1,13
 465 881 465 881 469 850 c 2,0,-1
281 850 m 2,14,-1
 292 771 l 1,15,-1
 292 746 l 1,16,-1
 233 746 l 1,17,-1
 191 793 l 2,18,19
 163 825 163 825 151.5 844.5 c 128,-1,20
 140 864 140 864 140 887 c 0,21,22
 140 911 140 911 156.5 927 c 128,-1,23
 173 943 173 943 205 943 c 0,24,25
 229 943 229 943 244.5 933 c 128,-1,26
 260 923 260 923 269 902 c 128,-1,27
 278 881 278 881 281 850 c 2,14,-1
609 227 m 1,28,-1
 609 0 l 1,29,-1
 31 0 l 1,30,-1
 31 67 l 1,31,-1
 41 67 l 2,32,33
 68 67 68 67 84.5 74 c 128,-1,34
 101 81 101 81 101 103 c 2,35,-1
 101 607 l 2,36,37
 101 629 101 629 84.5 636 c 128,-1,38
 68 643 68 643 41 643 c 2,39,-1
 31 643 l 1,40,-1
 31 710 l 1,41,-1
 581 710 l 1,42,-1
 581 508 l 1,43,-1
 496 508 l 1,44,-1
 489 589 l 2,45,46
 488 607 488 607 476 616.5 c 128,-1,47
 464 626 464 626 441.5 629 c 128,-1,48
 419 632 419 632 386 632 c 2,49,-1
 294 632 l 1,50,-1
 294 78 l 1,51,-1
 397 78 l 2,52,53
 427 78 427 78 448.5 79.5 c 128,-1,54
 470 81 470 81 483.5 86 c 128,-1,55
 497 91 497 91 504 99.5 c 128,-1,56
 511 108 511 108 512 121 c 2,57,-1
 523 227 l 1,58,-1
 609 227 l 1,28,-1
266 397 m 1,59,60
 304 400 304 400 342 401.5 c 128,-1,61
 380 403 380 403 417.5 405.5 c 128,-1,62
 455 408 455 408 492 409 c 1,63,-1
 492 317 l 1,64,65
 455 320 455 320 417.5 322 c 128,-1,66
 380 324 380 324 342 326 c 128,-1,67
 304 328 304 328 266 330 c 1,68,-1
 266 397 l 1,59,60
EndSplineSet
Substitution2: "'ss01' Style Set 1 lookup 61 subtable" Edblgrave.alt
EndChar

StartChar: Einvertedbreve
Encoding: 518 518 55
Width: 646
GlyphClass: 1
Flags: W
LayerCount: 2
Fore
SplineSet
324 915 m 256,0,1
 279 915 279 915 243.5 897.5 c 128,-1,2
 208 880 208 880 186.5 845 c 128,-1,3
 165 810 165 810 162 756 c 1,4,-1
 246 756 l 1,5,6
 249 777 249 777 258.5 789.5 c 128,-1,7
 268 802 268 802 283.5 807 c 128,-1,8
 299 812 299 812 321 812 c 256,9,10
 343 812 343 812 359 807 c 128,-1,11
 375 802 375 802 384.5 789.5 c 128,-1,12
 394 777 394 777 397 756 c 1,13,-1
 486 756 l 1,14,15
 483 810 483 810 461.5 845 c 128,-1,16
 440 880 440 880 404.5 897.5 c 128,-1,17
 369 915 369 915 324 915 c 256,0,1
609 227 m 1,18,-1
 609 0 l 1,19,-1
 31 0 l 1,20,-1
 31 67 l 1,21,-1
 41 67 l 2,22,23
 68 67 68 67 84.5 74 c 128,-1,24
 101 81 101 81 101 103 c 2,25,-1
 101 607 l 2,26,27
 101 629 101 629 84.5 636 c 128,-1,28
 68 643 68 643 41 643 c 2,29,-1
 31 643 l 1,30,-1
 31 710 l 1,31,-1
 581 710 l 1,32,-1
 581 508 l 1,33,-1
 496 508 l 1,34,-1
 489 589 l 2,35,36
 488 607 488 607 476 616.5 c 128,-1,37
 464 626 464 626 441.5 629 c 128,-1,38
 419 632 419 632 386 632 c 2,39,-1
 294 632 l 1,40,-1
 294 78 l 1,41,-1
 397 78 l 2,42,43
 427 78 427 78 448.5 79.5 c 128,-1,44
 470 81 470 81 483.5 86 c 128,-1,45
 497 91 497 91 504 99.5 c 128,-1,46
 511 108 511 108 512 121 c 2,47,-1
 523 227 l 1,48,-1
 609 227 l 1,18,-1
266 397 m 1,49,50
 304 400 304 400 342 401.5 c 128,-1,51
 380 403 380 403 417.5 405.5 c 128,-1,52
 455 408 455 408 492 409 c 1,53,-1
 492 317 l 1,54,55
 455 320 455 320 417.5 322 c 128,-1,56
 380 324 380 324 342 326 c 128,-1,57
 304 328 304 328 266 330 c 1,58,-1
 266 397 l 1,49,50
EndSplineSet
Substitution2: "'ss01' Style Set 1 lookup 61 subtable" Einvertedbreve.alt
EndChar

StartChar: F
Encoding: 70 70 67
Width: 617
GlyphClass: 2
Flags: W
AnchorPoint: "Anchor-0" 312 741 basechar 0
LayerCount: 2
Fore
SplineSet
294 632 m 1,0,-1
 294 103 l 2,1,2
 294 90 294 90 300.5 82.5 c 128,-1,3
 307 75 307 75 317.5 72 c 128,-1,4
 328 69 328 69 340.5 68 c 128,-1,5
 353 67 353 67 365 67 c 2,6,-1
 382 67 l 1,7,-1
 382 0 l 1,8,-1
 31 0 l 1,9,-1
 31 67 l 1,10,-1
 41 67 l 2,11,12
 67 67 67 67 84 74 c 128,-1,13
 101 81 101 81 101 103 c 2,14,-1
 101 607 l 2,15,16
 101 629 101 629 84 636 c 128,-1,17
 67 643 67 643 41 643 c 2,18,-1
 31 643 l 1,19,-1
 31 710 l 1,20,-1
 586 710 l 1,21,-1
 586 508 l 1,22,-1
 502 508 l 1,23,-1
 494 589 l 2,24,25
 493 607 493 607 480.5 616.5 c 128,-1,26
 468 626 468 626 446 629 c 128,-1,27
 424 632 424 632 392 632 c 2,28,-1
 294 632 l 1,0,-1
266 390 m 1,29,30
 306 393 306 393 345 394.5 c 128,-1,31
 384 396 384 396 423 398.5 c 128,-1,32
 462 401 462 401 500 403 c 1,33,-1
 500 310 l 1,34,35
 461 313 461 313 422 315 c 128,-1,36
 383 317 383 317 344.5 319 c 128,-1,37
 306 321 306 321 266 323 c 1,38,-1
 266 390 l 1,29,30
EndSplineSet
Substitution2: "'ss01' Style Set 1 lookup 61 subtable" F.alt
EndChar

StartChar: G
Encoding: 71 71 68
Width: 771
GlyphClass: 2
Flags: W
AnchorPoint: "Anchor-1" 393 0 basechar 0
AnchorPoint: "Anchor-0" 393 741 basechar 0
LayerCount: 2
Fore
SplineSet
698 256 m 2,0,-1
 698 104 l 1,1,2
 682 84 682 84 653.5 64 c 128,-1,3
 625 44 625 44 586.5 27 c 128,-1,4
 548 10 548 10 501.5 0 c 128,-1,5
 455 -10 455 -10 404 -10 c 0,6,7
 321 -10 321 -10 253.5 16 c 128,-1,8
 186 42 186 42 137 90 c 128,-1,9
 88 138 88 138 62 205 c 128,-1,10
 36 272 36 272 36 355 c 0,11,12
 36 435 36 435 63 502 c 128,-1,13
 90 569 90 569 139 618 c 128,-1,14
 188 667 188 667 253.5 693.5 c 128,-1,15
 319 720 319 720 395 720 c 0,16,17
 467 720 467 720 515 695.5 c 128,-1,18
 563 671 563 671 592.5 629 c 128,-1,19
 622 587 622 587 638 532 c 1,20,-1
 585 541 l 1,21,-1
 604 710 l 1,22,-1
 685 710 l 1,23,-1
 685 486 l 1,24,-1
 591 486 l 1,25,26
 576 531 576 531 553.5 565 c 128,-1,27
 531 599 531 599 498 617.5 c 128,-1,28
 465 636 465 636 417 636 c 0,29,30
 375 636 375 636 341.5 616 c 128,-1,31
 308 596 308 596 284.5 559.5 c 128,-1,32
 261 523 261 523 249 471 c 128,-1,33
 237 419 237 419 237 355 c 0,34,35
 237 286 237 286 249 233 c 128,-1,36
 261 180 261 180 284.5 145 c 128,-1,37
 308 110 308 110 341 91.5 c 128,-1,38
 374 73 374 73 414 73 c 0,39,40
 443 73 443 73 464.5 80.5 c 128,-1,41
 486 88 486 88 500 97.5 c 128,-1,42
 514 107 514 107 522 114 c 1,43,-1
 522 256 l 2,44,45
 522 278 522 278 505.5 285 c 128,-1,46
 489 292 489 292 462 292 c 2,47,-1
 452 292 l 1,48,-1
 452 359 l 1,49,-1
 753 359 l 1,50,-1
 753 292 l 1,51,-1
 747 292 l 2,52,53
 726 292 726 292 712 285 c 128,-1,54
 698 278 698 278 698 256 c 2,0,-1
EndSplineSet
EndChar

StartChar: Gcaron
Encoding: 486 486 73
Width: 771
GlyphClass: 1
Flags: W
LayerCount: 2
Fore
SplineSet
321 753 m 1,0,-1
 463 753 l 1,1,-1
 574 890 l 1,2,-1
 574 910 l 1,3,-1
 492 910 l 1,4,-1
 353 817 l 1,5,-1
 441 817 l 1,6,-1
 303 910 l 1,7,-1
 211 910 l 1,8,-1
 211 890 l 1,9,-1
 321 753 l 1,0,-1
698 256 m 2,10,-1
 698 104 l 1,11,12
 682 84 682 84 653.5 64 c 128,-1,13
 625 44 625 44 586.5 27 c 128,-1,14
 548 10 548 10 501.5 0 c 128,-1,15
 455 -10 455 -10 404 -10 c 0,16,17
 321 -10 321 -10 253.5 16 c 128,-1,18
 186 42 186 42 137 90 c 128,-1,19
 88 138 88 138 62 205 c 128,-1,20
 36 272 36 272 36 355 c 0,21,22
 36 435 36 435 63 502 c 128,-1,23
 90 569 90 569 139 618 c 128,-1,24
 188 667 188 667 253.5 693.5 c 128,-1,25
 319 720 319 720 395 720 c 0,26,27
 467 720 467 720 515 695.5 c 128,-1,28
 563 671 563 671 592.5 629 c 128,-1,29
 622 587 622 587 638 532 c 1,30,-1
 585 541 l 1,31,-1
 604 710 l 1,32,-1
 685 710 l 1,33,-1
 685 486 l 1,34,-1
 591 486 l 1,35,36
 576 531 576 531 553.5 565 c 128,-1,37
 531 599 531 599 498 617.5 c 128,-1,38
 465 636 465 636 417 636 c 0,39,40
 375 636 375 636 341.5 616 c 128,-1,41
 308 596 308 596 284.5 559.5 c 128,-1,42
 261 523 261 523 249 471 c 128,-1,43
 237 419 237 419 237 355 c 0,44,45
 237 286 237 286 249 233 c 128,-1,46
 261 180 261 180 284.5 145 c 128,-1,47
 308 110 308 110 341 91.5 c 128,-1,48
 374 73 374 73 414 73 c 0,49,50
 443 73 443 73 464.5 80.5 c 128,-1,51
 486 88 486 88 500 97.5 c 128,-1,52
 514 107 514 107 522 114 c 1,53,-1
 522 256 l 2,54,55
 522 278 522 278 505.5 285 c 128,-1,56
 489 292 489 292 462 292 c 2,57,-1
 452 292 l 1,58,-1
 452 359 l 1,59,-1
 753 359 l 1,60,-1
 753 292 l 1,61,-1
 747 292 l 2,62,63
 726 292 726 292 712 285 c 128,-1,64
 698 278 698 278 698 256 c 2,10,-1
EndSplineSet
EndChar

StartChar: H
Encoding: 72 72 75
Width: 826
GlyphClass: 2
Flags: W
AnchorPoint: "Anchor-1" 413 0 basechar 0
AnchorPoint: "Anchor-0" 413 741 basechar 0
LayerCount: 2
Fore
SplineSet
184 405 m 1,0,-1
 613 405 l 1,1,-1
 613 327 l 1,2,-1
 184 327 l 1,3,-1
 184 405 l 1,0,-1
31 0 m 1,4,-1
 31 67 l 1,5,-1
 41 67 l 2,6,7
 67 67 67 67 84 74 c 128,-1,8
 101 81 101 81 101 103 c 2,9,-1
 101 607 l 2,10,11
 101 629 101 629 84 636 c 128,-1,12
 67 643 67 643 41 643 c 2,13,-1
 31 643 l 1,14,-1
 31 710 l 1,15,-1
 364 710 l 1,16,-1
 364 643 l 1,17,-1
 355 643 l 2,18,19
 346 643 346 643 335 642.5 c 128,-1,20
 324 642 324 642 315 640.5 c 128,-1,21
 306 639 306 639 300 637.5 c 128,-1,22
 294 636 294 636 294 633 c 2,23,-1
 294 77 l 2,24,25
 294 74 294 74 300 72.5 c 128,-1,26
 306 71 306 71 315 69.5 c 128,-1,27
 324 68 324 68 335 67.5 c 128,-1,28
 346 67 346 67 355 67 c 2,29,-1
 364 67 l 1,30,-1
 364 0 l 1,31,-1
 31 0 l 1,4,-1
462 0 m 1,32,-1
 462 67 l 1,33,-1
 470 67 l 2,34,35
 481 67 481 67 491.5 67.5 c 128,-1,36
 502 68 502 68 511 69.5 c 128,-1,37
 520 71 520 71 526 72.5 c 128,-1,38
 532 74 532 74 532 77 c 2,39,-1
 532 633 l 2,40,41
 532 636 532 636 526 637.5 c 128,-1,42
 520 639 520 639 511 640.5 c 128,-1,43
 502 642 502 642 491.5 642.5 c 128,-1,44
 481 643 481 643 470 643 c 2,45,-1
 462 643 l 1,46,-1
 462 710 l 1,47,-1
 795 710 l 1,48,-1
 795 643 l 1,49,-1
 784 643 l 2,50,51
 758 643 758 643 741.5 636 c 128,-1,52
 725 629 725 629 725 607 c 2,53,-1
 725 103 l 2,54,55
 725 81 725 81 741.5 74 c 128,-1,56
 758 67 758 67 784 67 c 2,57,-1
 795 67 l 1,58,-1
 795 0 l 1,59,-1
 462 0 l 1,32,-1
EndSplineSet
EndChar

StartChar: I
Encoding: 73 73 79
Width: 396
GlyphClass: 2
Flags: W
AnchorPoint: "Anchor-2" 260 0 basechar 0
AnchorPoint: "Anchor-1" 199 0 basechar 0
AnchorPoint: "Anchor-0" 199 741 basechar 0
LayerCount: 2
Fore
SplineSet
101 103 m 2,0,-1
 101 607 l 2,1,2
 101 629 101 629 84 636 c 128,-1,3
 67 643 67 643 41 643 c 2,4,-1
 31 643 l 1,5,-1
 31 710 l 1,6,-1
 364 710 l 1,7,-1
 364 643 l 1,8,-1
 354 643 l 2,9,10
 328 643 328 643 311 636 c 128,-1,11
 294 629 294 629 294 607 c 2,12,-1
 294 103 l 2,13,14
 294 81 294 81 311 74 c 128,-1,15
 328 67 328 67 354 67 c 2,16,-1
 364 67 l 1,17,-1
 364 0 l 1,18,-1
 31 0 l 1,19,-1
 31 67 l 1,20,-1
 41 67 l 2,21,22
 67 67 67 67 84 74 c 128,-1,23
 101 81 101 81 101 103 c 2,0,-1
EndSplineSet
EndChar

StartChar: Icaron
Encoding: 463 463 89
Width: 396
GlyphClass: 1
Flags: W
LayerCount: 2
Fore
SplineSet
127 753 m 1,0,-1
 268 753 l 1,1,-1
 379 890 l 1,2,-1
 379 910 l 1,3,-1
 297 910 l 1,4,-1
 158 817 l 1,5,-1
 247 817 l 1,6,-1
 108 910 l 1,7,-1
 16 910 l 1,8,-1
 16 890 l 1,9,-1
 127 753 l 1,0,-1
101 103 m 2,10,-1
 101 607 l 2,11,12
 101 629 101 629 84 636 c 128,-1,13
 67 643 67 643 41 643 c 2,14,-1
 31 643 l 1,15,-1
 31 710 l 1,16,-1
 364 710 l 1,17,-1
 364 643 l 1,18,-1
 354 643 l 2,19,20
 328 643 328 643 311 636 c 128,-1,21
 294 629 294 629 294 607 c 2,22,-1
 294 103 l 2,23,24
 294 81 294 81 311 74 c 128,-1,25
 328 67 328 67 354 67 c 2,26,-1
 364 67 l 1,27,-1
 364 0 l 1,28,-1
 31 0 l 1,29,-1
 31 67 l 1,30,-1
 41 67 l 2,31,32
 67 67 67 67 84 74 c 128,-1,33
 101 81 101 81 101 103 c 2,10,-1
EndSplineSet
EndChar

StartChar: Idblgrave
Encoding: 520 520 90
Width: 396
GlyphClass: 1
Flags: W
LayerCount: 2
Fore
SplineSet
326 850 m 2,0,-1
 337 771 l 1,1,-1
 337 746 l 1,2,-1
 278 746 l 1,3,-1
 236 793 l 2,4,5
 208 825 208 825 196.5 844.5 c 128,-1,6
 185 864 185 864 185 887 c 0,7,8
 185 911 185 911 201.5 927 c 128,-1,9
 218 943 218 943 250 943 c 0,10,11
 274 943 274 943 289.5 933 c 128,-1,12
 305 923 305 923 313.5 902 c 128,-1,13
 322 881 322 881 326 850 c 2,0,-1
138 850 m 2,14,-1
 149 771 l 1,15,-1
 149 746 l 1,16,-1
 90 746 l 1,17,-1
 48 793 l 2,18,19
 20 825 20 825 8.5 844.5 c 128,-1,20
 -3 864 -3 864 -3 887 c 0,21,22
 -3 911 -3 911 13.5 927 c 128,-1,23
 30 943 30 943 62 943 c 0,24,25
 86 943 86 943 101.5 933 c 128,-1,26
 117 923 117 923 126 902 c 128,-1,27
 135 881 135 881 138 850 c 2,14,-1
101 103 m 2,28,-1
 101 607 l 2,29,30
 101 629 101 629 84.5 636 c 128,-1,31
 68 643 68 643 41 643 c 2,32,-1
 31 643 l 1,33,-1
 31 710 l 1,34,-1
 364 710 l 1,35,-1
 364 643 l 1,36,-1
 354 643 l 2,37,38
 328 643 328 643 311 636 c 128,-1,39
 294 629 294 629 294 607 c 2,40,-1
 294 103 l 2,41,42
 294 81 294 81 311 74 c 128,-1,43
 328 67 328 67 354 67 c 2,44,-1
 364 67 l 1,45,-1
 364 0 l 1,46,-1
 31 0 l 1,47,-1
 31 67 l 1,48,-1
 41 67 l 2,49,50
 68 67 68 67 84.5 74 c 128,-1,51
 101 81 101 81 101 103 c 2,28,-1
EndSplineSet
EndChar

StartChar: Iinvertedbreve
Encoding: 522 522 91
Width: 396
GlyphClass: 1
Flags: W
LayerCount: 2
Fore
SplineSet
198 915 m 256,0,1
 153 915 153 915 117.5 897.5 c 128,-1,2
 82 880 82 880 60.5 845 c 128,-1,3
 39 810 39 810 36 756 c 1,4,-1
 120 756 l 1,5,6
 123 777 123 777 132.5 789.5 c 128,-1,7
 142 802 142 802 157 807 c 128,-1,8
 172 812 172 812 195 812 c 0,9,10
 217 812 217 812 233 807 c 128,-1,11
 249 802 249 802 258.5 789.5 c 128,-1,12
 268 777 268 777 271 756 c 1,13,-1
 360 756 l 1,14,15
 357 810 357 810 335 845 c 128,-1,16
 313 880 313 880 278 897.5 c 128,-1,17
 243 915 243 915 198 915 c 256,0,1
101 103 m 2,18,-1
 101 607 l 2,19,20
 101 629 101 629 84 636 c 128,-1,21
 67 643 67 643 41 643 c 2,22,-1
 31 643 l 1,23,-1
 31 710 l 1,24,-1
 364 710 l 1,25,-1
 364 643 l 1,26,-1
 354 643 l 2,27,28
 328 643 328 643 311 636 c 128,-1,29
 294 629 294 629 294 607 c 2,30,-1
 294 103 l 2,31,32
 294 81 294 81 311 74 c 128,-1,33
 328 67 328 67 354 67 c 2,34,-1
 364 67 l 1,35,-1
 364 0 l 1,36,-1
 31 0 l 1,37,-1
 31 67 l 1,38,-1
 41 67 l 2,39,40
 67 67 67 67 84 74 c 128,-1,41
 101 81 101 81 101 103 c 2,18,-1
EndSplineSet
EndChar

StartChar: J
Encoding: 74 74 94
Width: 606
GlyphClass: 2
Flags: W
AnchorPoint: "Anchor-0" 408 741 basechar 0
LayerCount: 2
Fore
SplineSet
231 710 m 1,0,-1
 577 710 l 1,1,-1
 577 643 l 1,2,-1
 567 643 l 2,3,4
 541 643 541 643 524 636 c 128,-1,5
 507 629 507 629 507 607 c 2,6,-1
 507 234 l 2,7,8
 507 164 507 164 488 117 c 128,-1,9
 469 70 469 70 433.5 42 c 128,-1,10
 398 14 398 14 350 2 c 128,-1,11
 302 -10 302 -10 244 -10 c 0,12,13
 189 -10 189 -10 146 0.5 c 128,-1,14
 103 11 103 11 71.5 28 c 128,-1,15
 40 45 40 45 19 63 c 1,16,-1
 19 208 l 1,17,-1
 162 208 l 1,18,-1
 162 72 l 1,19,20
 143 77 143 77 130 86.5 c 128,-1,21
 117 96 117 96 111.5 106.5 c 128,-1,22
 106 117 106 117 108.5 124.5 c 128,-1,23
 111 132 111 132 121 131 c 1,24,25
 132 117 132 117 145.5 103.5 c 128,-1,26
 159 90 159 90 177.5 81.5 c 128,-1,27
 196 73 196 73 221 73 c 0,28,29
 252 73 252 73 272.5 86 c 128,-1,30
 293 99 293 99 304 133.5 c 128,-1,31
 315 168 315 168 315 230 c 2,32,-1
 315 607 l 2,33,34
 315 622 315 622 306.5 629.5 c 128,-1,35
 298 637 298 637 283.5 640 c 128,-1,36
 269 643 269 643 250 643 c 2,37,-1
 231 643 l 1,38,-1
 231 710 l 1,0,-1
EndSplineSet
EndChar

StartChar: K
Encoding: 75 75 96
Width: 786
GlyphClass: 2
Flags: W
AnchorPoint: "Anchor-1" 405 0 basechar 0
AnchorPoint: "Anchor-0" 405 741 basechar 0
LayerCount: 2
Fore
SplineSet
31 0 m 1,0,-1
 31 67 l 1,1,-1
 41 67 l 2,2,3
 68 67 68 67 84.5 74 c 128,-1,4
 101 81 101 81 101 103 c 2,5,-1
 101 607 l 2,6,7
 101 629 101 629 84.5 636 c 128,-1,8
 68 643 68 643 41 643 c 2,9,-1
 31 643 l 1,10,-1
 31 710 l 1,11,-1
 375 710 l 1,12,-1
 375 643 l 1,13,-1
 365 643 l 2,14,15
 353 643 353 643 340 642.5 c 128,-1,16
 327 642 327 642 317 640.5 c 128,-1,17
 307 639 307 639 300.5 637.5 c 128,-1,18
 294 636 294 636 294 633 c 2,19,-1
 294 77 l 2,20,21
 294 74 294 74 299 72.5 c 128,-1,22
 304 71 304 71 312.5 69.5 c 128,-1,23
 321 68 321 68 331 67.5 c 128,-1,24
 341 67 341 67 351 67 c 2,25,-1
 360 67 l 1,26,-1
 360 0 l 1,27,-1
 31 0 l 1,0,-1
429 0 m 1,28,-1
 429 67 l 1,29,-1
 438 67 l 2,30,31
 451 67 451 67 464 68 c 128,-1,32
 477 69 477 69 485.5 71.5 c 128,-1,33
 494 74 494 74 494 77 c 2,34,-1
 322 337 l 1,35,-1
 322 363 l 1,36,-1
 558 634 l 2,37,38
 558 638 558 638 546.5 640 c 128,-1,39
 535 642 535 642 518.5 642.5 c 128,-1,40
 502 643 502 643 486 643 c 2,41,-1
 476 643 l 1,42,-1
 476 710 l 1,43,-1
 734 710 l 1,44,-1
 734 643 l 1,45,-1
 715 643 l 2,46,47
 698 643 698 643 685.5 640 c 128,-1,48
 673 637 673 637 662 630 c 128,-1,49
 651 623 651 623 639 609 c 2,50,-1
 418 355 l 1,51,-1
 464 453 l 1,52,-1
 698 100 l 2,53,54
 707 87 707 87 715.5 80 c 128,-1,55
 724 73 724 73 735 70 c 128,-1,56
 746 67 746 67 761 67 c 2,57,-1
 771 67 l 1,58,-1
 771 0 l 1,59,-1
 429 0 l 1,28,-1
EndSplineSet
EndChar

StartChar: L
Encoding: 76 76 98
Width: 637
GlyphClass: 2
Flags: W
AnchorPoint: "Anchor-2" 485 710 basechar 0
AnchorPoint: "Anchor-1" 390 0 basechar 0
AnchorPoint: "Anchor-0" 390 741 basechar 0
LayerCount: 2
Fore
SplineSet
371 710 m 1,0,-1
 31 710 l 1,1,-1
 31 643 l 1,2,-1
 41 643 l 2,3,4
 67 643 67 643 84 636 c 128,-1,5
 101 629 101 629 101 607 c 2,6,-1
 101 103 l 2,7,8
 101 81 101 81 84 74 c 128,-1,9
 67 67 67 67 41 67 c 2,10,-1
 31 67 l 1,11,-1
 31 0 l 1,12,-1
 606 0 l 1,13,-1
 606 239 l 1,14,-1
 518 239 l 1,15,-1
 508 121 l 2,16,17
 507 103 507 103 494.5 94 c 128,-1,18
 482 85 482 85 457 81.5 c 128,-1,19
 432 78 432 78 392 78 c 2,20,-1
 294 78 l 1,21,-1
 294 607 l 2,22,23
 294 629 294 629 312 636 c 128,-1,24
 330 643 330 643 357 643 c 2,25,-1
 371 643 l 1,26,-1
 371 710 l 1,0,-1
EndSplineSet
EndChar

StartChar: M
Encoding: 77 77 104
Width: 965
GlyphClass: 2
Flags: W
AnchorPoint: "Anchor-1" 471 0 basechar 0
LayerCount: 2
Fore
SplineSet
31 0 m 1,0,-1
 31 67 l 1,1,-1
 41 67 l 2,2,3
 59 67 59 67 72.5 70 c 128,-1,4
 86 73 86 73 93.5 81 c 128,-1,5
 101 89 101 89 101 103 c 2,6,-1
 101 607 l 2,7,8
 101 622 101 622 93.5 629.5 c 128,-1,9
 86 637 86 637 72.5 640 c 128,-1,10
 59 643 59 643 41 643 c 2,11,-1
 31 643 l 1,12,-1
 31 710 l 1,13,-1
 363 710 l 1,14,-1
 503 185 l 1,15,-1
 468 243 l 1,16,-1
 607 710 l 1,17,-1
 934 710 l 1,18,-1
 934 643 l 1,19,-1
 924 643 l 2,20,21
 898 643 898 643 881 636 c 128,-1,22
 864 629 864 629 864 607 c 2,23,-1
 864 103 l 2,24,25
 864 81 864 81 881 74 c 128,-1,26
 898 67 898 67 924 67 c 2,27,-1
 934 67 l 1,28,-1
 934 0 l 1,29,-1
 604 0 l 1,30,-1
 604 67 l 1,31,-1
 613 67 l 2,32,33
 627 67 627 67 640 68 c 128,-1,34
 653 69 653 69 662 71.5 c 128,-1,35
 671 74 671 74 671 77 c 2,36,-1
 671 688 l 1,37,-1
 684 686 l 1,38,-1
 478 -2 l 1,39,-1
 377 -2 l 1,40,-1
 171 687 l 1,41,-1
 185 688 l 1,42,-1
 185 77 l 2,43,44
 185 74 185 74 194.5 71.5 c 128,-1,45
 204 69 204 69 218 68 c 128,-1,46
 232 67 232 67 245 67 c 2,47,-1
 252 67 l 1,48,-1
 252 0 l 1,49,-1
 31 0 l 1,0,-1
EndSplineSet
EndChar

StartChar: N
Encoding: 78 78 106
Width: 769
GlyphClass: 2
Flags: W
AnchorPoint: "Anchor-1" 393 0 basechar 0
AnchorPoint: "Anchor-0" 393 741 basechar 0
LayerCount: 2
Fore
SplineSet
31 0 m 1,0,-1
 31 67 l 1,1,-1
 41 67 l 2,2,3
 59 67 59 67 72.5 71 c 128,-1,4
 86 75 86 75 93.5 84.5 c 128,-1,5
 101 94 101 94 101 108 c 2,6,-1
 101 607 l 2,7,8
 101 622 101 622 93.5 629.5 c 128,-1,9
 86 637 86 637 72.5 640 c 128,-1,10
 59 643 59 643 41 643 c 2,11,-1
 31 643 l 1,12,-1
 31 710 l 1,13,-1
 346 710 l 1,14,-1
 612 153 l 1,15,-1
 586 167 l 1,16,-1
 586 628 l 2,17,18
 586 632 586 632 576 635 c 128,-1,19
 566 638 566 638 551 640.5 c 128,-1,20
 536 643 536 643 519 643 c 2,21,-1
 506 643 l 1,22,-1
 506 710 l 1,23,-1
 741 710 l 1,24,-1
 741 643 l 1,25,-1
 730 643 l 2,26,27
 713 643 713 643 699.5 639.5 c 128,-1,28
 686 636 686 636 678 628 c 128,-1,29
 670 620 670 620 670 605 c 2,30,-1
 670 0 l 1,31,-1
 487 0 l 1,32,-1
 159 670 l 1,33,-1
 185 663 l 1,34,-1
 185 82 l 2,35,36
 185 79 185 79 195.5 75.5 c 128,-1,37
 206 72 206 72 221 69.5 c 128,-1,38
 236 67 236 67 253 67 c 2,39,-1
 266 67 l 1,40,-1
 266 0 l 1,41,-1
 31 0 l 1,0,-1
EndSplineSet
EndChar

StartChar: Ncaron
Encoding: 327 327 110
Width: 769
GlyphClass: 1
Flags: W
LayerCount: 2
Fore
SplineSet
325 753 m 1,0,-1
 467 753 l 1,1,-1
 578 890 l 1,2,-1
 578 910 l 1,3,-1
 496 910 l 1,4,-1
 357 817 l 1,5,-1
 445 817 l 1,6,-1
 306 910 l 1,7,-1
 215 910 l 1,8,-1
 215 890 l 1,9,-1
 325 753 l 1,0,-1
31 0 m 1,10,-1
 31 67 l 1,11,-1
 41 67 l 2,12,13
 59 67 59 67 72.5 71 c 128,-1,14
 86 75 86 75 93.5 84.5 c 128,-1,15
 101 94 101 94 101 108 c 2,16,-1
 101 607 l 2,17,18
 101 622 101 622 93.5 629.5 c 128,-1,19
 86 637 86 637 72.5 640 c 128,-1,20
 59 643 59 643 41 643 c 2,21,-1
 31 643 l 1,22,-1
 31 710 l 1,23,-1
 346 710 l 1,24,-1
 612 153 l 1,25,-1
 586 167 l 1,26,-1
 586 628 l 2,27,28
 586 632 586 632 576 635 c 128,-1,29
 566 638 566 638 551 640.5 c 128,-1,30
 536 643 536 643 519 643 c 2,31,-1
 506 643 l 1,32,-1
 506 710 l 1,33,-1
 741 710 l 1,34,-1
 741 643 l 1,35,-1
 730 643 l 2,36,37
 713 643 713 643 699.5 639.5 c 128,-1,38
 686 636 686 636 678 628 c 128,-1,39
 670 620 670 620 670 605 c 2,40,-1
 670 0 l 1,41,-1
 487 0 l 1,42,-1
 159 670 l 1,43,-1
 185 663 l 1,44,-1
 185 82 l 2,45,46
 185 79 185 79 195.5 75.5 c 128,-1,47
 206 72 206 72 221 69.5 c 128,-1,48
 236 67 236 67 253 67 c 2,49,-1
 266 67 l 1,50,-1
 266 0 l 1,51,-1
 31 0 l 1,10,-1
EndSplineSet
EndChar

StartChar: O
Encoding: 79 79 114
Width: 806
GlyphClass: 2
Flags: W
AnchorPoint: "Anchor-2" 444 0 basechar 0
AnchorPoint: "Anchor-1" 403 0 basechar 0
AnchorPoint: "Anchor-0" 403 741 basechar 0
LayerCount: 2
Fore
SplineSet
403 -10 m 256,0,1
 323 -10 323 -10 256 16 c 128,-1,2
 189 42 189 42 139.5 90 c 128,-1,3
 90 138 90 138 63 205.5 c 128,-1,4
 36 273 36 273 36 355 c 256,5,6
 36 437 36 437 63 504 c 128,-1,7
 90 571 90 571 139.5 619.5 c 128,-1,8
 189 668 189 668 256 694 c 128,-1,9
 323 720 323 720 403 720 c 256,10,11
 483 720 483 720 550 694 c 128,-1,12
 617 668 617 668 666.5 619.5 c 128,-1,13
 716 571 716 571 743 504 c 128,-1,14
 770 437 770 437 770 355 c 256,15,16
 770 273 770 273 743 205.5 c 128,-1,17
 716 138 716 138 666.5 90 c 128,-1,18
 617 42 617 42 550 16 c 128,-1,19
 483 -10 483 -10 403 -10 c 256,0,1
403 73 m 256,20,21
 440 73 440 73 470.5 91 c 128,-1,22
 501 109 501 109 523 145.5 c 128,-1,23
 545 182 545 182 556.5 234.5 c 128,-1,24
 568 287 568 287 568 355 c 256,25,26
 568 423 568 423 556.5 475.5 c 128,-1,27
 545 528 545 528 523 564.5 c 128,-1,28
 501 601 501 601 470.5 619 c 128,-1,29
 440 637 440 637 403 637 c 256,30,31
 366 637 366 637 335.5 619 c 128,-1,32
 305 601 305 601 283 564.5 c 128,-1,33
 261 528 261 528 249.5 475.5 c 128,-1,34
 238 423 238 423 238 355 c 256,35,36
 238 287 238 287 249.5 234.5 c 128,-1,37
 261 182 261 182 283 145.5 c 128,-1,38
 305 109 305 109 335.5 91 c 128,-1,39
 366 73 366 73 403 73 c 256,20,21
EndSplineSet
EndChar

StartChar: Ohorn
Encoding: 416 416 123
Width: 816
GlyphClass: 2
Flags: W
AnchorPoint: "Anchor-1" 405 -35 basechar 0
AnchorPoint: "Anchor-0" 405 742 basechar 0
LayerCount: 2
Fore
SplineSet
403 73 m 0,0,1
 440 73 440 73 470.5 91 c 128,-1,2
 501 109 501 109 523 145.5 c 128,-1,3
 545 182 545 182 557 234.5 c 128,-1,4
 569 287 569 287 569 355 c 256,5,6
 569 423 569 423 557 475.5 c 128,-1,7
 545 528 545 528 523 564.5 c 128,-1,8
 501 601 501 601 470.5 619 c 128,-1,9
 440 637 440 637 403 637 c 0,10,11
 365 637 365 637 334.5 619 c 128,-1,12
 304 601 304 601 282 564.5 c 128,-1,13
 260 528 260 528 248.5 475.5 c 128,-1,14
 237 423 237 423 237 355 c 256,15,16
 237 287 237 287 248.5 234.5 c 128,-1,17
 260 182 260 182 282 145.5 c 128,-1,18
 304 109 304 109 334.5 91 c 128,-1,19
 365 73 365 73 403 73 c 0,0,1
608 628 m 1,20,-1
 557 661 l 1,21,22
 606 642 606 642 645 614.5 c 128,-1,23
 684 587 684 587 712 549 c 128,-1,24
 740 511 740 511 755 462.5 c 128,-1,25
 770 414 770 414 770 355 c 0,26,27
 770 273 770 273 743 205.5 c 128,-1,28
 716 138 716 138 666.5 90 c 128,-1,29
 617 42 617 42 550 16 c 128,-1,30
 483 -10 483 -10 403 -10 c 256,31,32
 323 -10 323 -10 256 16 c 128,-1,33
 189 42 189 42 139.5 90 c 128,-1,34
 90 138 90 138 63 205.5 c 128,-1,35
 36 273 36 273 36 355 c 256,36,37
 36 437 36 437 63 504 c 128,-1,38
 90 571 90 571 139.5 619.5 c 128,-1,39
 189 668 189 668 256 694 c 128,-1,40
 323 720 323 720 403 720 c 0,41,42
 428 720 428 720 450 717.5 c 128,-1,43
 472 715 472 715 491 712 c 128,-1,44
 510 709 510 709 526.5 706.5 c 128,-1,45
 543 704 543 704 557 704 c 0,46,47
 591 704 591 704 614 718 c 128,-1,48
 637 732 637 732 650.5 756 c 128,-1,49
 664 780 664 780 671 811 c 128,-1,50
 678 842 678 842 680 876 c 1,51,-1
 814 876 l 1,52,53
 811 818 811 818 798.5 774 c 128,-1,54
 786 730 786 730 763.5 699.5 c 128,-1,55
 741 669 741 669 709 653.5 c 128,-1,56
 677 638 677 638 635 638 c 0,57,58
 623 638 623 638 606.5 641 c 128,-1,59
 590 644 590 644 573 648 c 128,-1,60
 556 652 556 652 543 656 c 128,-1,61
 530 660 530 660 525 661 c 1,62,-1
 608 652 l 1,63,-1
 608 628 l 1,20,-1
EndSplineSet
EndChar

StartChar: Ocaron
Encoding: 465 465 124
Width: 806
GlyphClass: 1
Flags: W
LayerCount: 2
Fore
SplineSet
332 753 m 1,0,-1
 473 753 l 1,1,-1
 584 890 l 1,2,-1
 584 910 l 1,3,-1
 503 910 l 1,4,-1
 363 817 l 1,5,-1
 452 817 l 1,6,-1
 313 910 l 1,7,-1
 222 910 l 1,8,-1
 222 890 l 1,9,-1
 332 753 l 1,0,-1
403 -10 m 256,10,11
 323 -10 323 -10 256 16 c 128,-1,12
 189 42 189 42 139.5 90 c 128,-1,13
 90 138 90 138 63 205.5 c 128,-1,14
 36 273 36 273 36 355 c 256,15,16
 36 437 36 437 63 504 c 128,-1,17
 90 571 90 571 139.5 619.5 c 128,-1,18
 189 668 189 668 256 694 c 128,-1,19
 323 720 323 720 403 720 c 256,20,21
 483 720 483 720 550 694 c 128,-1,22
 617 668 617 668 666.5 619.5 c 128,-1,23
 716 571 716 571 743 504 c 128,-1,24
 770 437 770 437 770 355 c 256,25,26
 770 273 770 273 743 205.5 c 128,-1,27
 716 138 716 138 666.5 90 c 128,-1,28
 617 42 617 42 550 16 c 128,-1,29
 483 -10 483 -10 403 -10 c 256,10,11
403 73 m 256,30,31
 440 73 440 73 470.5 91 c 128,-1,32
 501 109 501 109 523 145.5 c 128,-1,33
 545 182 545 182 556.5 234.5 c 128,-1,34
 568 287 568 287 568 355 c 256,35,36
 568 423 568 423 556.5 475.5 c 128,-1,37
 545 528 545 528 523 564.5 c 128,-1,38
 501 601 501 601 470.5 619 c 128,-1,39
 440 637 440 637 403 637 c 256,40,41
 366 637 366 637 335.5 619 c 128,-1,42
 305 601 305 601 283 564.5 c 128,-1,43
 261 528 261 528 249.5 475.5 c 128,-1,44
 238 423 238 423 238 355 c 256,45,46
 238 287 238 287 249.5 234.5 c 128,-1,47
 261 182 261 182 283 145.5 c 128,-1,48
 305 109 305 109 335.5 91 c 128,-1,49
 366 73 366 73 403 73 c 256,30,31
EndSplineSet
EndChar

StartChar: Oogonek
Encoding: 490 490 125
Width: 806
GlyphClass: 1
Flags: W
LayerCount: 2
Fore
SplineSet
403 73 m 256,0,1
 440 73 440 73 470.5 91 c 128,-1,2
 501 109 501 109 523 145.5 c 128,-1,3
 545 182 545 182 556.5 234.5 c 128,-1,4
 568 287 568 287 568 355 c 256,5,6
 568 423 568 423 556.5 475.5 c 128,-1,7
 545 528 545 528 523 564.5 c 128,-1,8
 501 601 501 601 470.5 619 c 128,-1,9
 440 637 440 637 403 637 c 256,10,11
 366 637 366 637 335.5 619 c 128,-1,12
 305 601 305 601 283 564.5 c 128,-1,13
 261 528 261 528 249.5 475.5 c 128,-1,14
 238 423 238 423 238 355 c 256,15,16
 238 287 238 287 249.5 234.5 c 128,-1,17
 261 182 261 182 283 145.5 c 128,-1,18
 305 109 305 109 335.5 91 c 128,-1,19
 366 73 366 73 403 73 c 256,0,1
663 87 m 0,20,21
 633 58 633 58 603 37 c 128,-1,22
 573 16 573 16 546 -1.5 c 128,-1,23
 519 -19 519 -19 497.5 -35.5 c 128,-1,24
 476 -52 476 -52 464 -71.5 c 128,-1,25
 452 -91 452 -91 452 -116 c 0,26,27
 452 -138 452 -138 462.5 -148.5 c 128,-1,28
 473 -159 473 -159 490 -159 c 0,29,30
 509 -159 509 -159 522 -149 c 128,-1,31
 535 -139 535 -139 544 -131 c 1,32,-1
 584 -176 l 1,33,34
 568 -195 568 -195 548.5 -210 c 128,-1,35
 529 -225 529 -225 503.5 -233.5 c 128,-1,36
 478 -242 478 -242 442 -242 c 0,37,38
 404 -242 404 -242 374 -230.5 c 128,-1,39
 344 -219 344 -219 328 -196.5 c 128,-1,40
 312 -174 312 -174 312 -142 c 0,41,42
 312 -112 312 -112 327.5 -87.5 c 128,-1,43
 343 -63 343 -63 373 -42 c 128,-1,44
 403 -21 403 -21 446.5 -3 c 128,-1,45
 490 15 490 15 546 32 c 1,46,-1
 530 9 l 1,47,48
 510 3 510 3 489.5 -1.5 c 128,-1,49
 469 -6 469 -6 447 -8 c 128,-1,50
 425 -10 425 -10 403 -10 c 0,51,52
 323 -10 323 -10 256 16 c 128,-1,53
 189 42 189 42 139.5 90 c 128,-1,54
 90 138 90 138 63 205.5 c 128,-1,55
 36 273 36 273 36 355 c 256,56,57
 36 437 36 437 63 504 c 128,-1,58
 90 571 90 571 139.5 619.5 c 128,-1,59
 189 668 189 668 256 694 c 128,-1,60
 323 720 323 720 403 720 c 256,61,62
 483 720 483 720 550 694 c 128,-1,63
 617 668 617 668 666.5 619.5 c 128,-1,64
 716 571 716 571 743 504 c 128,-1,65
 770 437 770 437 770 355 c 0,66,67
 770 302 770 302 757.5 253 c 128,-1,68
 745 204 745 204 721.5 162 c 128,-1,69
 698 120 698 120 663 87 c 0,20,21
EndSplineSet
EndChar

StartChar: Odblgrave
Encoding: 524 524 126
Width: 806
GlyphClass: 1
Flags: W
LayerCount: 2
Fore
SplineSet
531 850 m 2,0,-1
 543 771 l 1,1,-1
 543 746 l 1,2,-1
 483 746 l 1,3,-1
 441 793 l 2,4,5
 413 825 413 825 401.5 844.5 c 128,-1,6
 390 864 390 864 390 887 c 0,7,8
 390 911 390 911 406.5 927 c 128,-1,9
 423 943 423 943 455 943 c 0,10,11
 479 943 479 943 494.5 933 c 128,-1,12
 510 923 510 923 519 902 c 128,-1,13
 528 881 528 881 531 850 c 2,0,-1
344 850 m 2,14,-1
 355 771 l 1,15,-1
 355 746 l 1,16,-1
 296 746 l 1,17,-1
 254 793 l 2,18,19
 225 825 225 825 213.5 844.5 c 128,-1,20
 202 864 202 864 202 887 c 0,21,22
 202 911 202 911 219 927 c 128,-1,23
 236 943 236 943 267 943 c 0,24,25
 291 943 291 943 306.5 933 c 128,-1,26
 322 923 322 923 331 902 c 128,-1,27
 340 881 340 881 344 850 c 2,14,-1
403 -10 m 256,28,29
 323 -10 323 -10 256 16 c 128,-1,30
 189 42 189 42 139.5 90 c 128,-1,31
 90 138 90 138 63 205.5 c 128,-1,32
 36 273 36 273 36 355 c 256,33,34
 36 437 36 437 63 504 c 128,-1,35
 90 571 90 571 139.5 619.5 c 128,-1,36
 189 668 189 668 256 694 c 128,-1,37
 323 720 323 720 403 720 c 256,38,39
 483 720 483 720 550 694 c 128,-1,40
 617 668 617 668 666.5 619.5 c 128,-1,41
 716 571 716 571 743 504 c 128,-1,42
 770 437 770 437 770 355 c 256,43,44
 770 273 770 273 743 205.5 c 128,-1,45
 716 138 716 138 666.5 90 c 128,-1,46
 617 42 617 42 550 16 c 128,-1,47
 483 -10 483 -10 403 -10 c 256,28,29
403 73 m 256,48,49
 440 73 440 73 470.5 91 c 128,-1,50
 501 109 501 109 523 145.5 c 128,-1,51
 545 182 545 182 556.5 234.5 c 128,-1,52
 568 287 568 287 568 355 c 256,53,54
 568 423 568 423 556.5 475.5 c 128,-1,55
 545 528 545 528 523 564.5 c 128,-1,56
 501 601 501 601 470.5 619 c 128,-1,57
 440 637 440 637 403 637 c 256,58,59
 366 637 366 637 335.5 619 c 128,-1,60
 305 601 305 601 283 564.5 c 128,-1,61
 261 528 261 528 249.5 475.5 c 128,-1,62
 238 423 238 423 238 355 c 256,63,64
 238 287 238 287 249.5 234.5 c 128,-1,65
 261 182 261 182 283 145.5 c 128,-1,66
 305 109 305 109 335.5 91 c 128,-1,67
 366 73 366 73 403 73 c 256,48,49
EndSplineSet
EndChar

StartChar: Oinvertedbreve
Encoding: 526 526 127
Width: 806
GlyphClass: 1
Flags: W
LayerCount: 2
Fore
SplineSet
403 915 m 256,0,1
 358 915 358 915 322.5 897.5 c 128,-1,2
 287 880 287 880 266 845 c 128,-1,3
 245 810 245 810 241 756 c 1,4,-1
 325 756 l 1,5,6
 328 777 328 777 337.5 789.5 c 128,-1,7
 347 802 347 802 362.5 807 c 128,-1,8
 378 812 378 812 400 812 c 256,9,10
 422 812 422 812 438 807 c 128,-1,11
 454 802 454 802 463.5 789.5 c 128,-1,12
 473 777 473 777 476 756 c 1,13,-1
 565 756 l 1,14,15
 562 810 562 810 540.5 845 c 128,-1,16
 519 880 519 880 483.5 897.5 c 128,-1,17
 448 915 448 915 403 915 c 256,0,1
403 -10 m 256,18,19
 323 -10 323 -10 256 16 c 128,-1,20
 189 42 189 42 139.5 90 c 128,-1,21
 90 138 90 138 63 205.5 c 128,-1,22
 36 273 36 273 36 355 c 256,23,24
 36 437 36 437 63 504 c 128,-1,25
 90 571 90 571 139.5 619.5 c 128,-1,26
 189 668 189 668 256 694 c 128,-1,27
 323 720 323 720 403 720 c 256,28,29
 483 720 483 720 550 694 c 128,-1,30
 617 668 617 668 666.5 619.5 c 128,-1,31
 716 571 716 571 743 504 c 128,-1,32
 770 437 770 437 770 355 c 256,33,34
 770 273 770 273 743 205.5 c 128,-1,35
 716 138 716 138 666.5 90 c 128,-1,36
 617 42 617 42 550 16 c 128,-1,37
 483 -10 483 -10 403 -10 c 256,18,19
403 73 m 256,38,39
 440 73 440 73 470.5 91 c 128,-1,40
 501 109 501 109 523 145.5 c 128,-1,41
 545 182 545 182 556.5 234.5 c 128,-1,42
 568 287 568 287 568 355 c 256,43,44
 568 423 568 423 556.5 475.5 c 128,-1,45
 545 528 545 528 523 564.5 c 128,-1,46
 501 601 501 601 470.5 619 c 128,-1,47
 440 637 440 637 403 637 c 256,48,49
 366 637 366 637 335.5 619 c 128,-1,50
 305 601 305 601 283 564.5 c 128,-1,51
 261 528 261 528 249.5 475.5 c 128,-1,52
 238 423 238 423 238 355 c 256,53,54
 238 287 238 287 249.5 234.5 c 128,-1,55
 261 182 261 182 283 145.5 c 128,-1,56
 305 109 305 109 335.5 91 c 128,-1,57
 366 73 366 73 403 73 c 256,38,39
EndSplineSet
EndChar

StartChar: P
Encoding: 80 80 147
Width: 692
GlyphClass: 2
Flags: W
AnchorPoint: "Anchor-0" 319 741 basechar 0
LayerCount: 2
Fore
SplineSet
295 77 m 2,0,-1
 295 632 l 1,1,-1
 356 632 l 2,2,3
 396 632 396 632 423.5 617 c 128,-1,4
 451 602 451 602 466 572 c 128,-1,5
 481 542 481 542 481 495 c 256,6,7
 481 448 481 448 465.5 415.5 c 128,-1,8
 450 383 450 383 421.5 366.5 c 128,-1,9
 393 350 393 350 352 350 c 2,10,-1
 265 350 l 1,11,-1
 265 273 l 1,12,-1
 391 273 l 2,13,14
 478 273 478 273 541 300.5 c 128,-1,15
 604 328 604 328 638 378.5 c 128,-1,16
 672 429 672 429 672 498 c 0,17,18
 672 598 672 598 600 654 c 128,-1,19
 528 710 528 710 396 710 c 2,20,-1
 32 710 l 1,21,-1
 32 643 l 1,22,-1
 43 643 l 2,23,24
 69 643 69 643 85.5 636 c 128,-1,25
 102 629 102 629 102 607 c 2,26,-1
 102 103 l 2,27,28
 102 81 102 81 85.5 74 c 128,-1,29
 69 67 69 67 43 67 c 2,30,-1
 32 67 l 1,31,-1
 32 0 l 1,32,-1
 375 0 l 1,33,-1
 375 67 l 1,34,-1
 350 67 l 2,35,36
 341 67 341 67 331.5 67.5 c 128,-1,37
 322 68 322 68 313.5 69.5 c 128,-1,38
 305 71 305 71 300 72.5 c 128,-1,39
 295 74 295 74 295 77 c 2,0,-1
EndSplineSet
EndChar

StartChar: Q
Encoding: 81 81 148
Width: 806
GlyphClass: 1
Flags: W
LayerCount: 2
Fore
SplineSet
356 3 m 1,0,-1
 451 10 l 1,1,2
 449 -25 449 -25 463.5 -45 c 128,-1,3
 478 -65 478 -65 506.5 -73.5 c 128,-1,4
 535 -82 535 -82 573 -82 c 0,5,6
 610 -82 610 -82 640.5 -75.5 c 128,-1,7
 671 -69 671 -69 696 -60.5 c 128,-1,8
 721 -52 721 -52 739 -45 c 1,9,-1
 739 -187 l 1,10,11
 711 -200 711 -200 672 -208 c 128,-1,12
 633 -216 633 -216 592 -216 c 0,13,14
 515 -216 515 -216 461.5 -194 c 128,-1,15
 408 -172 408 -172 381 -123.5 c 128,-1,16
 354 -75 354 -75 356 3 c 1,0,-1
403 -10 m 256,17,18
 323 -10 323 -10 256 16 c 128,-1,19
 189 42 189 42 139.5 90 c 128,-1,20
 90 138 90 138 63 205.5 c 128,-1,21
 36 273 36 273 36 355 c 256,22,23
 36 437 36 437 63 504 c 128,-1,24
 90 571 90 571 139.5 619.5 c 128,-1,25
 189 668 189 668 256 694 c 128,-1,26
 323 720 323 720 403 720 c 256,27,28
 483 720 483 720 550 694 c 128,-1,29
 617 668 617 668 666.5 619.5 c 128,-1,30
 716 571 716 571 743 504 c 128,-1,31
 770 437 770 437 770 355 c 256,32,33
 770 273 770 273 743 205.5 c 128,-1,34
 716 138 716 138 666.5 90 c 128,-1,35
 617 42 617 42 550 16 c 128,-1,36
 483 -10 483 -10 403 -10 c 256,17,18
403 73 m 256,37,38
 440 73 440 73 470.5 91 c 128,-1,39
 501 109 501 109 523 145.5 c 128,-1,40
 545 182 545 182 556.5 234.5 c 128,-1,41
 568 287 568 287 568 355 c 256,42,43
 568 423 568 423 556.5 475.5 c 128,-1,44
 545 528 545 528 523 564.5 c 128,-1,45
 501 601 501 601 470.5 619 c 128,-1,46
 440 637 440 637 403 637 c 256,47,48
 366 637 366 637 335.5 619 c 128,-1,49
 305 601 305 601 283 564.5 c 128,-1,50
 261 528 261 528 249.5 475.5 c 128,-1,51
 238 423 238 423 238 355 c 256,52,53
 238 287 238 287 249.5 234.5 c 128,-1,54
 261 182 261 182 283 145.5 c 128,-1,55
 305 109 305 109 335.5 91 c 128,-1,56
 366 73 366 73 403 73 c 256,37,38
EndSplineSet
EndChar

StartChar: R
Encoding: 82 82 149
Width: 743
GlyphClass: 2
Flags: W
AnchorPoint: "Anchor-1" 416 0 basechar 0
AnchorPoint: "Anchor-0" 389 741 basechar 0
LayerCount: 2
Fore
SplineSet
360 320 m 1,0,-1
 500 0 l 1,1,-1
 723 0 l 1,2,-1
 723 67 l 1,3,-1
 715 67 l 2,4,5
 703 67 703 67 694 69.5 c 128,-1,6
 685 72 685 72 678 78 c 128,-1,7
 671 84 671 84 665 95 c 2,8,-1
 543 337 l 1,9,-1
 360 320 l 1,0,-1
294 77 m 2,10,-1
 294 633 l 1,11,-1
 361 633 l 2,12,13
 397 633 397 633 421 618 c 128,-1,14
 445 603 445 603 457.5 574.5 c 128,-1,15
 470 546 470 546 470 506 c 0,16,17
 470 462 470 462 458 430.5 c 128,-1,18
 446 399 446 399 421 382.5 c 128,-1,19
 396 366 396 366 356 366 c 2,20,-1
 274 366 l 1,21,-1
 274 290 l 1,22,-1
 374 290 l 2,23,24
 383 290 383 290 391 291 c 128,-1,25
 399 292 399 292 407 292.5 c 128,-1,26
 415 293 415 293 421 294 c 0,27,28
 502 299 502 299 557.5 326.5 c 128,-1,29
 613 354 613 354 641 399.5 c 128,-1,30
 669 445 669 445 669 506 c 0,31,32
 669 568 669 568 636.5 614 c 128,-1,33
 604 660 604 660 543 685 c 128,-1,34
 482 710 482 710 394 710 c 2,35,-1
 31 710 l 1,36,-1
 31 643 l 1,37,-1
 41 643 l 2,38,39
 67 643 67 643 84 636 c 128,-1,40
 101 629 101 629 101 607 c 2,41,-1
 101 103 l 2,42,43
 101 81 101 81 84 74 c 128,-1,44
 67 67 67 67 41 67 c 2,45,-1
 31 67 l 1,46,-1
 31 0 l 1,47,-1
 358 0 l 1,48,-1
 358 67 l 1,49,-1
 347 67 l 2,50,51
 338 67 338 67 328.5 67.5 c 128,-1,52
 319 68 319 68 311 69.5 c 128,-1,53
 303 71 303 71 298.5 72.5 c 128,-1,54
 294 74 294 74 294 77 c 2,10,-1
EndSplineSet
EndChar

StartChar: Rcaron
Encoding: 344 344 152
Width: 743
GlyphClass: 1
Flags: W
LayerCount: 2
Fore
SplineSet
291 753 m 1,0,-1
 432 753 l 1,1,-1
 543 890 l 1,2,-1
 543 910 l 1,3,-1
 461 910 l 1,4,-1
 322 817 l 1,5,-1
 411 817 l 1,6,-1
 272 910 l 1,7,-1
 180 910 l 1,8,-1
 180 890 l 1,9,-1
 291 753 l 1,0,-1
360 320 m 1,10,-1
 500 0 l 1,11,-1
 723 0 l 1,12,-1
 723 67 l 1,13,-1
 715 67 l 2,14,15
 703 67 703 67 694 69.5 c 128,-1,16
 685 72 685 72 678 78 c 128,-1,17
 671 84 671 84 665 95 c 2,18,-1
 543 337 l 1,19,-1
 360 320 l 1,10,-1
294 77 m 2,20,-1
 294 633 l 1,21,-1
 361 633 l 2,22,23
 397 633 397 633 421 618 c 128,-1,24
 445 603 445 603 457.5 574.5 c 128,-1,25
 470 546 470 546 470 506 c 0,26,27
 470 462 470 462 458 430.5 c 128,-1,28
 446 399 446 399 421 382.5 c 128,-1,29
 396 366 396 366 356 366 c 2,30,-1
 274 366 l 1,31,-1
 274 290 l 1,32,-1
 374 290 l 2,33,34
 382 290 382 290 390.5 291 c 128,-1,35
 399 292 399 292 407 292.5 c 128,-1,36
 415 293 415 293 421 294 c 0,37,38
 502 299 502 299 557.5 326.5 c 128,-1,39
 613 354 613 354 641 399.5 c 128,-1,40
 669 445 669 445 669 506 c 0,41,42
 669 568 669 568 636.5 614 c 128,-1,43
 604 660 604 660 543 685 c 128,-1,44
 482 710 482 710 394 710 c 2,45,-1
 31 710 l 1,46,-1
 31 643 l 1,47,-1
 41 643 l 2,48,49
 68 643 68 643 84.5 636 c 128,-1,50
 101 629 101 629 101 607 c 2,51,-1
 101 103 l 2,52,53
 101 81 101 81 84.5 74 c 128,-1,54
 68 67 68 67 41 67 c 2,55,-1
 31 67 l 1,56,-1
 31 0 l 1,57,-1
 358 0 l 1,58,-1
 358 67 l 1,59,-1
 347 67 l 2,60,61
 338 67 338 67 328.5 67.5 c 128,-1,62
 319 68 319 68 311 69.5 c 128,-1,63
 303 71 303 71 298.5 72.5 c 128,-1,64
 294 74 294 74 294 77 c 2,20,-1
EndSplineSet
EndChar

StartChar: Rdblgrave
Encoding: 528 528 153
Width: 743
GlyphClass: 1
Flags: W
LayerCount: 2
Fore
SplineSet
487 850 m 2,0,-1
 498 771 l 1,1,-1
 498 746 l 1,2,-1
 439 746 l 1,3,-1
 397 793 l 2,4,5
 368 825 368 825 357 844.5 c 128,-1,6
 346 864 346 864 346 887 c 0,7,8
 346 911 346 911 362.5 927 c 128,-1,9
 379 943 379 943 410 943 c 0,10,11
 435 943 435 943 450 933 c 128,-1,12
 465 923 465 923 474 902 c 128,-1,13
 483 881 483 881 487 850 c 2,0,-1
299 850 m 2,14,-1
 310 771 l 1,15,-1
 310 746 l 1,16,-1
 251 746 l 1,17,-1
 209 793 l 2,18,19
 181 825 181 825 169.5 844.5 c 128,-1,20
 158 864 158 864 158 887 c 0,21,22
 158 911 158 911 174.5 927 c 128,-1,23
 191 943 191 943 223 943 c 0,24,25
 247 943 247 943 262.5 933 c 128,-1,26
 278 923 278 923 286.5 902 c 128,-1,27
 295 881 295 881 299 850 c 2,14,-1
360 320 m 1,28,-1
 500 0 l 1,29,-1
 723 0 l 1,30,-1
 723 67 l 1,31,-1
 715 67 l 2,32,33
 703 67 703 67 694 69.5 c 128,-1,34
 685 72 685 72 678 78 c 128,-1,35
 671 84 671 84 665 95 c 2,36,-1
 543 337 l 1,37,-1
 360 320 l 1,28,-1
294 77 m 2,38,-1
 294 633 l 1,39,-1
 361 633 l 2,40,41
 397 633 397 633 421 618 c 128,-1,42
 445 603 445 603 457.5 574.5 c 128,-1,43
 470 546 470 546 470 506 c 0,44,45
 470 462 470 462 458 430.5 c 128,-1,46
 446 399 446 399 421 382.5 c 128,-1,47
 396 366 396 366 356 366 c 2,48,-1
 274 366 l 1,49,-1
 274 290 l 1,50,-1
 374 290 l 2,51,52
 382 290 382 290 390.5 291 c 128,-1,53
 399 292 399 292 407 292.5 c 128,-1,54
 415 293 415 293 421 294 c 0,55,56
 502 299 502 299 557.5 326.5 c 128,-1,57
 613 354 613 354 641 399.5 c 128,-1,58
 669 445 669 445 669 506 c 0,59,60
 669 568 669 568 636.5 614 c 128,-1,61
 604 660 604 660 543 685 c 128,-1,62
 482 710 482 710 394 710 c 2,63,-1
 31 710 l 1,64,-1
 31 643 l 1,65,-1
 41 643 l 2,66,67
 68 643 68 643 84.5 636 c 128,-1,68
 101 629 101 629 101 607 c 2,69,-1
 101 103 l 2,70,71
 101 81 101 81 84.5 74 c 128,-1,72
 68 67 68 67 41 67 c 2,73,-1
 31 67 l 1,74,-1
 31 0 l 1,75,-1
 358 0 l 1,76,-1
 358 67 l 1,77,-1
 347 67 l 2,78,79
 338 67 338 67 328.5 67.5 c 128,-1,80
 319 68 319 68 311 69.5 c 128,-1,81
 303 71 303 71 298.5 72.5 c 128,-1,82
 294 74 294 74 294 77 c 2,38,-1
EndSplineSet
EndChar

StartChar: Rinvertedbreve
Encoding: 530 530 154
Width: 743
GlyphClass: 1
Flags: W
LayerCount: 2
Fore
SplineSet
357 915 m 256,0,1
 312 915 312 915 276.5 897.5 c 128,-1,2
 241 880 241 880 220 845 c 128,-1,3
 199 810 199 810 196 756 c 1,4,-1
 279 756 l 1,5,6
 282 777 282 777 291.5 789.5 c 128,-1,7
 301 802 301 802 316.5 807 c 128,-1,8
 332 812 332 812 354 812 c 0,9,10
 377 812 377 812 392.5 807 c 128,-1,11
 408 802 408 802 417.5 789.5 c 128,-1,12
 427 777 427 777 431 756 c 1,13,-1
 519 756 l 1,14,15
 516 810 516 810 494.5 845 c 128,-1,16
 473 880 473 880 437.5 897.5 c 128,-1,17
 402 915 402 915 357 915 c 256,0,1
360 320 m 1,18,-1
 500 0 l 1,19,-1
 723 0 l 1,20,-1
 723 67 l 1,21,-1
 715 67 l 2,22,23
 703 67 703 67 694 69.5 c 128,-1,24
 685 72 685 72 678 78 c 128,-1,25
 671 84 671 84 665 95 c 2,26,-1
 543 337 l 1,27,-1
 360 320 l 1,18,-1
294 77 m 2,28,-1
 294 633 l 1,29,-1
 361 633 l 2,30,31
 397 633 397 633 421 618 c 128,-1,32
 445 603 445 603 457.5 574.5 c 128,-1,33
 470 546 470 546 470 506 c 0,34,35
 470 462 470 462 458 430.5 c 128,-1,36
 446 399 446 399 421 382.5 c 128,-1,37
 396 366 396 366 356 366 c 2,38,-1
 274 366 l 1,39,-1
 274 290 l 1,40,-1
 374 290 l 2,41,42
 383 290 383 290 391 291 c 128,-1,43
 399 292 399 292 407 292.5 c 128,-1,44
 415 293 415 293 421 294 c 0,45,46
 502 299 502 299 557.5 326.5 c 128,-1,47
 613 354 613 354 641 399.5 c 128,-1,48
 669 445 669 445 669 506 c 0,49,50
 669 568 669 568 636.5 614 c 128,-1,51
 604 660 604 660 543 685 c 128,-1,52
 482 710 482 710 394 710 c 2,53,-1
 31 710 l 1,54,-1
 31 643 l 1,55,-1
 41 643 l 2,56,57
 68 643 68 643 84.5 636 c 128,-1,58
 101 629 101 629 101 607 c 2,59,-1
 101 103 l 2,60,61
 101 81 101 81 84.5 74 c 128,-1,62
 68 67 68 67 41 67 c 2,63,-1
 31 67 l 1,64,-1
 31 0 l 1,65,-1
 358 0 l 1,66,-1
 358 67 l 1,67,-1
 347 67 l 2,68,69
 338 67 338 67 328.5 67.5 c 128,-1,70
 319 68 319 68 311 69.5 c 128,-1,71
 303 71 303 71 298.5 72.5 c 128,-1,72
 294 74 294 74 294 77 c 2,28,-1
EndSplineSet
EndChar

StartChar: S
Encoding: 83 83 157
Width: 628
GlyphClass: 2
Flags: W
AnchorPoint: "Anchor-1" 345 0 basechar 0
AnchorPoint: "Anchor-0" 345 741 basechar 0
LayerCount: 2
Fore
SplineSet
328 72 m 0,0,1
 364 72 364 72 388.5 81.5 c 128,-1,2
 413 91 413 91 426 111 c 128,-1,3
 439 131 439 131 439 162 c 0,4,5
 439 189 439 189 425.5 207 c 128,-1,6
 412 225 412 225 387.5 238 c 128,-1,7
 363 251 363 251 330 262 c 128,-1,8
 297 273 297 273 256 284 c 0,9,10
 218 296 218 296 181 312.5 c 128,-1,11
 144 329 144 329 114 354.5 c 128,-1,12
 84 380 84 380 66.5 418 c 128,-1,13
 49 456 49 456 49 511 c 0,14,15
 49 578 49 578 81.5 624.5 c 128,-1,16
 114 671 114 671 168.5 695.5 c 128,-1,17
 223 720 223 720 287 720 c 0,18,19
 342 720 342 720 384 705.5 c 128,-1,20
 426 691 426 691 457.5 656 c 128,-1,21
 489 621 489 621 510 560 c 1,22,-1
 459 567 l 1,23,-1
 479 710 l 1,24,-1
 553 710 l 1,25,-1
 553 522 l 1,26,-1
 466 522 l 1,27,28
 454 560 454 560 430.5 586 c 128,-1,29
 407 612 407 612 376.5 625.5 c 128,-1,30
 346 639 346 639 309 639 c 0,31,32
 277 639 277 639 254.5 629.5 c 128,-1,33
 232 620 232 620 220 602 c 128,-1,34
 208 584 208 584 208 559 c 256,35,36
 208 534 208 534 221.5 517 c 128,-1,37
 235 500 235 500 258.5 488.5 c 128,-1,38
 282 477 282 477 313 468 c 128,-1,39
 344 459 344 459 380 450 c 0,40,41
 423 438 423 438 463 422 c 128,-1,42
 503 406 503 406 534.5 380.5 c 128,-1,43
 566 355 566 355 584 317.5 c 128,-1,44
 602 280 602 280 602 225 c 0,45,46
 602 154 602 154 570.5 101 c 128,-1,47
 539 48 539 48 481 19 c 128,-1,48
 423 -10 423 -10 343 -10 c 0,49,50
 285 -10 285 -10 232.5 8 c 128,-1,51
 180 26 180 26 138.5 67 c 128,-1,52
 97 108 97 108 73 178 c 1,53,-1
 129 168 l 1,54,-1
 109 0 l 1,55,-1
 30 0 l 1,56,-1
 30 223 l 1,57,-1
 123 223 l 1,58,59
 141 176 141 176 172 142 c 128,-1,60
 203 108 203 108 243.5 90 c 128,-1,61
 284 72 284 72 328 72 c 0,0,1
EndSplineSet
EndChar

StartChar: Scaron
Encoding: 352 352 161
Width: 628
GlyphClass: 1
Flags: W
LayerCount: 2
Fore
SplineSet
234 753 m 1,0,-1
 375 753 l 1,1,-1
 487 890 l 1,2,-1
 487 910 l 1,3,-1
 405 910 l 1,4,-1
 265 817 l 1,5,-1
 354 817 l 1,6,-1
 215 910 l 1,7,-1
 124 910 l 1,8,-1
 124 890 l 1,9,-1
 234 753 l 1,0,-1
328 72 m 0,10,11
 364 72 364 72 388.5 81.5 c 128,-1,12
 413 91 413 91 426 111 c 128,-1,13
 439 131 439 131 439 162 c 0,14,15
 439 189 439 189 425.5 207 c 128,-1,16
 412 225 412 225 387.5 238 c 128,-1,17
 363 251 363 251 330 262 c 128,-1,18
 297 273 297 273 256 284 c 0,19,20
 218 296 218 296 181 312.5 c 128,-1,21
 144 329 144 329 114 354.5 c 128,-1,22
 84 380 84 380 66.5 418 c 128,-1,23
 49 456 49 456 49 511 c 0,24,25
 49 578 49 578 81.5 624.5 c 128,-1,26
 114 671 114 671 168.5 695.5 c 128,-1,27
 223 720 223 720 287 720 c 0,28,29
 342 720 342 720 384 705.5 c 128,-1,30
 426 691 426 691 457.5 656 c 128,-1,31
 489 621 489 621 510 560 c 1,32,-1
 459 567 l 1,33,-1
 479 710 l 1,34,-1
 553 710 l 1,35,-1
 553 522 l 1,36,-1
 466 522 l 1,37,38
 454 560 454 560 430.5 586 c 128,-1,39
 407 612 407 612 376.5 625.5 c 128,-1,40
 346 639 346 639 309 639 c 0,41,42
 277 639 277 639 254.5 629.5 c 128,-1,43
 232 620 232 620 220 602 c 128,-1,44
 208 584 208 584 208 559 c 256,45,46
 208 534 208 534 221.5 517 c 128,-1,47
 235 500 235 500 258.5 488.5 c 128,-1,48
 282 477 282 477 313 468 c 128,-1,49
 344 459 344 459 380 450 c 0,50,51
 423 438 423 438 463 422 c 128,-1,52
 503 406 503 406 534.5 380.5 c 128,-1,53
 566 355 566 355 584 317.5 c 128,-1,54
 602 280 602 280 602 225 c 0,55,56
 602 154 602 154 570.5 101 c 128,-1,57
 539 48 539 48 481 19 c 128,-1,58
 423 -10 423 -10 343 -10 c 0,59,60
 285 -10 285 -10 232.5 8 c 128,-1,61
 180 26 180 26 138.5 67 c 128,-1,62
 97 108 97 108 73 178 c 1,63,-1
 129 168 l 1,64,-1
 109 0 l 1,65,-1
 30 0 l 1,66,-1
 30 223 l 1,67,-1
 123 223 l 1,68,69
 141 176 141 176 172 142 c 128,-1,70
 203 108 203 108 243.5 90 c 128,-1,71
 284 72 284 72 328 72 c 0,10,11
EndSplineSet
EndChar

StartChar: Scarondotaccent
Encoding: 7782 7782 166
Width: 628
GlyphClass: 1
Flags: W
LayerCount: 2
Fore
SplineSet
228 753 m 1,0,-1
 369 753 l 1,1,-1
 480 890 l 1,2,-1
 480 910 l 1,3,-1
 398 910 l 1,4,-1
 259 817 l 1,5,-1
 348 817 l 1,6,-1
 209 910 l 1,7,-1
 117 910 l 1,8,-1
 117 890 l 1,9,-1
 228 753 l 1,0,-1
328 72 m 0,10,11
 364 72 364 72 388.5 81.5 c 128,-1,12
 413 91 413 91 426 111 c 128,-1,13
 439 131 439 131 439 162 c 0,14,15
 439 189 439 189 425.5 207 c 128,-1,16
 412 225 412 225 387.5 238 c 128,-1,17
 363 251 363 251 330 262 c 128,-1,18
 297 273 297 273 256 284 c 0,19,20
 218 296 218 296 181 312.5 c 128,-1,21
 144 329 144 329 114 354.5 c 128,-1,22
 84 380 84 380 66.5 418 c 128,-1,23
 49 456 49 456 49 511 c 0,24,25
 49 578 49 578 81.5 624.5 c 128,-1,26
 114 671 114 671 168.5 695.5 c 128,-1,27
 223 720 223 720 287 720 c 0,28,29
 342 720 342 720 384 705.5 c 128,-1,30
 426 691 426 691 457.5 656 c 128,-1,31
 489 621 489 621 510 560 c 1,32,-1
 459 567 l 1,33,-1
 479 710 l 1,34,-1
 553 710 l 1,35,-1
 553 522 l 1,36,-1
 466 522 l 1,37,38
 454 560 454 560 430.5 586 c 128,-1,39
 407 612 407 612 376.5 625.5 c 128,-1,40
 346 639 346 639 309 639 c 0,41,42
 277 639 277 639 254.5 629.5 c 128,-1,43
 232 620 232 620 220 602 c 128,-1,44
 208 584 208 584 208 559 c 256,45,46
 208 534 208 534 221.5 517 c 128,-1,47
 235 500 235 500 258.5 488.5 c 128,-1,48
 282 477 282 477 313 468 c 128,-1,49
 344 459 344 459 380 450 c 0,50,51
 423 438 423 438 463 422 c 128,-1,52
 503 406 503 406 534.5 380.5 c 128,-1,53
 566 355 566 355 584 317.5 c 128,-1,54
 602 280 602 280 602 225 c 0,55,56
 602 154 602 154 570.5 101 c 128,-1,57
 539 48 539 48 481 19 c 128,-1,58
 423 -10 423 -10 343 -10 c 0,59,60
 285 -10 285 -10 232.5 8 c 128,-1,61
 180 26 180 26 138.5 67 c 128,-1,62
 97 108 97 108 73 178 c 1,63,-1
 129 168 l 1,64,-1
 109 0 l 1,65,-1
 30 0 l 1,66,-1
 30 223 l 1,67,-1
 123 223 l 1,68,69
 141 176 141 176 172 142 c 128,-1,70
 203 108 203 108 243.5 90 c 128,-1,71
 284 72 284 72 328 72 c 0,10,11
298 927 m 0,72,73
 253 927 253 927 226.5 949 c 128,-1,74
 200 971 200 971 200 1010 c 0,75,76
 200 1048 200 1048 226.5 1070 c 128,-1,77
 253 1092 253 1092 298 1092 c 0,78,79
 344 1092 344 1092 370.5 1070 c 128,-1,80
 397 1048 397 1048 397 1010 c 0,81,82
 397 971 397 971 370.5 949 c 128,-1,83
 344 927 344 927 298 927 c 0,72,73
EndSplineSet
EndChar

StartChar: T
Encoding: 84 84 168
Width: 721
GlyphClass: 2
Flags: W
AnchorPoint: "Anchor-1" 365 0 basechar 0
AnchorPoint: "Anchor-0" 365 741 basechar 0
LayerCount: 2
Fore
SplineSet
264 103 m 2,0,-1
 264 633 l 1,1,-1
 234 633 l 2,2,3
 197 633 197 633 173.5 630 c 128,-1,4
 150 627 150 627 138.5 617.5 c 128,-1,5
 127 608 127 608 126 590 c 2,6,-1
 117 481 l 1,7,-1
 30 481 l 1,8,-1
 30 710 l 1,9,-1
 691 710 l 1,10,-1
 691 481 l 1,11,-1
 604 481 l 1,12,-1
 595 590 l 2,13,14
 594 608 594 608 582.5 617.5 c 128,-1,15
 571 627 571 627 547.5 630 c 128,-1,16
 524 633 524 633 487 633 c 2,17,-1
 457 633 l 1,18,-1
 457 103 l 2,19,20
 457 81 457 81 473.5 74 c 128,-1,21
 490 67 490 67 516 67 c 2,22,-1
 531 67 l 1,23,-1
 531 0 l 1,24,-1
 190 0 l 1,25,-1
 190 67 l 1,26,-1
 205 67 l 2,27,28
 231 67 231 67 247.5 74 c 128,-1,29
 264 81 264 81 264 103 c 2,0,-1
EndSplineSet
EndChar

StartChar: Tcaron
Encoding: 356 356 170
Width: 721
GlyphClass: 1
Flags: W
LayerCount: 2
Fore
SplineSet
289 753 m 1,0,-1
 431 753 l 1,1,-1
 542 890 l 1,2,-1
 542 910 l 1,3,-1
 460 910 l 1,4,-1
 321 817 l 1,5,-1
 409 817 l 1,6,-1
 270 910 l 1,7,-1
 179 910 l 1,8,-1
 179 890 l 1,9,-1
 289 753 l 1,0,-1
264 103 m 2,10,-1
 264 633 l 1,11,-1
 234 633 l 2,12,13
 197 633 197 633 173.5 630 c 128,-1,14
 150 627 150 627 138.5 617.5 c 128,-1,15
 127 608 127 608 126 590 c 2,16,-1
 117 481 l 1,17,-1
 30 481 l 1,18,-1
 30 710 l 1,19,-1
 691 710 l 1,20,-1
 691 481 l 1,21,-1
 604 481 l 1,22,-1
 595 590 l 2,23,24
 594 608 594 608 582.5 617.5 c 128,-1,25
 571 627 571 627 547.5 630 c 128,-1,26
 524 633 524 633 487 633 c 2,27,-1
 457 633 l 1,28,-1
 457 103 l 2,29,30
 457 81 457 81 473.5 74 c 128,-1,31
 490 67 490 67 516 67 c 2,32,-1
 531 67 l 1,33,-1
 531 0 l 1,34,-1
 190 0 l 1,35,-1
 190 67 l 1,36,-1
 205 67 l 2,37,38
 231 67 231 67 247.5 74 c 128,-1,39
 264 81 264 81 264 103 c 2,10,-1
EndSplineSet
EndChar

StartChar: U
Encoding: 85 85 174
Width: 768
GlyphClass: 2
Flags: W
AnchorPoint: "Anchor-2" 440 0 basechar 0
AnchorPoint: "Anchor-1" 388 0 basechar 0
AnchorPoint: "Anchor-0" 388 741 basechar 0
LayerCount: 2
Fore
SplineSet
292 275 m 2,0,1
 292 222 292 222 301.5 185.5 c 128,-1,2
 311 149 311 149 330 126.5 c 128,-1,3
 349 104 349 104 376 94 c 128,-1,4
 403 84 403 84 438 84 c 0,5,6
 471 84 471 84 498 95 c 128,-1,7
 525 106 525 106 544.5 128.5 c 128,-1,8
 564 151 564 151 574 187.5 c 128,-1,9
 584 224 584 224 584 276 c 2,10,-1
 584 622 l 2,11,12
 584 627 584 627 578.5 631 c 128,-1,13
 573 635 573 635 564 637.5 c 128,-1,14
 555 640 555 640 544.5 641.5 c 128,-1,15
 534 643 534 643 523 643 c 2,16,-1
 515 643 l 1,17,-1
 515 710 l 1,18,-1
 739 710 l 1,19,-1
 739 643 l 1,20,-1
 728 643 l 2,21,22
 711 643 711 643 697.5 639.5 c 128,-1,23
 684 636 684 636 676.5 627.5 c 128,-1,24
 669 619 669 619 669 603 c 2,25,-1
 669 276 l 2,26,27
 669 200 669 200 648 145.5 c 128,-1,28
 627 91 627 91 589.5 56.5 c 128,-1,29
 552 22 552 22 502 6 c 128,-1,30
 452 -10 452 -10 394 -10 c 0,31,32
 328 -10 328 -10 273.5 6.5 c 128,-1,33
 219 23 219 23 180 57.5 c 128,-1,34
 141 92 141 92 120 146.5 c 128,-1,35
 99 201 99 201 99 276 c 2,36,-1
 99 607 l 2,37,38
 99 629 99 629 82 636 c 128,-1,39
 65 643 65 643 39 643 c 2,40,-1
 29 643 l 1,41,-1
 29 710 l 1,42,-1
 362 710 l 1,43,-1
 362 643 l 1,44,-1
 353 643 l 2,45,46
 343 643 343 643 332.5 642.5 c 128,-1,47
 322 642 322 642 312.5 640.5 c 128,-1,48
 303 639 303 639 297.5 637.5 c 128,-1,49
 292 636 292 636 292 633 c 2,50,-1
 292 275 l 2,0,1
EndSplineSet
EndChar

StartChar: Uogonek
Encoding: 370 370 184
Width: 768
GlyphClass: 1
Flags: W
LayerCount: 2
Fore
SplineSet
539 49 m 1,0,-1
 516 12 l 1,1,2
 489 1 489 1 458.5 -4.5 c 128,-1,3
 428 -10 428 -10 394 -10 c 0,4,5
 328 -10 328 -10 273.5 6.5 c 128,-1,6
 219 23 219 23 180 57.5 c 128,-1,7
 141 92 141 92 120 146.5 c 128,-1,8
 99 201 99 201 99 276 c 2,9,-1
 99 607 l 2,10,11
 99 629 99 629 82.5 636 c 128,-1,12
 66 643 66 643 39 643 c 2,13,-1
 29 643 l 1,14,-1
 29 710 l 1,15,-1
 362 710 l 1,16,-1
 362 643 l 1,17,-1
 353 643 l 2,18,19
 343 643 343 643 332.5 642.5 c 128,-1,20
 322 642 322 642 313 640.5 c 128,-1,21
 304 639 304 639 298 637.5 c 128,-1,22
 292 636 292 636 292 633 c 2,23,-1
 292 275 l 2,24,25
 292 222 292 222 301.5 185.5 c 128,-1,26
 311 149 311 149 330 126.5 c 128,-1,27
 349 104 349 104 376 94 c 128,-1,28
 403 84 403 84 438 84 c 0,29,30
 471 84 471 84 498 95 c 128,-1,31
 525 106 525 106 544.5 128.5 c 128,-1,32
 564 151 564 151 574 187.5 c 128,-1,33
 584 224 584 224 584 276 c 2,34,-1
 584 622 l 2,35,36
 584 627 584 627 578.5 631 c 128,-1,37
 573 635 573 635 564 638 c 128,-1,38
 555 641 555 641 544.5 642 c 128,-1,39
 534 643 534 643 523 643 c 2,40,-1
 515 643 l 1,41,-1
 515 710 l 1,42,-1
 739 710 l 1,43,-1
 739 643 l 1,44,-1
 728 643 l 2,45,46
 711 643 711 643 697.5 639.5 c 128,-1,47
 684 636 684 636 676.5 627.5 c 128,-1,48
 669 619 669 619 669 603 c 2,49,-1
 669 276 l 2,50,51
 669 227 669 227 660 187 c 128,-1,52
 651 147 651 147 633.5 115 c 128,-1,53
 616 83 616 83 591 58 c 0,54,55
 567 35 567 35 545 12.5 c 128,-1,56
 523 -10 523 -10 506 -31.5 c 128,-1,57
 489 -53 489 -53 479.5 -74 c 128,-1,58
 470 -95 470 -95 470 -116 c 0,59,60
 470 -138 470 -138 481 -148.5 c 128,-1,61
 492 -159 492 -159 509 -159 c 0,62,63
 528 -159 528 -159 541 -149 c 128,-1,64
 554 -139 554 -139 562 -131 c 1,65,-1
 602 -176 l 1,66,67
 578 -205 578 -205 546 -223.5 c 128,-1,68
 514 -242 514 -242 461 -242 c 0,69,70
 422 -242 422 -242 392.5 -230.5 c 128,-1,71
 363 -219 363 -219 346.5 -196.5 c 128,-1,72
 330 -174 330 -174 330 -142 c 0,73,74
 330 -112 330 -112 344.5 -87 c 128,-1,75
 359 -62 359 -62 386.5 -39.5 c 128,-1,76
 414 -17 414 -17 452 4.5 c 128,-1,77
 490 26 490 26 539 49 c 1,0,-1
EndSplineSet
EndChar

StartChar: Uhorn
Encoding: 431 431 185
Width: 825
GlyphClass: 2
Flags: W
AnchorPoint: "Anchor-1" 416 -35 basechar 0
AnchorPoint: "Anchor-0" 416 663 basechar 0
LayerCount: 2
Fore
SplineSet
99 276 m 2,0,-1
 99 607 l 2,1,2
 99 629 99 629 82.5 636 c 128,-1,3
 66 643 66 643 39 643 c 2,4,-1
 29 643 l 1,5,-1
 29 710 l 1,6,-1
 362 710 l 1,7,-1
 362 643 l 1,8,-1
 353 643 l 2,9,10
 343 643 343 643 332.5 642.5 c 128,-1,11
 322 642 322 642 313 640.5 c 128,-1,12
 304 639 304 639 298 637.5 c 128,-1,13
 292 636 292 636 292 633 c 2,14,-1
 292 275 l 2,15,16
 292 222 292 222 301.5 185.5 c 128,-1,17
 311 149 311 149 330 126.5 c 128,-1,18
 349 104 349 104 376 94 c 128,-1,19
 403 84 403 84 438 84 c 0,20,21
 482 84 482 84 515 103 c 128,-1,22
 548 122 548 122 566 164.5 c 128,-1,23
 584 207 584 207 584 276 c 2,24,-1
 584 622 l 2,25,26
 584 627 584 627 578.5 631 c 128,-1,27
 573 635 573 635 564 638 c 128,-1,28
 555 641 555 641 544.5 642 c 128,-1,29
 534 643 534 643 523 643 c 2,30,-1
 515 643 l 1,31,-1
 515 710 l 1,32,-1
 591 710 l 2,33,34
 641 710 641 710 669.5 718 c 128,-1,35
 698 726 698 726 711.5 744 c 128,-1,36
 725 762 725 762 729.5 794 c 128,-1,37
 734 826 734 826 735 876 c 1,38,-1
 867 876 l 1,39,40
 867 832 867 832 860 797 c 128,-1,41
 853 762 853 762 839 736.5 c 128,-1,42
 825 711 825 711 805 693 c 128,-1,43
 785 675 785 675 761 664 c 128,-1,44
 737 653 737 653 709 648 c 0,45,46
 696 646 696 646 686.5 641 c 128,-1,47
 677 636 677 636 673 628 c 128,-1,48
 669 620 669 620 669 607 c 2,49,-1
 669 276 l 2,50,51
 669 200 669 200 648 145.5 c 128,-1,52
 627 91 627 91 589.5 56.5 c 128,-1,53
 552 22 552 22 502 6 c 128,-1,54
 452 -10 452 -10 394 -10 c 0,55,56
 328 -10 328 -10 273.5 6.5 c 128,-1,57
 219 23 219 23 180 57.5 c 128,-1,58
 141 92 141 92 120 146.5 c 128,-1,59
 99 201 99 201 99 276 c 2,0,-1
EndSplineSet
EndChar

StartChar: Ucaron
Encoding: 467 467 186
Width: 768
GlyphClass: 1
Flags: W
LayerCount: 2
Fore
SplineSet
362 753 m 1,0,-1
 503 753 l 1,1,-1
 614 890 l 1,2,-1
 614 910 l 1,3,-1
 532 910 l 1,4,-1
 393 817 l 1,5,-1
 482 817 l 1,6,-1
 343 910 l 1,7,-1
 251 910 l 1,8,-1
 251 890 l 1,9,-1
 362 753 l 1,0,-1
292 275 m 2,10,11
 292 222 292 222 301.5 185.5 c 128,-1,12
 311 149 311 149 330 126.5 c 128,-1,13
 349 104 349 104 376 94 c 128,-1,14
 403 84 403 84 438 84 c 0,15,16
 471 84 471 84 498 95 c 128,-1,17
 525 106 525 106 544.5 128.5 c 128,-1,18
 564 151 564 151 574 187.5 c 128,-1,19
 584 224 584 224 584 276 c 2,20,-1
 584 622 l 2,21,22
 584 627 584 627 578.5 631 c 128,-1,23
 573 635 573 635 564 638 c 128,-1,24
 555 641 555 641 544.5 642 c 128,-1,25
 534 643 534 643 523 643 c 2,26,-1
 515 643 l 1,27,-1
 515 710 l 1,28,-1
 739 710 l 1,29,-1
 739 643 l 1,30,-1
 728 643 l 2,31,32
 711 643 711 643 697.5 639.5 c 128,-1,33
 684 636 684 636 676.5 627.5 c 128,-1,34
 669 619 669 619 669 603 c 2,35,-1
 669 276 l 2,36,37
 669 200 669 200 648 145.5 c 128,-1,38
 627 91 627 91 589.5 56.5 c 128,-1,39
 552 22 552 22 502 6 c 128,-1,40
 452 -10 452 -10 394 -10 c 0,41,42
 328 -10 328 -10 273.5 6.5 c 128,-1,43
 219 23 219 23 180 57.5 c 128,-1,44
 141 92 141 92 120 146.5 c 128,-1,45
 99 201 99 201 99 276 c 2,46,-1
 99 607 l 2,47,48
 99 629 99 629 82.5 636 c 128,-1,49
 66 643 66 643 39 643 c 2,50,-1
 29 643 l 1,51,-1
 29 710 l 1,52,-1
 362 710 l 1,53,-1
 362 643 l 1,54,-1
 353 643 l 2,55,56
 343 643 343 643 332.5 642.5 c 128,-1,57
 322 642 322 642 313 640.5 c 128,-1,58
 304 639 304 639 298 637.5 c 128,-1,59
 292 636 292 636 292 633 c 2,60,-1
 292 275 l 2,10,11
EndSplineSet
EndChar

StartChar: Udieresiscaron
Encoding: 473 473 187
Width: 768
GlyphClass: 1
Flags: W
LayerCount: 2
Fore
SplineSet
344 958 m 1,0,-1
 485 958 l 1,1,-1
 596 1096 l 1,2,-1
 596 1116 l 1,3,-1
 515 1116 l 1,4,-1
 375 1023 l 1,5,-1
 464 1023 l 1,6,-1
 325 1116 l 1,7,-1
 233 1116 l 1,8,-1
 233 1096 l 1,9,-1
 344 958 l 1,0,-1
292 275 m 2,10,11
 292 222 292 222 301.5 185.5 c 128,-1,12
 311 149 311 149 330 126.5 c 128,-1,13
 349 104 349 104 376 94 c 128,-1,14
 403 84 403 84 438 84 c 0,15,16
 471 84 471 84 498 95 c 128,-1,17
 525 106 525 106 544.5 128.5 c 128,-1,18
 564 151 564 151 574 187.5 c 128,-1,19
 584 224 584 224 584 276 c 2,20,-1
 584 622 l 2,21,22
 584 627 584 627 578.5 631 c 128,-1,23
 573 635 573 635 564 638 c 128,-1,24
 555 641 555 641 544.5 642 c 128,-1,25
 534 643 534 643 523 643 c 2,26,-1
 515 643 l 1,27,-1
 515 710 l 1,28,-1
 739 710 l 1,29,-1
 739 643 l 1,30,-1
 728 643 l 2,31,32
 711 643 711 643 697.5 639.5 c 128,-1,33
 684 636 684 636 676.5 627.5 c 128,-1,34
 669 619 669 619 669 603 c 2,35,-1
 669 276 l 2,36,37
 669 200 669 200 648 145.5 c 128,-1,38
 627 91 627 91 589.5 56.5 c 128,-1,39
 552 22 552 22 502 6 c 128,-1,40
 452 -10 452 -10 394 -10 c 0,41,42
 328 -10 328 -10 273.5 6.5 c 128,-1,43
 219 23 219 23 180 57.5 c 128,-1,44
 141 92 141 92 120 146.5 c 128,-1,45
 99 201 99 201 99 276 c 2,46,-1
 99 607 l 2,47,48
 99 629 99 629 82.5 636 c 128,-1,49
 66 643 66 643 39 643 c 2,50,-1
 29 643 l 1,51,-1
 29 710 l 1,52,-1
 362 710 l 1,53,-1
 362 643 l 1,54,-1
 353 643 l 2,55,56
 343 643 343 643 332.5 642.5 c 128,-1,57
 322 642 322 642 313 640.5 c 128,-1,58
 304 639 304 639 298 637.5 c 128,-1,59
 292 636 292 636 292 633 c 2,60,-1
 292 275 l 2,10,11
388 851 m 256,61,62
 388 812 388 812 362.5 790.5 c 128,-1,63
 337 769 337 769 294 769 c 256,64,65
 251 769 251 769 225.5 790.5 c 128,-1,66
 200 812 200 812 200 851 c 256,67,68
 200 890 200 890 225.5 911.5 c 128,-1,69
 251 933 251 933 294 933 c 256,70,71
 337 933 337 933 362.5 911.5 c 128,-1,72
 388 890 388 890 388 851 c 256,61,62
630 851 m 256,73,74
 630 812 630 812 604.5 790.5 c 128,-1,75
 579 769 579 769 535 769 c 0,76,77
 492 769 492 769 466.5 790.5 c 128,-1,78
 441 812 441 812 441 851 c 256,79,80
 441 890 441 890 466.5 911.5 c 128,-1,81
 492 933 492 933 535 933 c 0,82,83
 579 933 579 933 604.5 911.5 c 128,-1,84
 630 890 630 890 630 851 c 256,73,74
EndSplineSet
EndChar

StartChar: Udblgrave
Encoding: 532 532 188
Width: 768
GlyphClass: 1
Flags: W
LayerCount: 2
Fore
SplineSet
567 850 m 2,0,-1
 578 771 l 1,1,-1
 578 746 l 1,2,-1
 519 746 l 1,3,-1
 477 793 l 2,4,5
 449 825 449 825 437.5 844.5 c 128,-1,6
 426 864 426 864 426 887 c 0,7,8
 426 911 426 911 442.5 927 c 128,-1,9
 459 943 459 943 490 943 c 0,10,11
 515 943 515 943 530.5 933 c 128,-1,12
 546 923 546 923 554.5 902 c 128,-1,13
 563 881 563 881 567 850 c 2,0,-1
379 850 m 2,14,-1
 390 771 l 1,15,-1
 390 746 l 1,16,-1
 331 746 l 1,17,-1
 289 793 l 2,18,19
 261 825 261 825 249.5 844.5 c 128,-1,20
 238 864 238 864 238 887 c 0,21,22
 238 911 238 911 254.5 927 c 128,-1,23
 271 943 271 943 303 943 c 0,24,25
 327 943 327 943 342.5 933 c 128,-1,26
 358 923 358 923 367 902 c 128,-1,27
 376 881 376 881 379 850 c 2,14,-1
292 275 m 2,28,29
 292 222 292 222 301.5 185.5 c 128,-1,30
 311 149 311 149 330 126.5 c 128,-1,31
 349 104 349 104 376 94 c 128,-1,32
 403 84 403 84 438 84 c 0,33,34
 471 84 471 84 498 95 c 128,-1,35
 525 106 525 106 544.5 128.5 c 128,-1,36
 564 151 564 151 574 187.5 c 128,-1,37
 584 224 584 224 584 276 c 2,38,-1
 584 622 l 2,39,40
 584 627 584 627 578.5 631 c 128,-1,41
 573 635 573 635 564 638 c 128,-1,42
 555 641 555 641 544.5 642 c 128,-1,43
 534 643 534 643 523 643 c 2,44,-1
 515 643 l 1,45,-1
 515 710 l 1,46,-1
 739 710 l 1,47,-1
 739 643 l 1,48,-1
 728 643 l 2,49,50
 711 643 711 643 697.5 639.5 c 128,-1,51
 684 636 684 636 676.5 627.5 c 128,-1,52
 669 619 669 619 669 603 c 2,53,-1
 669 276 l 2,54,55
 669 200 669 200 648 145.5 c 128,-1,56
 627 91 627 91 589.5 56.5 c 128,-1,57
 552 22 552 22 502 6 c 128,-1,58
 452 -10 452 -10 394 -10 c 0,59,60
 328 -10 328 -10 273.5 6.5 c 128,-1,61
 219 23 219 23 180 57.5 c 128,-1,62
 141 92 141 92 120 146.5 c 128,-1,63
 99 201 99 201 99 276 c 2,64,-1
 99 607 l 2,65,66
 99 629 99 629 82.5 636 c 128,-1,67
 66 643 66 643 39 643 c 2,68,-1
 29 643 l 1,69,-1
 29 710 l 1,70,-1
 362 710 l 1,71,-1
 362 643 l 1,72,-1
 353 643 l 2,73,74
 343 643 343 643 332.5 642.5 c 128,-1,75
 322 642 322 642 313 640.5 c 128,-1,76
 304 639 304 639 298 637.5 c 128,-1,77
 292 636 292 636 292 633 c 2,78,-1
 292 275 l 2,28,29
EndSplineSet
EndChar

StartChar: Uinvertedbreve
Encoding: 534 534 189
Width: 768
GlyphClass: 1
Flags: W
LayerCount: 2
Fore
SplineSet
434 915 m 256,0,1
 389 915 389 915 353.5 897.5 c 128,-1,2
 318 880 318 880 296.5 845 c 128,-1,3
 275 810 275 810 272 756 c 1,4,-1
 356 756 l 1,5,6
 359 777 359 777 368.5 789.5 c 128,-1,7
 378 802 378 802 393.5 807 c 128,-1,8
 409 812 409 812 431 812 c 256,9,10
 453 812 453 812 469 807 c 128,-1,11
 485 802 485 802 494.5 789.5 c 128,-1,12
 504 777 504 777 507 756 c 1,13,-1
 596 756 l 1,14,15
 593 810 593 810 571 845 c 128,-1,16
 549 880 549 880 514 897.5 c 128,-1,17
 479 915 479 915 434 915 c 256,0,1
292 275 m 2,18,19
 292 222 292 222 301.5 185.5 c 128,-1,20
 311 149 311 149 330 126.5 c 128,-1,21
 349 104 349 104 376 94 c 128,-1,22
 403 84 403 84 438 84 c 0,23,24
 471 84 471 84 498 95 c 128,-1,25
 525 106 525 106 544.5 128.5 c 128,-1,26
 564 151 564 151 574 187.5 c 128,-1,27
 584 224 584 224 584 276 c 2,28,-1
 584 622 l 2,29,30
 584 627 584 627 578.5 631 c 128,-1,31
 573 635 573 635 564 638 c 128,-1,32
 555 641 555 641 544.5 642 c 128,-1,33
 534 643 534 643 523 643 c 2,34,-1
 515 643 l 1,35,-1
 515 710 l 1,36,-1
 739 710 l 1,37,-1
 739 643 l 1,38,-1
 728 643 l 2,39,40
 711 643 711 643 697.5 639.5 c 128,-1,41
 684 636 684 636 676.5 627.5 c 128,-1,42
 669 619 669 619 669 603 c 2,43,-1
 669 276 l 2,44,45
 669 200 669 200 648 145.5 c 128,-1,46
 627 91 627 91 589.5 56.5 c 128,-1,47
 552 22 552 22 502 6 c 128,-1,48
 452 -10 452 -10 394 -10 c 0,49,50
 328 -10 328 -10 273.5 6.5 c 128,-1,51
 219 23 219 23 180 57.5 c 128,-1,52
 141 92 141 92 120 146.5 c 128,-1,53
 99 201 99 201 99 276 c 2,54,-1
 99 607 l 2,55,56
 99 629 99 629 82.5 636 c 128,-1,57
 66 643 66 643 39 643 c 2,58,-1
 29 643 l 1,59,-1
 29 710 l 1,60,-1
 362 710 l 1,61,-1
 362 643 l 1,62,-1
 353 643 l 2,63,64
 343 643 343 643 332.5 642.5 c 128,-1,65
 322 642 322 642 313 640.5 c 128,-1,66
 304 639 304 639 298 637.5 c 128,-1,67
 292 636 292 636 292 633 c 2,68,-1
 292 275 l 2,18,19
EndSplineSet
EndChar

StartChar: V
Encoding: 86 86 199
Width: 720
GlyphClass: 2
Flags: W
AnchorPoint: "Anchor-0" 360 741 basechar 0
LayerCount: 2
Fore
SplineSet
441 62 m 1,0,-1
 408 109 l 1,1,-1
 573 625 l 2,2,3
 573 631 573 631 564 635 c 128,-1,4
 555 639 555 639 541.5 641 c 128,-1,5
 528 643 528 643 515 643 c 2,6,-1
 501 643 l 1,7,-1
 501 710 l 1,8,-1
 711 710 l 1,9,-1
 711 643 l 1,10,-1
 706 643 l 2,11,12
 684 643 684 643 671.5 634.5 c 128,-1,13
 659 626 659 626 651 600 c 2,14,-1
 456 0 l 1,15,-1
 267 0 l 1,16,-1
 67 615 l 2,17,18
 61 633 61 633 48 638 c 128,-1,19
 35 643 35 643 14 643 c 2,20,-1
 9 643 l 1,21,-1
 9 710 l 1,22,-1
 335 710 l 1,23,-1
 335 643 l 1,24,-1
 319 643 l 2,25,26
 306 643 306 643 292 642 c 128,-1,27
 278 641 278 641 269 639 c 128,-1,28
 260 637 260 637 260 633 c 2,29,-1
 441 62 l 1,0,-1
EndSplineSet
EndChar

StartChar: W
Encoding: 87 87 200
Width: 1025
GlyphClass: 2
Flags: W
AnchorPoint: "Anchor-0" 526 741 basechar 0
LayerCount: 2
Fore
SplineSet
9 710 m 1,0,-1
 333 710 l 1,1,-1
 333 643 l 1,2,-1
 318 643 l 2,3,4
 305 643 305 643 291.5 642 c 128,-1,5
 278 641 278 641 269.5 639 c 128,-1,6
 261 637 261 637 261 633 c 2,7,-1
 362 128 l 1,8,-1
 349 126 l 1,9,-1
 481 710 l 1,10,-1
 662 710 l 1,11,-1
 790 132 l 1,12,-1
 777 131 l 1,13,-1
 878 625 l 2,14,15
 878 631 878 631 869.5 635 c 128,-1,16
 861 639 861 639 848.5 641 c 128,-1,17
 836 643 836 643 824 643 c 2,18,-1
 809 643 l 1,19,-1
 809 710 l 1,20,-1
 1016 710 l 1,21,-1
 1016 643 l 1,22,-1
 1010 643 l 2,23,24
 989 643 989 643 975 634 c 128,-1,25
 961 625 961 625 956 600 c 2,26,-1
 829 0 l 1,27,-1
 641 0 l 1,28,-1
 516 581 l 1,29,-1
 529 580 l 1,30,-1
 400 0 l 1,31,-1
 204 0 l 1,32,-1
 69 611 l 2,33,34
 64 632 64 632 50.5 637.5 c 128,-1,35
 37 643 37 643 15 643 c 2,36,-1
 9 643 l 1,37,-1
 9 710 l 1,0,-1
EndSplineSet
EndChar

StartChar: X
Encoding: 88 88 205
Width: 735
GlyphClass: 2
Flags: W
AnchorPoint: "Anchor-1" 355 0 basechar 0
AnchorPoint: "Anchor-0" 378 741 basechar 0
LayerCount: 2
Fore
SplineSet
25 643 m 1,0,-1
 25 710 l 1,1,-1
 363 710 l 1,2,-1
 363 643 l 1,3,-1
 348 643 l 2,4,5
 336 643 336 643 322.5 642 c 128,-1,6
 309 641 309 641 300 639 c 128,-1,7
 291 637 291 637 291 633 c 2,8,-1
 438 407 l 1,9,-1
 444 404 l 1,10,-1
 649 101 l 2,11,12
 664 79 664 79 676.5 73 c 128,-1,13
 689 67 689 67 710 67 c 2,14,-1
 720 67 l 1,15,-1
 720 0 l 1,16,-1
 376 0 l 1,17,-1
 376 67 l 1,18,-1
 391 67 l 2,19,20
 404 67 404 67 417 68 c 128,-1,21
 430 69 430 69 439 71.5 c 128,-1,22
 448 74 448 74 448 77 c 2,23,-1
 280 328 l 1,24,-1
 274 332 l 1,25,-1
 90 611 l 2,26,27
 76 633 76 633 63.5 638 c 128,-1,28
 51 643 51 643 30 643 c 2,29,-1
 25 643 l 1,0,-1
16 0 m 1,30,-1
 16 67 l 1,31,-1
 25 67 l 2,32,33
 46 67 46 67 60 77 c 128,-1,34
 74 87 74 87 92 113 c 2,35,-1
 284 391 l 1,36,-1
 342 347 l 1,37,-1
 162 85 l 2,38,39
 162 80 162 80 171.5 75.5 c 128,-1,40
 181 71 181 71 195 69 c 128,-1,41
 209 67 209 67 221 67 c 2,42,-1
 235 67 l 1,43,-1
 235 0 l 1,44,-1
 16 0 l 1,30,-1
463 361 m 1,45,-1
 404 402 l 1,46,-1
 549 625 l 2,47,48
 549 631 549 631 540 635 c 128,-1,49
 531 639 531 639 518 641 c 128,-1,50
 505 643 505 643 491 643 c 2,51,-1
 478 643 l 1,52,-1
 478 710 l 1,53,-1
 693 710 l 1,54,-1
 693 643 l 1,55,-1
 689 643 l 2,56,57
 667 643 667 643 652 633.5 c 128,-1,58
 637 624 637 624 619 598 c 2,59,-1
 463 361 l 1,45,-1
EndSplineSet
EndChar

StartChar: Y
Encoding: 89 89 206
Width: 693
GlyphClass: 2
Flags: W
AnchorPoint: "Anchor-1" 350 0 basechar 0
AnchorPoint: "Anchor-0" 350 741 basechar 0
LayerCount: 2
Fore
SplineSet
252 323 m 1,0,-1
 265 278 l 1,1,-1
 72 617 l 2,2,3
 64 630 64 630 56 635.5 c 128,-1,4
 48 641 48 641 37.5 642 c 128,-1,5
 27 643 27 643 15 643 c 2,6,-1
 10 643 l 1,7,-1
 10 710 l 1,8,-1
 335 710 l 1,9,-1
 335 643 l 1,10,-1
 319 643 l 2,11,12
 305 643 305 643 291.5 642 c 128,-1,13
 278 641 278 641 269.5 639 c 128,-1,14
 261 637 261 637 261 633 c 2,15,-1
 424 342 l 1,16,-1
 378 331 l 1,17,-1
 538 625 l 2,18,19
 538 631 538 631 529 635 c 128,-1,20
 520 639 520 639 506 641 c 128,-1,21
 492 643 492 643 477 643 c 2,22,-1
 464 643 l 1,23,-1
 464 710 l 1,24,-1
 683 710 l 1,25,-1
 683 643 l 1,26,-1
 679 643 l 2,27,28
 666 643 666 643 654.5 640 c 128,-1,29
 643 637 643 637 632.5 628.5 c 128,-1,30
 622 620 622 620 613 602 c 2,31,-1
 434 276 l 1,32,-1
 445 323 l 1,33,-1
 445 103 l 2,34,35
 445 81 445 81 461.5 74 c 128,-1,36
 478 67 478 67 504 67 c 2,37,-1
 519 67 l 1,38,-1
 519 0 l 1,39,-1
 178 0 l 1,40,-1
 178 67 l 1,41,-1
 193 67 l 2,42,43
 218 67 218 67 235 74 c 128,-1,44
 252 81 252 81 252 103 c 2,45,-1
 252 323 l 1,0,-1
EndSplineSet
EndChar

StartChar: Z
Encoding: 90 90 216
Width: 635
GlyphClass: 2
Flags: W
AnchorPoint: "Anchor-1" 336 0 basechar 0
AnchorPoint: "Anchor-0" 336 741 basechar 0
LayerCount: 2
Fore
SplineSet
243 632 m 2,0,1
 219 632 219 632 200.5 630.5 c 128,-1,2
 182 629 182 629 168.5 624 c 128,-1,3
 155 619 155 619 148.5 611 c 128,-1,4
 142 603 142 603 141 589 c 2,5,-1
 134 500 l 1,6,-1
 48 500 l 1,7,-1
 48 710 l 1,8,-1
 593 710 l 1,9,-1
 593 616 l 1,10,-1
 177 12 l 1,11,-1
 144 78 l 1,12,-1
 392 78 l 2,13,14
 432 78 432 78 457 81.5 c 128,-1,15
 482 85 482 85 494 94 c 128,-1,16
 506 103 506 103 507 122 c 2,17,-1
 518 231 l 1,18,-1
 605 231 l 1,19,-1
 605 0 l 1,20,-1
 29 0 l 1,21,-1
 29 98 l 1,22,-1
 432 686 l 1,23,-1
 461 632 l 1,24,-1
 243 632 l 2,0,1
EndSplineSet
EndChar

StartChar: Zcaron
Encoding: 381 381 219
Width: 635
GlyphClass: 1
Flags: W
LayerCount: 2
Fore
SplineSet
258 753 m 1,0,-1
 399 753 l 1,1,-1
 511 890 l 1,2,-1
 511 910 l 1,3,-1
 429 910 l 1,4,-1
 290 817 l 1,5,-1
 378 817 l 1,6,-1
 239 910 l 1,7,-1
 148 910 l 1,8,-1
 148 890 l 1,9,-1
 258 753 l 1,0,-1
243 632 m 2,10,11
 219 632 219 632 200.5 630.5 c 128,-1,12
 182 629 182 629 168.5 624 c 128,-1,13
 155 619 155 619 148.5 611 c 128,-1,14
 142 603 142 603 141 589 c 2,15,-1
 134 500 l 1,16,-1
 48 500 l 1,17,-1
 48 710 l 1,18,-1
 593 710 l 1,19,-1
 593 616 l 1,20,-1
 177 12 l 1,21,-1
 144 78 l 1,22,-1
 392 78 l 2,23,24
 432 78 432 78 457 81.5 c 128,-1,25
 482 85 482 85 494 94 c 128,-1,26
 506 103 506 103 507 122 c 2,27,-1
 518 231 l 1,28,-1
 605 231 l 1,29,-1
 605 0 l 1,30,-1
 29 0 l 1,31,-1
 29 98 l 1,32,-1
 432 686 l 1,33,-1
 461 632 l 1,34,-1
 243 632 l 2,10,11
EndSplineSet
EndChar

StartChar: AE
Encoding: 198 198 221
Width: 974
GlyphClass: 2
Flags: W
AnchorPoint: "Anchor-0" 601 741 basechar 0
LayerCount: 2
Fore
SplineSet
261 306 m 1,0,-1
 465 306 l 1,1,-1
 465 230 l 1,2,-1
 220 230 l 1,3,-1
 261 306 l 1,0,-1
615 397 m 1,4,5
 651 400 651 400 687 401.5 c 128,-1,6
 723 403 723 403 758.5 405 c 128,-1,7
 794 407 794 407 829 409 c 1,8,-1
 829 318 l 1,9,10
 794 320 794 320 758 322 c 128,-1,11
 722 324 722 324 686.5 326 c 128,-1,12
 651 328 651 328 615 330 c 1,13,-1
 615 397 l 1,4,5
380 0 m 1,14,-1
 380 67 l 1,15,-1
 390 67 l 2,16,17
 405 67 405 67 418.5 69 c 128,-1,18
 432 71 432 71 441 77 c 128,-1,19
 450 83 450 83 450 93 c 2,20,-1
 450 620 l 1,21,-1
 450 620 l 1,22,-1
 154 85 l 2,23,24
 154 80 154 80 162 75.5 c 128,-1,25
 170 71 170 71 184 69 c 128,-1,26
 198 67 198 67 213 67 c 2,27,-1
 226 67 l 1,28,-1
 226 0 l 1,29,-1
 7 0 l 1,30,-1
 7 67 l 1,31,-1
 12 67 l 2,32,33
 26 67 26 67 36.5 71 c 128,-1,34
 47 75 47 75 55.5 84.5 c 128,-1,35
 64 94 64 94 74 110 c 2,36,-1
 358 612 l 1,37,38
 358 623 358 623 346.5 630 c 128,-1,39
 335 637 335 637 314.5 640 c 128,-1,40
 294 643 294 643 266 643 c 2,41,-1
 250 643 l 1,42,-1
 250 710 l 1,43,-1
 908 710 l 1,44,-1
 908 508 l 1,45,-1
 824 508 l 1,46,-1
 817 589 l 2,47,48
 815 607 815 607 803 616.5 c 128,-1,49
 791 626 791 626 768.5 629 c 128,-1,50
 746 632 746 632 714 632 c 2,51,-1
 643 632 l 1,52,-1
 643 78 l 1,53,-1
 724 78 l 2,54,55
 754 78 754 78 775.5 79.5 c 128,-1,56
 797 81 797 81 810.5 86 c 128,-1,57
 824 91 824 91 831 99.5 c 128,-1,58
 838 108 838 108 839 121 c 2,59,-1
 850 227 l 1,60,-1
 936 227 l 1,61,-1
 936 0 l 1,62,-1
 380 0 l 1,14,-1
EndSplineSet
EndChar

StartChar: Eth
Encoding: 208 208 223
Width: 803
GlyphClass: 1
Flags: W
LayerCount: 2
Fore
SplineSet
31 395 m 1,0,-1
 432 395 l 1,1,-1
 432 315 l 1,2,-1
 31 315 l 1,3,-1
 31 395 l 1,0,-1
31 643 m 1,4,-1
 31 710 l 1,5,-1
 375 710 l 2,6,7
 462 710 462 710 533.5 686.5 c 128,-1,8
 605 663 605 663 657.5 617.5 c 128,-1,9
 710 572 710 572 738.5 506 c 128,-1,10
 767 440 767 440 767 357 c 256,11,12
 767 274 767 274 738.5 208 c 128,-1,13
 710 142 710 142 657.5 95.5 c 128,-1,14
 605 49 605 49 533.5 24.5 c 128,-1,15
 462 0 462 0 375 0 c 2,16,-1
 31 0 l 1,17,-1
 31 67 l 1,18,-1
 42 67 l 2,19,20
 68 67 68 67 85 74 c 128,-1,21
 102 81 102 81 102 103 c 2,22,-1
 102 607 l 2,23,24
 102 627 102 627 85 635 c 128,-1,25
 68 643 68 643 42 643 c 2,26,-1
 31 643 l 1,4,-1
368 632 m 2,27,-1
 294 632 l 1,28,-1
 294 78 l 1,29,-1
 368 78 l 2,30,31
 413 78 413 78 449 96.5 c 128,-1,32
 485 115 485 115 511 151 c 128,-1,33
 537 187 537 187 551 239 c 128,-1,34
 565 291 565 291 565 357 c 256,35,36
 565 423 565 423 551 474 c 128,-1,37
 537 525 537 525 511 560.5 c 128,-1,38
 485 596 485 596 449 614 c 128,-1,39
 413 632 413 632 368 632 c 2,27,-1
EndSplineSet
EndChar

StartChar: Oslash
Encoding: 216 216 224
Width: 805
GlyphClass: 2
Flags: W
AnchorPoint: "Anchor-0" 402 731 basechar 0
LayerCount: 2
Fore
SplineSet
406 637 m 0,0,1
 365 637 365 637 332.5 619 c 128,-1,2
 300 601 300 601 276.5 564.5 c 128,-1,3
 253 528 253 528 240.5 475.5 c 128,-1,4
 228 423 228 423 228 355 c 0,5,6
 228 281 228 281 239 228 c 128,-1,7
 250 175 250 175 272 140.5 c 128,-1,8
 294 106 294 106 326 89.5 c 128,-1,9
 358 73 358 73 400 73 c 0,10,11
 440 73 440 73 473 91 c 128,-1,12
 506 109 506 109 529.5 145.5 c 128,-1,13
 553 182 553 182 565.5 234.5 c 128,-1,14
 578 287 578 287 578 355 c 0,15,16
 578 428 578 428 567 481.5 c 128,-1,17
 556 535 556 535 534 569.5 c 128,-1,18
 512 604 512 604 480 620.5 c 128,-1,19
 448 637 448 637 406 637 c 0,0,1
403 -10 m 0,20,21
 328 -10 328 -10 262 16 c 128,-1,22
 196 42 196 42 144.5 90 c 128,-1,23
 93 138 93 138 64.5 205.5 c 128,-1,24
 36 273 36 273 36 355 c 256,25,26
 36 437 36 437 63 504.5 c 128,-1,27
 90 572 90 572 139.5 620 c 128,-1,28
 189 668 189 668 256 694 c 128,-1,29
 323 720 323 720 403 720 c 0,30,31
 479 720 479 720 545 694 c 128,-1,32
 611 668 611 668 662 620 c 128,-1,33
 713 572 713 572 741.5 504.5 c 128,-1,34
 770 437 770 437 770 355 c 256,35,36
 770 273 770 273 743 205.5 c 128,-1,37
 716 138 716 138 666.5 90 c 128,-1,38
 617 42 617 42 550 16 c 128,-1,39
 483 -10 483 -10 403 -10 c 0,20,21
-9 -15 m 1,40,-1
 688 725 l 1,41,-1
 795 725 l 1,42,-1
 98 -15 l 1,43,-1
 -9 -15 l 1,40,-1
EndSplineSet
EndChar

StartChar: Thorn
Encoding: 222 222 226
Width: 692
GlyphClass: 1
Flags: W
LayerCount: 2
Fore
SplineSet
374 710 m 1,0,-1
 31 710 l 1,1,-1
 31 643 l 1,2,-1
 41 643 l 2,3,4
 67 643 67 643 84 636 c 128,-1,5
 101 629 101 629 101 607 c 2,6,-1
 101 103 l 2,7,8
 101 81 101 81 84 74 c 128,-1,9
 67 67 67 67 41 67 c 2,10,-1
 31 67 l 1,11,-1
 31 0 l 1,12,-1
 374 0 l 1,13,-1
 374 67 l 1,14,-1
 349 67 l 2,15,16
 340 67 340 67 330.5 67.5 c 128,-1,17
 321 68 321 68 312.5 69.5 c 128,-1,18
 304 71 304 71 299 72.5 c 128,-1,19
 294 74 294 74 294 77 c 2,20,-1
 294 633 l 2,21,22
 294 636 294 636 299 637.5 c 128,-1,23
 304 639 304 639 312.5 640.5 c 128,-1,24
 321 642 321 642 330.5 642.5 c 128,-1,25
 340 643 340 643 349 643 c 2,26,-1
 374 643 l 1,27,-1
 374 710 l 1,0,-1
668 366 m 0,28,29
 668 431 668 431 636 476.5 c 128,-1,30
 604 522 604 522 543.5 546 c 128,-1,31
 483 570 483 570 396 570 c 2,32,-1
 217 570 l 1,33,-1
 211 491 l 1,34,-1
 354 491 l 2,35,36
 393 491 393 491 419.5 477.5 c 128,-1,37
 446 464 446 464 460.5 435.5 c 128,-1,38
 475 407 475 407 475 363 c 256,39,40
 475 319 475 319 460 289.5 c 128,-1,41
 445 260 445 260 417.5 244.5 c 128,-1,42
 390 229 390 229 351 229 c 2,43,-1
 211 229 l 1,44,-1
 211 151 l 1,45,-1
 391 151 l 2,46,47
 477 151 477 151 539 177 c 128,-1,48
 601 203 601 203 634.5 251.5 c 128,-1,49
 668 300 668 300 668 366 c 0,28,29
EndSplineSet
EndChar

StartChar: Hbar
Encoding: 294 294 228
Width: 822
GlyphClass: 1
Flags: W
LayerCount: 2
Fore
SplineSet
184 390 m 1,0,-1
 613 390 l 1,1,-1
 613 318 l 1,2,-1
 184 318 l 1,3,-1
 184 390 l 1,0,-1
31 0 m 1,4,-1
 31 67 l 1,5,-1
 41 67 l 2,6,7
 67 67 67 67 84 74 c 128,-1,8
 101 81 101 81 101 103 c 2,9,-1
 101 607 l 2,10,11
 101 629 101 629 84 636 c 128,-1,12
 67 643 67 643 41 643 c 2,13,-1
 31 643 l 1,14,-1
 31 710 l 1,15,-1
 364 710 l 1,16,-1
 364 643 l 1,17,-1
 355 643 l 2,18,19
 346 643 346 643 335 642.5 c 128,-1,20
 324 642 324 642 315 640.5 c 128,-1,21
 306 639 306 639 300 637.5 c 128,-1,22
 294 636 294 636 294 633 c 2,23,-1
 294 77 l 2,24,25
 294 74 294 74 300 72.5 c 128,-1,26
 306 71 306 71 315 69.5 c 128,-1,27
 324 68 324 68 335 67.5 c 128,-1,28
 346 67 346 67 355 67 c 2,29,-1
 364 67 l 1,30,-1
 364 0 l 1,31,-1
 31 0 l 1,4,-1
462 0 m 1,32,-1
 462 67 l 1,33,-1
 470 67 l 2,34,35
 481 67 481 67 491.5 67.5 c 128,-1,36
 502 68 502 68 511 69.5 c 128,-1,37
 520 71 520 71 526 72.5 c 128,-1,38
 532 74 532 74 532 77 c 2,39,-1
 532 633 l 2,40,41
 532 636 532 636 526 637.5 c 128,-1,42
 520 639 520 639 511 640.5 c 128,-1,43
 502 642 502 642 491.5 642.5 c 128,-1,44
 481 643 481 643 470 643 c 2,45,-1
 462 643 l 1,46,-1
 462 710 l 1,47,-1
 795 710 l 1,48,-1
 795 643 l 1,49,-1
 784 643 l 2,50,51
 758 643 758 643 741.5 636 c 128,-1,52
 725 629 725 629 725 607 c 2,53,-1
 725 103 l 2,54,55
 725 81 725 81 741.5 74 c 128,-1,56
 758 67 758 67 784 67 c 2,57,-1
 795 67 l 1,58,-1
 795 0 l 1,59,-1
 462 0 l 1,32,-1
31 479 m 1,60,-1
 31 548 l 1,61,-1
 795 548 l 1,62,-1
 795 479 l 1,63,-1
 31 479 l 1,60,-1
EndSplineSet
EndChar

StartChar: Ldot
Encoding: 319 319 230
Width: 659
GlyphClass: 1
Flags: W
LayerCount: 2
Fore
SplineSet
371 710 m 1,0,-1
 31 710 l 1,1,-1
 31 643 l 1,2,-1
 41 643 l 2,3,4
 67 643 67 643 84 636 c 128,-1,5
 101 629 101 629 101 607 c 2,6,-1
 101 103 l 2,7,8
 101 81 101 81 84 74 c 128,-1,9
 67 67 67 67 41 67 c 2,10,-1
 31 67 l 1,11,-1
 31 0 l 1,12,-1
 606 0 l 1,13,-1
 606 230 l 1,14,-1
 518 230 l 1,15,-1
 508 121 l 2,16,17
 506 103 506 103 493.5 94 c 128,-1,18
 481 85 481 85 456.5 81.5 c 128,-1,19
 432 78 432 78 392 78 c 2,20,-1
 294 78 l 1,21,-1
 294 607 l 2,22,23
 294 629 294 629 312 636 c 128,-1,24
 330 643 330 643 357 643 c 2,25,-1
 371 643 l 1,26,-1
 371 710 l 1,0,-1
530 327 m 0,27,28
 482 327 482 327 454.5 353 c 128,-1,29
 427 379 427 379 427 421 c 256,30,31
 427 463 427 463 454.5 489.5 c 128,-1,32
 482 516 482 516 530 516 c 0,33,34
 579 516 579 516 606.5 489.5 c 128,-1,35
 634 463 634 463 634 421 c 256,36,37
 634 379 634 379 606.5 353 c 128,-1,38
 579 327 579 327 530 327 c 0,27,28
EndSplineSet
Ligature2: "Ligature Substitution lookup 5 subtable" L periodcentered
EndChar

StartChar: Lslash
Encoding: 321 321 231
Width: 637
GlyphClass: 1
Flags: W
LayerCount: 2
Fore
SplineSet
22 181 m 1,0,-1
 471 441 l 1,1,-1
 471 529 l 1,2,-1
 22 269 l 1,3,-1
 22 181 l 1,0,-1
371 710 m 1,4,-1
 31 710 l 1,5,-1
 31 643 l 1,6,-1
 41 643 l 2,7,8
 67 643 67 643 84 636 c 128,-1,9
 101 629 101 629 101 607 c 2,10,-1
 101 103 l 2,11,12
 101 81 101 81 84 74 c 128,-1,13
 67 67 67 67 41 67 c 2,14,-1
 31 67 l 1,15,-1
 31 0 l 1,16,-1
 606 0 l 1,17,-1
 606 239 l 1,18,-1
 518 239 l 1,19,-1
 508 121 l 2,20,21
 507 103 507 103 494.5 94 c 128,-1,22
 482 85 482 85 457 81.5 c 128,-1,23
 432 78 432 78 392 78 c 2,24,-1
 294 78 l 1,25,-1
 294 607 l 2,26,27
 294 629 294 629 312 636 c 128,-1,28
 330 643 330 643 357 643 c 2,29,-1
 371 643 l 1,30,-1
 371 710 l 1,4,-1
EndSplineSet
EndChar

StartChar: Eng
Encoding: 330 330 232
Width: 769
GlyphClass: 1
Flags: W
LayerCount: 2
Fore
SplineSet
670 -7 m 2,0,1
 670 -59 670 -59 657 -98 c 128,-1,2
 644 -137 644 -137 620 -162 c 128,-1,3
 596 -187 596 -187 564 -199.5 c 128,-1,4
 532 -212 532 -212 493 -212 c 0,5,6
 465 -212 465 -212 436.5 -207.5 c 128,-1,7
 408 -203 408 -203 388 -196 c 1,8,-1
 388 -106 l 1,9,10
 399 -109 399 -109 414.5 -113.5 c 128,-1,11
 430 -118 430 -118 448.5 -121.5 c 128,-1,12
 467 -125 467 -125 487 -125 c 0,13,14
 515 -125 515 -125 537 -113.5 c 128,-1,15
 559 -102 559 -102 571.5 -76 c 128,-1,16
 584 -50 584 -50 584 -8 c 2,17,-1
 584 74 l 1,18,-1
 615 -106 l 1,19,-1
 161 670 l 1,20,-1
 185 674 l 1,21,-1
 185 82 l 2,22,23
 185 79 185 79 195.5 75.5 c 128,-1,24
 206 72 206 72 221 69.5 c 128,-1,25
 236 67 236 67 253 67 c 2,26,-1
 266 67 l 1,27,-1
 266 0 l 1,28,-1
 31 0 l 1,29,-1
 31 67 l 1,30,-1
 41 67 l 2,31,32
 59 67 59 67 72.5 71 c 128,-1,33
 86 75 86 75 93.5 84.5 c 128,-1,34
 101 94 101 94 101 108 c 2,35,-1
 101 607 l 2,36,37
 101 622 101 622 93.5 629.5 c 128,-1,38
 86 637 86 637 72.5 640 c 128,-1,39
 59 643 59 643 41 643 c 2,40,-1
 31 643 l 1,41,-1
 31 710 l 1,42,-1
 348 710 l 1,43,-1
 632 236 l 1,44,-1
 586 134 l 1,45,-1
 586 628 l 2,46,47
 586 632 586 632 576 635 c 128,-1,48
 566 638 566 638 551 640.5 c 128,-1,49
 536 643 536 643 519 643 c 2,50,-1
 506 643 l 1,51,-1
 506 710 l 1,52,-1
 741 710 l 1,53,-1
 741 643 l 1,54,-1
 730 643 l 2,55,56
 713 643 713 643 699.5 639.5 c 128,-1,57
 686 636 686 636 678 628 c 128,-1,58
 670 620 670 620 670 605 c 2,59,-1
 670 -7 l 2,0,1
EndSplineSet
Substitution2: "'ss07' Style Set 7 lookup 67 subtable" Eng.afr
EndChar

StartChar: OE
Encoding: 338 338 233
Width: 1023
GlyphClass: 1
Flags: W
LayerCount: 2
Fore
SplineSet
666 397 m 1,0,1
 702 400 702 400 737 401.5 c 128,-1,2
 772 403 772 403 807.5 405.5 c 128,-1,3
 843 408 843 408 878 409 c 1,4,-1
 878 317 l 1,5,6
 843 320 843 320 807.5 321.5 c 128,-1,7
 772 323 772 323 737 325.5 c 128,-1,8
 702 328 702 328 666 329 c 1,9,-1
 666 397 l 1,0,1
435 78 m 2,10,-1
 501 78 l 1,11,-1
 501 632 l 1,12,-1
 435 632 l 2,13,14
 391 632 391 632 354 613.5 c 128,-1,15
 317 595 317 595 291 559 c 128,-1,16
 265 523 265 523 251 471.5 c 128,-1,17
 237 420 237 420 237 353 c 256,18,19
 237 286 237 286 251 235 c 128,-1,20
 265 184 265 184 291 149 c 128,-1,21
 317 114 317 114 354 96 c 128,-1,22
 391 78 391 78 435 78 c 2,10,-1
428 0 m 2,23,24
 341 0 341 0 269 23.5 c 128,-1,25
 197 47 197 47 145 92.5 c 128,-1,26
 93 138 93 138 64.5 204 c 128,-1,27
 36 270 36 270 36 353 c 256,28,29
 36 436 36 436 64.5 502 c 128,-1,30
 93 568 93 568 145 614.5 c 128,-1,31
 197 661 197 661 269 685.5 c 128,-1,32
 341 710 341 710 428 710 c 2,33,-1
 957 710 l 1,34,-1
 957 508 l 1,35,-1
 882 508 l 1,36,-1
 875 589 l 2,37,38
 873 607 873 607 861 616.5 c 128,-1,39
 849 626 849 626 826.5 629 c 128,-1,40
 804 632 804 632 772 632 c 2,41,-1
 693 632 l 1,42,-1
 693 78 l 1,43,-1
 782 78 l 2,44,45
 812 78 812 78 833.5 79.5 c 128,-1,46
 855 81 855 81 868.5 86 c 128,-1,47
 882 91 882 91 889.5 99 c 128,-1,48
 897 107 897 107 898 121 c 2,49,-1
 908 227 l 1,50,-1
 985 227 l 1,51,-1
 985 0 l 1,52,-1
 428 0 l 2,23,24
EndSplineSet
EndChar

StartChar: Tbar
Encoding: 358 358 234
Width: 721
GlyphClass: 1
Flags: W
LayerCount: 2
Fore
SplineSet
117 363 m 1,0,-1
 603 363 l 1,1,-1
 603 284 l 1,2,-1
 117 284 l 1,3,-1
 117 363 l 1,0,-1
264 103 m 2,4,-1
 264 633 l 1,5,-1
 234 633 l 2,6,7
 197 633 197 633 173.5 630 c 128,-1,8
 150 627 150 627 138.5 617.5 c 128,-1,9
 127 608 127 608 126 590 c 2,10,-1
 117 481 l 1,11,-1
 30 481 l 1,12,-1
 30 710 l 1,13,-1
 691 710 l 1,14,-1
 691 481 l 1,15,-1
 604 481 l 1,16,-1
 595 590 l 2,17,18
 594 608 594 608 582.5 617.5 c 128,-1,19
 571 627 571 627 547.5 630 c 128,-1,20
 524 633 524 633 487 633 c 2,21,-1
 457 633 l 1,22,-1
 457 103 l 2,23,24
 457 81 457 81 473.5 74 c 128,-1,25
 490 67 490 67 516 67 c 2,26,-1
 531 67 l 1,27,-1
 531 0 l 1,28,-1
 190 0 l 1,29,-1
 190 67 l 1,30,-1
 205 67 l 2,31,32
 231 67 231 67 247.5 74 c 128,-1,33
 264 81 264 81 264 103 c 2,4,-1
EndSplineSet
EndChar

StartChar: Bhook
Encoding: 385 385 235
Width: 827
GlyphClass: 2
Flags: W
AnchorPoint: "Anchor-1" 448 0 basechar 0
AnchorPoint: "Anchor-0" 415 740 basechar 0
LayerCount: 2
Fore
SplineSet
371 407 m 1,0,-1
 458 407 l 2,1,2
 499 407 499 407 524 421 c 128,-1,3
 549 435 549 435 560 461.5 c 128,-1,4
 571 488 571 488 571 527 c 0,5,6
 571 562 571 562 558.5 585.5 c 128,-1,7
 546 609 546 609 522 621.5 c 128,-1,8
 498 634 498 634 462 634 c 2,9,-1
 403 634 l 1,10,-1
 403 76 l 1,11,-1
 469 76 l 2,12,13
 511 76 511 76 539 90 c 128,-1,14
 567 104 567 104 581.5 133 c 128,-1,15
 596 162 596 162 596 207 c 0,16,17
 596 246 596 246 582.5 274.5 c 128,-1,18
 569 303 569 303 540 318.5 c 128,-1,19
 511 334 511 334 465 334 c 2,20,-1
 371 334 l 1,21,-1
 371 407 l 1,0,-1
206 710 m 2,22,-1
 504 710 l 2,23,24
 567 710 567 710 615.5 698 c 128,-1,25
 664 686 664 686 696.5 663.5 c 128,-1,26
 729 641 729 641 746 609 c 128,-1,27
 763 577 763 577 763 537 c 0,28,29
 763 483 763 483 734.5 446 c 128,-1,30
 706 409 706 409 656 390 c 128,-1,31
 606 371 606 371 538 368 c 1,32,-1
 581 389 l 1,33,-1
 581 359 l 1,34,-1
 546 382 l 1,35,36
 619 380 619 380 674.5 358.5 c 128,-1,37
 730 337 730 337 761 297.5 c 128,-1,38
 792 258 792 258 792 200 c 0,39,40
 792 153 792 153 774 116 c 128,-1,41
 756 79 756 79 720 53 c 128,-1,42
 684 27 684 27 632.5 13.5 c 128,-1,43
 581 0 581 0 513 0 c 2,44,-1
 139 0 l 1,45,-1
 139 67 l 1,46,-1
 150 67 l 2,47,48
 176 67 176 67 192.5 74 c 128,-1,49
 209 81 209 81 209 103 c 2,50,-1
 209 634 l 1,51,-1
 202 634 l 2,52,53
 175 634 175 634 155.5 625 c 128,-1,54
 136 616 136 616 126.5 596 c 128,-1,55
 117 576 117 576 117 541 c 0,56,57
 117 521 117 521 122.5 498 c 128,-1,58
 128 475 128 475 135 455 c 1,59,-1
 7 455 l 1,60,61
 2 470 2 470 -1.5 492 c 128,-1,62
 -5 514 -5 514 -5 533 c 0,63,64
 -5 585 -5 585 16.5 625 c 128,-1,65
 38 665 38 665 84.5 687.5 c 128,-1,66
 131 710 131 710 206 710 c 2,22,-1
EndSplineSet
EndChar

StartChar: Dhook
Encoding: 394 394 236
Width: 911
GlyphClass: 2
Flags: W
AnchorPoint: "Anchor-1" 456 0 basechar 0
AnchorPoint: "Anchor-0" 431 741 basechar 0
LayerCount: 2
Fore
SplineSet
206 710 m 2,0,-1
 484 710 l 2,1,2
 571 710 571 710 642.5 686.5 c 128,-1,3
 714 663 714 663 766 617.5 c 128,-1,4
 818 572 818 572 846.5 506 c 128,-1,5
 875 440 875 440 875 357 c 256,6,7
 875 274 875 274 846.5 208 c 128,-1,8
 818 142 818 142 766 95.5 c 128,-1,9
 714 49 714 49 642.5 24.5 c 128,-1,10
 571 0 571 0 484 0 c 2,11,-1
 139 0 l 1,12,-1
 139 67 l 1,13,-1
 151 67 l 2,14,15
 176 67 176 67 193 74 c 128,-1,16
 210 81 210 81 210 103 c 2,17,-1
 210 634 l 1,18,-1
 202 634 l 2,19,20
 175 634 175 634 155.5 625 c 128,-1,21
 136 616 136 616 126.5 596 c 128,-1,22
 117 576 117 576 117 541 c 0,23,24
 117 521 117 521 122.5 498 c 128,-1,25
 128 475 128 475 135 455 c 1,26,-1
 7 455 l 1,27,28
 2 470 2 470 -1.5 492 c 128,-1,29
 -5 514 -5 514 -5 533 c 0,30,31
 -5 585 -5 585 16.5 625 c 128,-1,32
 38 665 38 665 84.5 687.5 c 128,-1,33
 131 710 131 710 206 710 c 2,0,-1
477 632 m 2,34,-1
 403 632 l 1,35,-1
 403 78 l 1,36,-1
 477 78 l 2,37,38
 521 78 521 78 557 96.5 c 128,-1,39
 593 115 593 115 619 151 c 128,-1,40
 645 187 645 187 659 239 c 128,-1,41
 673 291 673 291 673 357 c 0,42,43
 673 424 673 424 659 474.5 c 128,-1,44
 645 525 645 525 619 560.5 c 128,-1,45
 593 596 593 596 557 614 c 128,-1,46
 521 632 521 632 477 632 c 2,34,-1
EndSplineSet
EndChar

StartChar: Schwa
Encoding: 399 399 237
Width: 754
GlyphClass: 1
Flags: W
LayerCount: 2
Fore
SplineSet
364 720 m 0,0,1
 471 720 471 720 550.5 675.5 c 128,-1,2
 630 631 630 631 674.5 550 c 128,-1,3
 719 469 719 469 719 357 c 0,4,5
 719 276 719 276 692.5 208.5 c 128,-1,6
 666 141 666 141 619.5 92 c 128,-1,7
 573 43 573 43 511.5 16.5 c 128,-1,8
 450 -10 450 -10 379 -10 c 0,9,10
 274 -10 274 -10 199 34.5 c 128,-1,11
 124 79 124 79 84 168.5 c 128,-1,12
 44 258 44 258 43 392 c 1,13,-1
 625 392 l 1,14,-1
 627 314 l 1,15,-1
 219 314 l 1,16,-1
 248 338 l 1,17,18
 249 262 249 262 258 211 c 128,-1,19
 267 160 267 160 284 129.5 c 128,-1,20
 301 99 301 99 324.5 86 c 128,-1,21
 348 73 348 73 379 73 c 0,22,23
 408 73 408 73 433.5 89.5 c 128,-1,24
 459 106 459 106 478 140.5 c 128,-1,25
 497 175 497 175 507.5 229 c 128,-1,26
 518 283 518 283 518 357 c 0,27,28
 518 425 518 425 506.5 477.5 c 128,-1,29
 495 530 495 530 472 565.5 c 128,-1,30
 449 601 449 601 415.5 619 c 128,-1,31
 382 637 382 637 337 637 c 0,32,33
 286 637 286 637 246.5 615.5 c 128,-1,34
 207 594 207 594 177.5 561.5 c 128,-1,35
 148 529 148 529 129 495 c 1,36,-1
 58 543 l 1,37,38
 85 592 85 592 127 632 c 128,-1,39
 169 672 169 672 228 696 c 128,-1,40
 287 720 287 720 364 720 c 0,0,1
EndSplineSet
EndChar

StartChar: Khook
Encoding: 408 408 238
Width: 824
GlyphClass: 2
Flags: W
AnchorPoint: "Anchor-1" 422 0 basechar 0
AnchorPoint: "Anchor-0" 470 741 basechar 0
LayerCount: 2
Fore
SplineSet
31 0 m 1,0,-1
 31 67 l 1,1,-1
 41 67 l 2,2,3
 68 67 68 67 84.5 74 c 128,-1,4
 101 81 101 81 101 103 c 2,5,-1
 101 607 l 2,6,7
 101 629 101 629 84.5 636 c 128,-1,8
 68 643 68 643 41 643 c 2,9,-1
 31 643 l 1,10,-1
 31 710 l 1,11,-1
 375 710 l 1,12,-1
 375 643 l 1,13,-1
 365 643 l 2,14,15
 353 643 353 643 340 642.5 c 128,-1,16
 327 642 327 642 317 640.5 c 128,-1,17
 307 639 307 639 300.5 637.5 c 128,-1,18
 294 636 294 636 294 633 c 2,19,-1
 294 77 l 2,20,21
 294 74 294 74 299 72.5 c 128,-1,22
 304 71 304 71 312.5 69.5 c 128,-1,23
 321 68 321 68 331 67.5 c 128,-1,24
 341 67 341 67 351 67 c 2,25,-1
 360 67 l 1,26,-1
 360 0 l 1,27,-1
 31 0 l 1,0,-1
698 719 m 0,28,29
 743 719 743 719 770 700.5 c 128,-1,30
 797 682 797 682 809 651 c 128,-1,31
 821 620 821 620 821 581 c 0,32,33
 821 546 821 546 814.5 512.5 c 128,-1,34
 808 479 808 479 800 460 c 1,35,-1
 672 460 l 1,36,37
 679 474 679 474 685 493.5 c 128,-1,38
 691 513 691 513 695 535 c 128,-1,39
 699 557 699 557 699 576 c 0,40,41
 699 603 699 603 692.5 618 c 128,-1,42
 686 633 686 633 670 633 c 0,43,44
 660 633 660 633 650 627 c 128,-1,45
 640 621 640 621 627 608 c 128,-1,46
 614 595 614 595 595 572 c 2,47,-1
 418 355 l 1,48,-1
 464 453 l 1,49,-1
 698 100 l 2,50,51
 707 87 707 87 715.5 80 c 128,-1,52
 724 73 724 73 735 70 c 128,-1,53
 746 67 746 67 761 67 c 2,54,-1
 771 67 l 1,55,-1
 771 0 l 1,56,-1
 429 0 l 1,57,-1
 429 67 l 1,58,-1
 438 67 l 2,59,60
 451 67 451 67 464 68 c 128,-1,61
 477 69 477 69 485.5 71.5 c 128,-1,62
 494 74 494 74 494 77 c 2,63,-1
 322 337 l 1,64,-1
 322 363 l 1,65,-1
 518 600 l 2,66,67
 542 630 542 630 562.5 652 c 128,-1,68
 583 674 583 674 603.5 689 c 128,-1,69
 624 704 624 704 647 711.5 c 128,-1,70
 670 719 670 719 698 719 c 0,28,29
EndSplineSet
EndChar

StartChar: Yhook
Encoding: 435 435 239
Width: 800
GlyphClass: 2
Flags: W
AnchorPoint: "Anchor-1" 378 0 basechar 0
AnchorPoint: "Anchor-0" 410 741 basechar 0
LayerCount: 2
Fore
SplineSet
519 596 m 2,0,1
 542 638 542 638 564.5 665 c 128,-1,2
 587 692 587 692 614.5 705.5 c 128,-1,3
 642 719 642 719 678 719 c 0,4,5
 722 719 722 719 750 700.5 c 128,-1,6
 778 682 778 682 790 651 c 128,-1,7
 802 620 802 620 802 580 c 0,8,9
 802 548 802 548 795.5 513.5 c 128,-1,10
 789 479 789 479 781 460 c 1,11,-1
 653 460 l 1,12,13
 660 474 660 474 666 493.5 c 128,-1,14
 672 513 672 513 676 535 c 128,-1,15
 680 557 680 557 680 576 c 0,16,17
 680 605 680 605 674.5 619 c 128,-1,18
 669 633 669 633 651 633 c 0,19,20
 642 633 642 633 632.5 626.5 c 128,-1,21
 623 620 623 620 614 606.5 c 128,-1,22
 605 593 605 593 593 572 c 2,23,-1
 433 276 l 1,24,-1
 444 323 l 1,25,-1
 444 103 l 2,26,27
 444 81 444 81 460.5 74 c 128,-1,28
 477 67 477 67 503 67 c 2,29,-1
 518 67 l 1,30,-1
 518 0 l 1,31,-1
 177 0 l 1,32,-1
 177 67 l 1,33,-1
 191 67 l 2,34,35
 217 67 217 67 233.5 74 c 128,-1,36
 250 81 250 81 250 103 c 2,37,-1
 250 323 l 1,38,-1
 264 278 l 1,39,-1
 72 617 l 2,40,41
 65 630 65 630 56.5 635.5 c 128,-1,42
 48 641 48 641 37.5 642 c 128,-1,43
 27 643 27 643 15 643 c 2,44,-1
 10 643 l 1,45,-1
 10 710 l 1,46,-1
 335 710 l 1,47,-1
 335 643 l 1,48,-1
 319 643 l 2,49,50
 305 643 305 643 291.5 642 c 128,-1,51
 278 641 278 641 269.5 639 c 128,-1,52
 261 637 261 637 261 633 c 2,53,-1
 422 342 l 1,54,-1
 376 331 l 1,55,-1
 519 596 l 2,0,1
EndSplineSet
EndChar

StartChar: Germandbls
Encoding: 7838 7838 240
Width: 880
GlyphClass: 1
Flags: W
LayerCount: 2
Fore
SplineSet
595 73 m 0,0,1
 623 73 623 73 641.5 85 c 128,-1,2
 660 97 660 97 669 118.5 c 128,-1,3
 678 140 678 140 678 170 c 0,4,5
 678 208 678 208 661.5 238.5 c 128,-1,6
 645 269 645 269 617 291.5 c 128,-1,7
 589 314 589 314 553 328.5 c 128,-1,8
 517 343 517 343 478 349 c 1,9,-1
 478 430 l 1,10,-1
 646 682 l 1,11,-1
 726 635 l 1,12,-1
 423 635 l 2,13,14
 383 635 383 635 357.5 626 c 128,-1,15
 332 617 332 617 318.5 599.5 c 128,-1,16
 305 582 305 582 300 554 c 128,-1,17
 295 526 295 526 295 488 c 2,18,-1
 295 0 l 1,19,-1
 32 0 l 1,20,-1
 32 67 l 1,21,-1
 42 67 l 2,22,23
 68 67 68 67 85 74 c 128,-1,24
 102 81 102 81 102 103 c 2,25,-1
 102 471 l 2,26,27
 102 534 102 534 118.5 579.5 c 128,-1,28
 135 625 135 625 169.5 653.5 c 128,-1,29
 204 682 204 682 257.5 696 c 128,-1,30
 311 710 311 710 385 710 c 2,31,-1
 775 710 l 1,32,-1
 775 628 l 1,33,-1
 596 363 l 1,34,-1
 546 419 l 1,35,36
 610 413 610 413 665.5 395 c 128,-1,37
 721 377 721 377 763 348 c 128,-1,38
 805 319 805 319 828.5 279 c 128,-1,39
 852 239 852 239 852 188 c 0,40,41
 852 128 852 128 824.5 83.5 c 128,-1,42
 797 39 797 39 749 14.5 c 128,-1,43
 701 -10 701 -10 638 -10 c 256,44,45
 575 -10 575 -10 531 10.5 c 128,-1,46
 487 31 487 31 460 73.5 c 128,-1,47
 433 116 433 116 419 181 c 1,48,-1
 465 166 l 1,49,-1
 446 0 l 1,50,-1
 377 0 l 1,51,-1
 377 221 l 1,52,-1
 460 221 l 1,53,54
 466 190 466 190 477.5 163 c 128,-1,55
 489 136 489 136 506 116 c 128,-1,56
 523 96 523 96 545.5 84.5 c 128,-1,57
 568 73 568 73 595 73 c 0,0,1
EndSplineSet
EndChar

StartChar: Delta
Encoding: 916 916 241
Width: 766
GlyphClass: 1
Flags: W
LayerCount: 2
Fore
SplineSet
33 0 m 1,0,-1
 33 113 l 1,1,-1
 306 710 l 1,2,-1
 461 710 l 1,3,-1
 733 113 l 1,4,-1
 733 0 l 1,5,-1
 33 0 l 1,0,-1
562 65 m 1,6,-1
 301 659 l 1,7,-1
 376 692 l 1,8,-1
 101 82 l 1,9,-1
 76 129 l 1,10,-1
 648 129 l 1,11,-1
 562 65 l 1,6,-1
EndSplineSet
EndChar

StartChar: Omega
Encoding: 937 937 242
Width: 839
GlyphClass: 1
Flags: W
LayerCount: 2
Fore
SplineSet
420 720 m 256,0,1
 340 720 340 720 276 699.5 c 128,-1,2
 212 679 212 679 167.5 642.5 c 128,-1,3
 123 606 123 606 99.5 557 c 128,-1,4
 76 508 76 508 76 451 c 0,5,6
 76 403 76 403 93 359 c 128,-1,7
 110 315 110 315 139 276.5 c 128,-1,8
 168 238 168 238 203.5 203.5 c 128,-1,9
 239 169 239 169 276 139 c 128,-1,10
 313 109 313 109 345 82 c 1,11,-1
 330 119 l 1,12,-1
 234 119 l 2,13,14
 197 119 197 119 173 122.5 c 128,-1,15
 149 126 149 126 136.5 135 c 128,-1,16
 124 144 124 144 121 162 c 2,17,-1
 112 219 l 1,18,-1
 35 219 l 1,19,-1
 35 0 l 1,20,-1
 378 0 l 1,21,-1
 378 146 l 1,22,23
 355 180 355 180 334 213 c 128,-1,24
 313 246 313 246 296 281 c 128,-1,25
 279 316 279 316 269.5 357 c 128,-1,26
 260 398 260 398 260 446 c 0,27,28
 260 506 260 506 278 548.5 c 128,-1,29
 296 591 296 591 331.5 614 c 128,-1,30
 367 637 367 637 420 637 c 0,31,32
 472 637 472 637 507.5 614 c 128,-1,33
 543 591 543 591 561 548.5 c 128,-1,34
 579 506 579 506 579 446 c 0,35,36
 579 398 579 398 569.5 357 c 128,-1,37
 560 316 560 316 543 281 c 128,-1,38
 526 246 526 246 505 213 c 128,-1,39
 484 180 484 180 461 146 c 1,40,-1
 461 0 l 1,41,-1
 804 0 l 1,42,-1
 804 219 l 1,43,-1
 727 219 l 1,44,-1
 718 162 l 2,45,46
 715 144 715 144 702.5 135 c 128,-1,47
 690 126 690 126 666 122.5 c 128,-1,48
 642 119 642 119 605 119 c 2,49,-1
 509 119 l 1,50,-1
 494 82 l 1,51,52
 527 109 527 109 563.5 139 c 128,-1,53
 600 169 600 169 636 203.5 c 128,-1,54
 672 238 672 238 700.5 276.5 c 128,-1,55
 729 315 729 315 746 359 c 128,-1,56
 763 403 763 403 763 451 c 0,57,58
 763 508 763 508 739.5 557 c 128,-1,59
 716 606 716 606 671.5 642.5 c 128,-1,60
 627 679 627 679 563.5 699.5 c 128,-1,61
 500 720 500 720 420 720 c 256,0,1
EndSplineSet
EndChar

StartChar: Djecyr
Encoding: 1026 1026 244
Width: 890
GlyphClass: 2
Flags: W
AnchorPoint: "Anchor-0" 348 741 basechar 0
LayerCount: 2
Fore
SplineSet
870 198 m 0,0,1
 870 141 870 141 850.5 100 c 128,-1,2
 831 59 831 59 794 32.5 c 128,-1,3
 757 6 757 6 703.5 -7 c 128,-1,4
 650 -20 650 -20 583 -20 c 1,5,-1
 583 58 l 1,6,7
 614 58 614 58 637 72 c 128,-1,8
 660 86 660 86 673.5 117 c 128,-1,9
 687 148 687 148 687 198 c 0,10,11
 687 264 687 264 653 299 c 128,-1,12
 619 334 619 334 558 334 c 0,13,14
 518 334 518 334 485 327 c 128,-1,15
 452 320 452 320 418 302 c 1,16,-1
 418 375 l 1,17,18
 454 392 454 392 505 402.5 c 128,-1,19
 556 413 556 413 619 413 c 0,20,21
 697 413 697 413 753.5 388 c 128,-1,22
 810 363 810 363 840 315 c 128,-1,23
 870 267 870 267 870 198 c 0,0,1
182 0 m 1,24,-1
 182 67 l 1,25,-1
 196 67 l 2,26,27
 222 67 222 67 238.5 74 c 128,-1,28
 255 81 255 81 255 103 c 2,29,-1
 255 633 l 1,30,-1
 234 633 l 2,31,32
 197 633 197 633 173.5 630 c 128,-1,33
 150 627 150 627 138.5 617.5 c 128,-1,34
 127 608 127 608 126 590 c 2,35,-1
 117 481 l 1,36,-1
 30 481 l 1,37,-1
 30 710 l 1,38,-1
 703 710 l 1,39,-1
 703 490 l 1,40,-1
 615 490 l 1,41,-1
 607 590 l 2,42,43
 605 608 605 608 594 617.5 c 128,-1,44
 583 627 583 627 559.5 630 c 128,-1,45
 536 633 536 633 498 633 c 2,46,-1
 449 633 l 1,47,-1
 449 77 l 2,48,49
 449 74 449 74 457.5 71.5 c 128,-1,50
 466 69 466 69 478 68 c 128,-1,51
 490 67 490 67 501 67 c 2,52,-1
 508 67 l 1,53,-1
 508 0 l 1,54,-1
 182 0 l 1,24,-1
EndSplineSet
EndChar

StartChar: Eukrcyr
Encoding: 1028 1028 245
Width: 700
GlyphClass: 2
Flags: W
AnchorPoint: "Anchor-1" 366 0 basechar 0
AnchorPoint: "Anchor-0" 366 741 basechar 0
LayerCount: 2
Fore
SplineSet
208 397 m 1,0,1
 231 398 231 398 254 399.5 c 128,-1,2
 277 401 277 401 299.5 402 c 128,-1,3
 322 403 322 403 344 403.5 c 128,-1,4
 366 404 366 404 388.5 405 c 128,-1,5
 411 406 411 406 433.5 407 c 128,-1,6
 456 408 456 408 478 409 c 1,7,-1
 478 317 l 1,8,9
 456 318 456 318 433.5 319.5 c 128,-1,10
 411 321 411 321 388.5 322 c 128,-1,11
 366 323 366 323 344 323.5 c 128,-1,12
 322 324 322 324 299.5 325 c 128,-1,13
 277 326 277 326 254 327.5 c 128,-1,14
 231 329 231 329 208 330 c 1,15,-1
 208 397 l 1,0,1
405 636 m 0,16,17
 366 636 366 636 335 616 c 128,-1,18
 304 596 304 596 282 559.5 c 128,-1,19
 260 523 260 523 248.5 471 c 128,-1,20
 237 419 237 419 237 355 c 0,21,22
 237 288 237 288 249 236.5 c 128,-1,23
 261 185 261 185 283.5 148.5 c 128,-1,24
 306 112 306 112 340 93 c 128,-1,25
 374 74 374 74 417 74 c 0,26,27
 465 74 465 74 501.5 98 c 128,-1,28
 538 122 538 122 562.5 165.5 c 128,-1,29
 587 209 587 209 598 265 c 1,30,-1
 672 235 l 1,31,32
 657 163 657 163 621.5 107.5 c 128,-1,33
 586 52 586 52 529 21 c 128,-1,34
 472 -10 472 -10 393 -10 c 256,35,36
 314 -10 314 -10 249 16 c 128,-1,37
 184 42 184 42 136 90.5 c 128,-1,38
 88 139 88 139 62 206 c 128,-1,39
 36 273 36 273 36 355 c 256,40,41
 36 437 36 437 63 504 c 128,-1,42
 90 571 90 571 137.5 619.5 c 128,-1,43
 185 668 185 668 247 694 c 128,-1,44
 309 720 309 720 379 720 c 0,45,46
 450 720 450 720 496 695.5 c 128,-1,47
 542 671 542 671 570.5 629 c 128,-1,48
 599 587 599 587 615 531 c 1,49,-1
 562 541 l 1,50,-1
 581 710 l 1,51,-1
 662 710 l 1,52,-1
 662 486 l 1,53,-1
 568 486 l 1,54,55
 553 531 553 531 531.5 565 c 128,-1,56
 510 599 510 599 479.5 617.5 c 128,-1,57
 449 636 449 636 405 636 c 0,16,17
EndSplineSet
Substitution2: "'ss01' Style Set 1 lookup 61 subtable" Ieukran.alt1
EndChar

StartChar: Yukrcyr
Encoding: 1031 1031 248
Width: 395
GlyphClass: 2
Flags: W
AnchorPoint: "Anchor-1" 198 0 basechar 0
AnchorPoint: "Anchor-0" 198 918 basechar 0
LayerCount: 2
Fore
SplineSet
180 851 m 0,0,1
 180 814 180 814 158.5 791.5 c 128,-1,2
 137 769 137 769 100 769 c 0,3,4
 65 769 65 769 43 791.5 c 128,-1,5
 21 814 21 814 21 851 c 0,6,7
 21 889 21 889 43 911 c 128,-1,8
 65 933 65 933 100 933 c 0,9,10
 137 933 137 933 158.5 911 c 128,-1,11
 180 889 180 889 180 851 c 0,0,1
374 851 m 0,12,13
 374 814 374 814 352.5 791.5 c 128,-1,14
 331 769 331 769 295 769 c 0,15,16
 258 769 258 769 236.5 791.5 c 128,-1,17
 215 814 215 814 215 851 c 0,18,19
 215 889 215 889 236.5 911 c 128,-1,20
 258 933 258 933 295 933 c 0,21,22
 331 933 331 933 352.5 911 c 128,-1,23
 374 889 374 889 374 851 c 0,12,13
101 103 m 2,24,-1
 101 607 l 2,25,26
 101 629 101 629 84 636 c 128,-1,27
 67 643 67 643 41 643 c 2,28,-1
 31 643 l 1,29,-1
 31 710 l 1,30,-1
 364 710 l 1,31,-1
 364 643 l 1,32,-1
 354 643 l 2,33,34
 328 643 328 643 311 636 c 128,-1,35
 294 629 294 629 294 607 c 2,36,-1
 294 103 l 2,37,38
 294 81 294 81 311 74 c 128,-1,39
 328 67 328 67 354 67 c 2,40,-1
 364 67 l 1,41,-1
 364 0 l 1,42,-1
 31 0 l 1,43,-1
 31 67 l 1,44,-1
 41 67 l 2,45,46
 67 67 67 67 84 74 c 128,-1,47
 101 81 101 81 101 103 c 2,24,-1
EndSplineSet
EndChar

StartChar: Ljecyr
Encoding: 1033 1033 250
Width: 1042
GlyphClass: 2
Flags: W
AnchorPoint: "Anchor-0" 419 741 basechar 0
LayerCount: 2
Fore
SplineSet
249 710 m 1,0,-1
 543 710 l 1,1,-1
 543 632 l 1,2,-1
 249 632 l 1,3,-1
 249 710 l 1,0,-1
172 325 m 2,4,-1
 187 607 l 2,5,6
 188 629 188 629 171 636 c 128,-1,7
 154 643 154 643 128 643 c 2,8,-1
 110 643 l 1,9,-1
 110 710 l 1,10,-1
 284 710 l 1,11,-1
 264 320 l 2,12,13
 259 205 259 205 238 131.5 c 128,-1,14
 217 58 217 58 177 23 c 128,-1,15
 137 -12 137 -12 73 -12 c 0,16,17
 50 -12 50 -12 34.5 -7 c 128,-1,18
 19 -2 19 -2 9 3 c 1,19,-1
 9 169 l 1,20,21
 15 166 15 166 31 160 c 128,-1,22
 47 154 47 154 71 154 c 0,23,24
 105 154 105 154 126 172.5 c 128,-1,25
 147 191 147 191 158 229 c 128,-1,26
 169 267 169 267 172 325 c 2,4,-1
742 0 m 2,27,-1
 384 0 l 1,28,-1
 384 67 l 1,29,-1
 393 67 l 2,30,31
 409 67 409 67 422.5 68 c 128,-1,32
 436 69 436 69 444.5 71.5 c 128,-1,33
 453 74 453 74 453 77 c 2,34,-1
 453 710 l 1,35,-1
 719 710 l 1,36,-1
 719 643 l 1,37,-1
 703 643 l 2,38,39
 680 643 680 643 663 636 c 128,-1,40
 646 629 646 629 646 607 c 2,41,-1
 646 78 l 1,42,-1
 703 78 l 2,43,44
 745 78 745 78 773.5 94.5 c 128,-1,45
 802 111 802 111 816.5 143.5 c 128,-1,46
 831 176 831 176 831 222 c 0,47,48
 831 269 831 269 816.5 299.5 c 128,-1,49
 802 330 802 330 774 345 c 128,-1,50
 746 360 746 360 707 360 c 2,51,-1
 614 360 l 1,52,-1
 614 438 l 1,53,-1
 747 438 l 2,54,55
 835 438 835 438 896.5 412.5 c 128,-1,56
 958 387 958 387 990.5 340 c 128,-1,57
 1023 293 1023 293 1023 226 c 0,58,59
 1023 157 1023 157 989 106.5 c 128,-1,60
 955 56 955 56 892 28 c 128,-1,61
 829 0 829 0 742 0 c 2,27,-1
EndSplineSet
EndChar

StartChar: Njecyr
Encoding: 1034 1034 251
Width: 1098
GlyphClass: 2
Flags: W
AnchorPoint: "Anchor-0" 407 741 basechar 0
LayerCount: 2
Fore
SplineSet
184 428 m 1,0,-1
 597 428 l 1,1,-1
 597 350 l 1,2,-1
 184 350 l 1,3,-1
 184 428 l 1,0,-1
31 0 m 1,4,-1
 31 67 l 1,5,-1
 41 67 l 2,6,7
 67 67 67 67 84 74 c 128,-1,8
 101 81 101 81 101 103 c 2,9,-1
 101 607 l 2,10,11
 101 629 101 629 84 636 c 128,-1,12
 67 643 67 643 41 643 c 2,13,-1
 31 643 l 1,14,-1
 31 710 l 1,15,-1
 364 710 l 1,16,-1
 364 643 l 1,17,-1
 355 643 l 2,18,19
 342 643 342 643 328 642 c 128,-1,20
 314 641 314 641 304 639 c 128,-1,21
 294 637 294 637 294 633 c 2,22,-1
 294 77 l 2,23,24
 294 74 294 74 304 71.5 c 128,-1,25
 314 69 314 69 328 68 c 128,-1,26
 342 67 342 67 355 67 c 2,27,-1
 364 67 l 1,28,-1
 364 0 l 1,29,-1
 31 0 l 1,4,-1
439 0 m 1,30,-1
 439 67 l 1,31,-1
 448 67 l 2,32,33
 461 67 461 67 475 68 c 128,-1,34
 489 69 489 69 499 71.5 c 128,-1,35
 509 74 509 74 509 77 c 2,36,-1
 509 633 l 2,37,38
 509 637 509 637 499 639 c 128,-1,39
 489 641 489 641 475 642 c 128,-1,40
 461 643 461 643 448 643 c 2,41,-1
 439 643 l 1,42,-1
 439 710 l 1,43,-1
 772 710 l 1,44,-1
 772 643 l 1,45,-1
 762 643 l 2,46,47
 745 643 745 643 731 640 c 128,-1,48
 717 637 717 637 709.5 629.5 c 128,-1,49
 702 622 702 622 702 607 c 2,50,-1
 702 78 l 1,51,-1
 758 78 l 2,52,53
 800 78 800 78 828.5 94 c 128,-1,54
 857 110 857 110 872 141 c 128,-1,55
 887 172 887 172 887 218 c 0,56,57
 887 262 887 262 872 291.5 c 128,-1,58
 857 321 857 321 829.5 335.5 c 128,-1,59
 802 350 802 350 762 350 c 2,60,-1
 644 350 l 1,61,-1
 644 428 l 1,62,-1
 803 428 l 2,63,64
 890 428 890 428 952 403.5 c 128,-1,65
 1014 379 1014 379 1046.5 332.5 c 128,-1,66
 1079 286 1079 286 1079 221 c 0,67,68
 1079 153 1079 153 1045 103.5 c 128,-1,69
 1011 54 1011 54 948 27 c 128,-1,70
 885 0 885 0 798 0 c 2,71,-1
 439 0 l 1,30,-1
EndSplineSet
EndChar

StartChar: Tshecyr
Encoding: 1035 1035 252
Width: 939
GlyphClass: 2
Flags: W
AnchorPoint: "Anchor-0" 339 741 basechar 0
LayerCount: 2
Fore
SplineSet
615 413 m 0,0,1
 693 413 693 413 744.5 392 c 128,-1,2
 796 371 796 371 822 324.5 c 128,-1,3
 848 278 848 278 848 202 c 2,4,-1
 848 103 l 2,5,6
 848 81 848 81 865 74 c 128,-1,7
 882 67 882 67 908 67 c 2,8,-1
 918 67 l 1,9,-1
 918 0 l 1,10,-1
 655 0 l 1,11,-1
 655 189 l 2,12,13
 655 243 655 243 645.5 275 c 128,-1,14
 636 307 636 307 612.5 320.5 c 128,-1,15
 589 334 589 334 549 334 c 0,16,17
 516 334 516 334 483.5 327 c 128,-1,18
 451 320 451 320 419 301 c 1,19,-1
 419 374 l 1,20,21
 456 393 456 393 508 403 c 128,-1,22
 560 413 560 413 615 413 c 0,0,1
182 0 m 1,23,-1
 182 67 l 1,24,-1
 196 67 l 2,25,26
 222 67 222 67 238.5 74 c 128,-1,27
 255 81 255 81 255 103 c 2,28,-1
 255 633 l 1,29,-1
 234 633 l 2,30,31
 197 633 197 633 173.5 630 c 128,-1,32
 150 627 150 627 138.5 617.5 c 128,-1,33
 127 608 127 608 126 590 c 2,34,-1
 117 481 l 1,35,-1
 30 481 l 1,36,-1
 30 710 l 1,37,-1
 703 710 l 1,38,-1
 703 490 l 1,39,-1
 615 490 l 1,40,-1
 607 590 l 2,41,42
 605 608 605 608 594 617.5 c 128,-1,43
 583 627 583 627 559.5 630 c 128,-1,44
 536 633 536 633 498 633 c 2,45,-1
 449 633 l 1,46,-1
 449 77 l 2,47,48
 449 74 449 74 458.5 71.5 c 128,-1,49
 468 69 468 69 482 68 c 128,-1,50
 496 67 496 67 510 67 c 2,51,-1
 523 67 l 1,52,-1
 523 0 l 1,53,-1
 182 0 l 1,23,-1
EndSplineSet
EndChar

StartChar: Dzhecyr
Encoding: 1039 1039 253
Width: 818
GlyphClass: 2
Flags: W
AnchorPoint: "Anchor-0" 410 741 basechar 0
LayerCount: 2
Fore
SplineSet
31 710 m 1,0,-1
 364 710 l 1,1,-1
 364 643 l 1,2,-1
 355 643 l 2,3,4
 342 643 342 643 328 642 c 128,-1,5
 314 641 314 641 304 639 c 128,-1,6
 294 637 294 637 294 633 c 2,7,-1
 294 0 l 1,8,-1
 31 0 l 1,9,-1
 31 67 l 1,10,-1
 41 67 l 2,11,12
 67 67 67 67 84 74 c 128,-1,13
 101 81 101 81 101 103 c 2,14,-1
 101 607 l 2,15,16
 101 629 101 629 84 636 c 128,-1,17
 67 643 67 643 41 643 c 2,18,-1
 31 643 l 1,19,-1
 31 710 l 1,0,-1
454 710 m 1,20,-1
 787 710 l 1,21,-1
 787 643 l 1,22,-1
 777 643 l 2,23,24
 751 643 751 643 734 636 c 128,-1,25
 717 629 717 629 717 607 c 2,26,-1
 717 103 l 2,27,28
 717 81 717 81 734 74 c 128,-1,29
 751 67 751 67 777 67 c 2,30,-1
 787 67 l 1,31,-1
 787 0 l 1,32,-1
 524 0 l 1,33,-1
 524 633 l 2,34,35
 524 637 524 637 514 639 c 128,-1,36
 504 641 504 641 490 642 c 128,-1,37
 476 643 476 643 463 643 c 2,38,-1
 454 643 l 1,39,-1
 454 710 l 1,20,-1
163 0 m 1,40,-1
 163 78 l 1,41,-1
 648 78 l 1,42,-1
 648 0 l 1,43,-1
 559 0 l 2,44,45
 525 0 525 0 504 -3 c 128,-1,46
 483 -6 483 -6 472.5 -15.5 c 128,-1,47
 462 -25 462 -25 461 -43 c 2,48,-1
 454 -157 l 1,49,-1
 365 -157 l 1,50,-1
 357 -43 l 2,51,52
 356 -25 356 -25 346 -15.5 c 128,-1,53
 336 -6 336 -6 315 -3 c 128,-1,54
 294 0 294 0 260 0 c 2,55,-1
 163 0 l 1,40,-1
EndSplineSet
EndChar

StartChar: Becyr
Encoding: 1041 1041 257
Width: 691
GlyphClass: 2
Flags: W
AnchorPoint: "Anchor-0" 354 741 basechar 0
LayerCount: 2
Fore
SplineSet
31 710 m 1,0,-1
 610 710 l 1,1,-1
 610 508 l 1,2,-1
 525 508 l 1,3,-1
 518 589 l 2,4,5
 516 607 516 607 504 616.5 c 128,-1,6
 492 626 492 626 470 629 c 128,-1,7
 448 632 448 632 416 632 c 2,8,-1
 294 632 l 1,9,-1
 294 78 l 1,10,-1
 351 78 l 2,11,12
 392 78 392 78 420.5 94 c 128,-1,13
 449 110 449 110 464 140 c 128,-1,14
 479 170 479 170 479 214 c 256,15,16
 479 258 479 258 464.5 286.5 c 128,-1,17
 450 315 450 315 422 329.5 c 128,-1,18
 394 344 394 344 355 344 c 2,19,-1
 262 344 l 1,20,-1
 262 422 l 1,21,-1
 394 422 l 2,22,23
 482 422 482 422 544 398 c 128,-1,24
 606 374 606 374 638.5 328 c 128,-1,25
 671 282 671 282 671 218 c 0,26,27
 671 151 671 151 637 102 c 128,-1,28
 603 53 603 53 540 26.5 c 128,-1,29
 477 0 477 0 389 0 c 2,30,-1
 31 0 l 1,31,-1
 31 67 l 1,32,-1
 41 67 l 2,33,34
 68 67 68 67 84.5 74 c 128,-1,35
 101 81 101 81 101 103 c 2,36,-1
 101 606 l 2,37,38
 101 629 101 629 84.5 636 c 128,-1,39
 68 643 68 643 41 643 c 2,40,-1
 31 643 l 1,41,-1
 31 710 l 1,0,-1
EndSplineSet
EndChar

StartChar: Gecyr
Encoding: 1043 1043 259
Width: 610
GlyphClass: 2
Flags: W
AnchorPoint: "Anchor-0" 311 741 basechar 0
LayerCount: 2
Fore
SplineSet
294 632 m 1,0,-1
 294 103 l 2,1,2
 294 86 294 86 305.5 78 c 128,-1,3
 317 70 317 70 333.5 68.5 c 128,-1,4
 350 67 350 67 365 67 c 2,5,-1
 383 67 l 1,6,-1
 383 0 l 1,7,-1
 31 0 l 1,8,-1
 31 67 l 1,9,-1
 41 67 l 2,10,11
 67 67 67 67 84 74 c 128,-1,12
 101 81 101 81 101 103 c 2,13,-1
 101 607 l 2,14,15
 101 629 101 629 84 636 c 128,-1,16
 67 643 67 643 41 643 c 2,17,-1
 31 643 l 1,18,-1
 31 710 l 1,19,-1
 579 710 l 1,20,-1
 579 481 l 1,21,-1
 492 481 l 1,22,-1
 483 589 l 2,23,24
 482 607 482 607 471 616.5 c 128,-1,25
 460 626 460 626 438.5 629 c 128,-1,26
 417 632 417 632 385 632 c 2,27,-1
 294 632 l 1,0,-1
EndSplineSet
EndChar

StartChar: Decyr
Encoding: 1044 1044 261
Width: 785
GlyphClass: 2
Flags: W
AnchorPoint: "Anchor-0" 426 741 basechar 0
LayerCount: 2
Fore
SplineSet
246 710 m 1,0,-1
 568 710 l 1,1,-1
 568 632 l 1,2,-1
 246 632 l 1,3,-1
 246 710 l 1,0,-1
672 22 m 1,4,-1
 479 22 l 1,5,-1
 479 710 l 1,6,-1
 742 710 l 1,7,-1
 742 643 l 1,8,-1
 732 643 l 2,9,10
 706 643 706 643 689 636 c 128,-1,11
 672 629 672 629 672 607 c 2,12,-1
 672 22 l 1,4,-1
668 -46 m 2,13,14
 667 -26 667 -26 656.5 -16 c 128,-1,15
 646 -6 646 -6 625 -3 c 128,-1,16
 604 0 604 0 570 0 c 2,17,-1
 208 0 l 2,18,19
 175 0 175 0 153.5 -3 c 128,-1,20
 132 -6 132 -6 122 -16.5 c 128,-1,21
 112 -27 112 -27 110 -47 c 2,22,-1
 100 -157 l 1,23,-1
 12 -157 l 1,24,-1
 12 78 l 1,25,-1
 767 78 l 1,26,-1
 767 -157 l 1,27,-1
 678 -157 l 1,28,-1
 668 -46 l 2,13,14
173 47 m 1,29,-1
 64 47 l 1,30,31
 86 77 86 77 103 108.5 c 128,-1,32
 120 140 120 140 132.5 178.5 c 128,-1,33
 145 217 145 217 153 269.5 c 128,-1,34
 161 322 161 322 164 392 c 2,35,-1
 174 607 l 2,36,37
 175 629 175 629 158 636 c 128,-1,38
 141 643 141 643 115 643 c 2,39,-1
 98 643 l 1,40,-1
 98 710 l 1,41,-1
 270 710 l 1,42,-1
 254 389 l 2,43,44
 250 293 250 293 239 229.5 c 128,-1,45
 228 166 228 166 211.5 123.5 c 128,-1,46
 195 81 195 81 173 47 c 1,29,-1
EndSplineSet
Substitution2: "'locl' Localized Forms in Cyrillic lookup 12 subtable" De.bgr
EndChar

StartChar: Zhecyr
Encoding: 1046 1046 266
Width: 1131
GlyphClass: 2
Flags: W
AnchorPoint: "Anchor-1" 557 0 basechar 0
AnchorPoint: "Anchor-0" 557 741 basechar 0
LayerCount: 2
Fore
SplineSet
782 0 m 1,0,-1
 782 67 l 1,1,-1
 790 67 l 2,2,3
 803 67 803 67 816 68 c 128,-1,4
 829 69 829 69 837.5 71.5 c 128,-1,5
 846 74 846 74 846 77 c 2,6,-1
 686 337 l 1,7,-1
 686 363 l 1,8,-1
 910 634 l 2,9,10
 910 638 910 638 898.5 640 c 128,-1,11
 887 642 887 642 870.5 642.5 c 128,-1,12
 854 643 854 643 838 643 c 2,13,-1
 827 643 l 1,14,-1
 827 710 l 1,15,-1
 1084 710 l 1,16,-1
 1084 643 l 1,17,-1
 1066 643 l 2,18,19
 1049 643 1049 643 1036.5 640 c 128,-1,20
 1024 637 1024 637 1012.5 630 c 128,-1,21
 1001 623 1001 623 989 609 c 2,22,-1
 781 357 l 1,23,-1
 830 453 l 1,24,-1
 1042 100 l 2,25,26
 1051 87 1051 87 1059.5 80 c 128,-1,27
 1068 73 1068 73 1079 70 c 128,-1,28
 1090 67 1090 67 1105 67 c 2,29,-1
 1116 67 l 1,30,-1
 1116 0 l 1,31,-1
 782 0 l 1,0,-1
343 0 m 1,32,-1
 15 0 l 1,33,-1
 15 67 l 1,34,-1
 25 67 l 2,35,36
 41 67 41 67 52 70 c 128,-1,37
 63 73 63 73 71.5 80 c 128,-1,38
 80 87 80 87 88 100 c 2,39,-1
 307 453 l 1,40,-1
 339 357 l 1,41,-1
 130 609 l 2,42,43
 119 623 119 623 108 630 c 128,-1,44
 97 637 97 637 84 640 c 128,-1,45
 71 643 71 643 54 643 c 2,46,-1
 35 643 l 1,47,-1
 35 710 l 1,48,-1
 297 710 l 1,49,-1
 297 643 l 1,50,-1
 287 643 l 2,51,52
 272 643 272 643 255 642 c 128,-1,53
 238 641 238 641 227 639.5 c 128,-1,54
 216 638 216 638 215 634 c 2,55,-1
 439 363 l 1,56,-1
 439 337 l 1,57,-1
 279 77 l 2,58,59
 279 74 279 74 287.5 71.5 c 128,-1,60
 296 69 296 69 309 68 c 128,-1,61
 322 67 322 67 335 67 c 2,62,-1
 343 67 l 1,63,-1
 343 0 l 1,32,-1
396 0 m 1,64,-1
 396 67 l 1,65,-1
 405 67 l 2,66,67
 415 67 415 67 426 67.5 c 128,-1,68
 437 68 437 68 446 69.5 c 128,-1,69
 455 71 455 71 460.5 72.5 c 128,-1,70
 466 74 466 74 466 77 c 2,71,-1
 466 633 l 2,72,73
 466 636 466 636 460.5 637.5 c 128,-1,74
 455 639 455 639 446 640.5 c 128,-1,75
 437 642 437 642 426 642.5 c 128,-1,76
 415 643 415 643 404 643 c 2,77,-1
 395 643 l 1,78,-1
 395 710 l 1,79,-1
 729 710 l 1,80,-1
 729 643 l 1,81,-1
 720 643 l 2,82,83
 710 643 710 643 699.5 642.5 c 128,-1,84
 689 642 689 642 679.5 640.5 c 128,-1,85
 670 639 670 639 664.5 637.5 c 128,-1,86
 659 636 659 636 659 633 c 2,87,-1
 659 77 l 2,88,89
 659 74 659 74 664.5 72.5 c 128,-1,90
 670 71 670 71 679 69.5 c 128,-1,91
 688 68 688 68 699 67.5 c 128,-1,92
 710 67 710 67 720 67 c 2,93,-1
 729 67 l 1,94,-1
 729 0 l 1,95,-1
 396 0 l 1,64,-1
EndSplineSet
EndChar

StartChar: Zecyr
Encoding: 1047 1047 269
Width: 663
GlyphClass: 2
Flags: W
AnchorPoint: "Anchor-1" 359 0 basechar 0
AnchorPoint: "Anchor-0" 359 741 basechar 0
LayerCount: 2
Fore
SplineSet
364 -10 m 0,0,1
 291 -10 291 -10 239.5 10 c 128,-1,2
 188 30 188 30 155 71.5 c 128,-1,3
 122 113 122 113 105 176 c 1,4,-1
 156 169 l 1,5,-1
 137 0 l 1,6,-1
 56 0 l 1,7,-1
 56 224 l 1,8,-1
 150 224 l 1,9,10
 164 176 164 176 187 142 c 128,-1,11
 210 108 210 108 242.5 91 c 128,-1,12
 275 74 275 74 316 74 c 0,13,14
 355 74 355 74 380.5 88.5 c 128,-1,15
 406 103 406 103 419 131.5 c 128,-1,16
 432 160 432 160 432 203 c 256,17,18
 432 246 432 246 419.5 273 c 128,-1,19
 407 300 407 300 379.5 312.5 c 128,-1,20
 352 325 352 325 307 321 c 0,21,22
 296 321 296 321 285 320 c 128,-1,23
 274 319 274 319 262.5 318.5 c 128,-1,24
 251 318 251 318 240 317 c 1,25,-1
 240 410 l 1,26,27
 251 410 251 410 261.5 409 c 128,-1,28
 272 408 272 408 282.5 407 c 128,-1,29
 293 406 293 406 304 406 c 0,30,31
 345 404 345 404 369.5 417.5 c 128,-1,32
 394 431 394 431 405 458 c 128,-1,33
 416 485 416 485 416 523 c 0,34,35
 416 560 416 560 405.5 585 c 128,-1,36
 395 610 395 610 373 623 c 128,-1,37
 351 636 351 636 316 636 c 0,38,39
 276 636 276 636 246 619 c 128,-1,40
 216 602 216 602 195 568.5 c 128,-1,41
 174 535 174 535 160 486 c 1,42,-1
 66 486 l 1,43,-1
 66 710 l 1,44,-1
 147 710 l 1,45,-1
 165 541 l 1,46,-1
 114 531 l 1,47,48
 127 576 127 576 147.5 611 c 128,-1,49
 168 646 168 646 198 670.5 c 128,-1,50
 228 695 228 695 269 707.5 c 128,-1,51
 310 720 310 720 365 720 c 0,52,53
 443 720 443 720 497.5 698 c 128,-1,54
 552 676 552 676 580 635.5 c 128,-1,55
 608 595 608 595 608 539 c 0,56,57
 608 484 608 484 576 444 c 128,-1,58
 544 404 544 404 481.5 382.5 c 128,-1,59
 419 361 419 361 328 361 c 1,60,-1
 401 397 l 1,61,-1
 401 351 l 1,62,-1
 349 383 l 1,63,64
 445 383 445 383 506.5 362 c 128,-1,65
 568 341 568 341 598.5 299.5 c 128,-1,66
 629 258 629 258 629 200 c 0,67,68
 629 154 629 154 610 115.5 c 128,-1,69
 591 77 591 77 556 49 c 128,-1,70
 521 21 521 21 472.5 5.5 c 128,-1,71
 424 -10 424 -10 364 -10 c 0,0,1
EndSplineSet
EndChar

StartChar: Icyr
Encoding: 1048 1048 270
Width: 839
GlyphClass: 2
Flags: W
AnchorPoint: "Anchor-0" 420 741 basechar 0
LayerCount: 2
Fore
SplineSet
218 160 m 1,0,-1
 567 610 l 1,1,-1
 621 560 l 1,2,-1
 272 110 l 1,3,-1
 218 160 l 1,0,-1
31 0 m 1,4,-1
 31 67 l 1,5,-1
 41 67 l 2,6,7
 67 67 67 67 84 74 c 128,-1,8
 101 81 101 81 101 103 c 2,9,-1
 101 607 l 2,10,11
 101 629 101 629 84 636 c 128,-1,12
 67 643 67 643 41 643 c 2,13,-1
 31 643 l 1,14,-1
 31 710 l 1,15,-1
 364 710 l 1,16,-1
 364 643 l 1,17,-1
 355 643 l 2,18,19
 342 643 342 643 328 642 c 128,-1,20
 314 641 314 641 304 639 c 128,-1,21
 294 637 294 637 294 633 c 2,22,-1
 294 77 l 2,23,24
 294 74 294 74 304 71.5 c 128,-1,25
 314 69 314 69 328 68 c 128,-1,26
 342 67 342 67 355 67 c 2,27,-1
 364 67 l 1,28,-1
 364 0 l 1,29,-1
 31 0 l 1,4,-1
475 0 m 1,30,-1
 475 67 l 1,31,-1
 483 67 l 2,32,33
 497 67 497 67 511 68 c 128,-1,34
 525 69 525 69 534.5 71.5 c 128,-1,35
 544 74 544 74 544 77 c 2,36,-1
 544 633 l 2,37,38
 544 637 544 637 534.5 639 c 128,-1,39
 525 641 525 641 511 642 c 128,-1,40
 497 643 497 643 483 643 c 2,41,-1
 475 643 l 1,42,-1
 475 710 l 1,43,-1
 808 710 l 1,44,-1
 808 643 l 1,45,-1
 797 643 l 2,46,47
 771 643 771 643 754.5 636 c 128,-1,48
 738 629 738 629 738 607 c 2,49,-1
 738 103 l 2,50,51
 738 81 738 81 754.5 74 c 128,-1,52
 771 67 771 67 797 67 c 2,53,-1
 808 67 l 1,54,-1
 808 0 l 1,55,-1
 475 0 l 1,30,-1
EndSplineSet
EndChar

StartChar: Elcyr
Encoding: 1051 1051 276
Width: 764
GlyphClass: 2
Flags: W
AnchorPoint: "Anchor-0" 421 741 basechar 0
LayerCount: 2
Fore
SplineSet
238 710 m 1,0,-1
 558 710 l 1,1,-1
 558 632 l 1,2,-1
 238 632 l 1,3,-1
 238 710 l 1,0,-1
400 0 m 1,4,-1
 400 67 l 1,5,-1
 408 67 l 2,6,7
 422 67 422 67 436 68 c 128,-1,8
 450 69 450 69 459.5 71.5 c 128,-1,9
 469 74 469 74 469 77 c 2,10,-1
 469 710 l 1,11,-1
 733 710 l 1,12,-1
 733 643 l 1,13,-1
 722 643 l 2,14,15
 696 643 696 643 679.5 636 c 128,-1,16
 663 629 663 629 663 607 c 2,17,-1
 663 103 l 2,18,19
 663 81 663 81 679.5 74 c 128,-1,20
 696 67 696 67 722 67 c 2,21,-1
 733 67 l 1,22,-1
 733 0 l 1,23,-1
 400 0 l 1,4,-1
172 325 m 2,24,-1
 187 607 l 2,25,26
 188 629 188 629 171 636 c 128,-1,27
 154 643 154 643 128 643 c 2,28,-1
 110 643 l 1,29,-1
 110 710 l 1,30,-1
 284 710 l 1,31,-1
 264 320 l 2,32,33
 259 205 259 205 238 131.5 c 128,-1,34
 217 58 217 58 177 23 c 128,-1,35
 137 -12 137 -12 73 -12 c 0,36,37
 50 -12 50 -12 34 -7 c 128,-1,38
 18 -2 18 -2 9 3 c 1,39,-1
 9 169 l 1,40,41
 15 166 15 166 31 160 c 128,-1,42
 47 154 47 154 71 154 c 0,43,44
 105 154 105 154 126 172.5 c 128,-1,45
 147 191 147 191 158 229 c 128,-1,46
 169 267 169 267 172 325 c 2,24,-1
EndSplineSet
Substitution2: "'locl' Localized Forms in Cyrillic lookup 12 subtable" El.bgr
EndChar

StartChar: Pecyr
Encoding: 1055 1055 281
Width: 818
GlyphClass: 2
Flags: W
AnchorPoint: "Anchor-0" 410 741 basechar 0
LayerCount: 2
Fore
SplineSet
178 710 m 1,0,-1
 613 710 l 1,1,-1
 613 632 l 1,2,-1
 178 632 l 1,3,-1
 178 710 l 1,0,-1
31 0 m 1,4,-1
 31 67 l 1,5,-1
 41 67 l 2,6,7
 67 67 67 67 84 74 c 128,-1,8
 101 81 101 81 101 103 c 2,9,-1
 101 607 l 2,10,11
 101 629 101 629 84 636 c 128,-1,12
 67 643 67 643 41 643 c 2,13,-1
 31 643 l 1,14,-1
 31 710 l 1,15,-1
 294 710 l 1,16,-1
 294 77 l 2,17,18
 294 74 294 74 304 71.5 c 128,-1,19
 314 69 314 69 328 68 c 128,-1,20
 342 67 342 67 355 67 c 2,21,-1
 364 67 l 1,22,-1
 364 0 l 1,23,-1
 31 0 l 1,4,-1
454 0 m 1,24,-1
 454 67 l 1,25,-1
 463 67 l 2,26,27
 476 67 476 67 490 68 c 128,-1,28
 504 69 504 69 514 71.5 c 128,-1,29
 524 74 524 74 524 77 c 2,30,-1
 524 710 l 1,31,-1
 787 710 l 1,32,-1
 787 643 l 1,33,-1
 777 643 l 2,34,35
 751 643 751 643 734 636 c 128,-1,36
 717 629 717 629 717 607 c 2,37,-1
 717 103 l 2,38,39
 717 81 717 81 734 74 c 128,-1,40
 751 67 751 67 777 67 c 2,41,-1
 787 67 l 1,42,-1
 787 0 l 1,43,-1
 454 0 l 1,24,-1
EndSplineSet
EndChar

StartChar: Ucyr
Encoding: 1059 1059 285
Width: 693
GlyphClass: 2
Flags: W
AnchorPoint: "Anchor-1" 231 0 basechar 0
AnchorPoint: "Anchor-0" 355 741 basechar 0
LayerCount: 2
Fore
SplineSet
413 199 m 2,0,1
 386 145 386 145 363 105 c 128,-1,2
 340 65 340 65 316.5 38.5 c 128,-1,3
 293 12 293 12 265 -0.5 c 128,-1,4
 237 -13 237 -13 199 -13 c 0,5,6
 174 -13 174 -13 156 -7.5 c 128,-1,7
 138 -2 138 -2 127 5 c 1,8,-1
 127 152 l 1,9,10
 139 145 139 145 163.5 137.5 c 128,-1,11
 188 130 188 130 217 130 c 0,12,13
 256 130 256 130 280 140.5 c 128,-1,14
 304 151 304 151 322 176.5 c 128,-1,15
 340 202 340 202 361 247 c 2,16,-1
 538 625 l 2,17,18
 538 631 538 631 529 635 c 128,-1,19
 520 639 520 639 506.5 641 c 128,-1,20
 493 643 493 643 477 643 c 2,21,-1
 465 643 l 1,22,-1
 465 710 l 1,23,-1
 684 710 l 1,24,-1
 684 643 l 1,25,-1
 679 643 l 2,26,27
 667 643 667 643 655 640.5 c 128,-1,28
 643 638 643 638 633 629.5 c 128,-1,29
 623 621 623 621 613 602 c 2,30,-1
 413 199 l 2,0,1
426 294 m 1,31,-1
 323 138 l 1,32,-1
 72 617 l 2,33,34
 65 630 65 630 56.5 635.5 c 128,-1,35
 48 641 48 641 37.5 642 c 128,-1,36
 27 643 27 643 15 643 c 2,37,-1
 10 643 l 1,38,-1
 10 710 l 1,39,-1
 332 710 l 1,40,-1
 332 643 l 1,41,-1
 316 643 l 2,42,43
 302 643 302 643 288.5 642 c 128,-1,44
 275 641 275 641 266 639 c 128,-1,45
 257 637 257 637 257 633 c 2,46,-1
 426 294 l 1,31,-1
EndSplineSet
EndChar

StartChar: Efcyr
Encoding: 1060 1060 290
Width: 977
GlyphClass: 2
Flags: W
AnchorPoint: "Anchor-1" 489 0 basechar 0
AnchorPoint: "Anchor-0" 489 741 basechar 0
LayerCount: 2
Fore
SplineSet
392 80 m 2,0,-1
 392 630 l 2,1,2
 392 652 392 652 375 659 c 128,-1,3
 358 666 358 666 332 666 c 2,4,-1
 322 666 l 1,5,-1
 322 730 l 1,6,-1
 655 730 l 1,7,-1
 655 666 l 1,8,-1
 645 666 l 2,9,10
 619 666 619 666 602 659 c 128,-1,11
 585 652 585 652 585 630 c 2,12,-1
 585 80 l 2,13,14
 585 58 585 58 602 51 c 128,-1,15
 619 44 619 44 645 44 c 2,16,-1
 655 44 l 1,17,-1
 655 -20 l 1,18,-1
 322 -20 l 1,19,-1
 322 44 l 1,20,-1
 332 44 l 2,21,22
 358 44 358 44 375 51 c 128,-1,23
 392 58 392 58 392 80 c 2,0,-1
402 606 m 1,24,-1
 402 524 l 1,25,26
 338 523 338 523 297.5 504 c 128,-1,27
 257 485 257 485 238 448 c 128,-1,28
 219 411 219 411 219 357 c 0,29,30
 219 305 219 305 238 267.5 c 128,-1,31
 257 230 257 230 297.5 210.5 c 128,-1,32
 338 191 338 191 402 190 c 1,33,-1
 402 108 l 1,34,35
 280 108 280 108 196 138 c 128,-1,36
 112 168 112 168 69 224 c 128,-1,37
 26 280 26 280 26 357 c 256,38,39
 26 434 26 434 69 490 c 128,-1,40
 112 546 112 546 196 576 c 128,-1,41
 280 606 280 606 402 606 c 1,24,-1
575 108 m 1,42,-1
 575 190 l 1,43,44
 640 191 640 191 680.5 210.5 c 128,-1,45
 721 230 721 230 740 267.5 c 128,-1,46
 759 305 759 305 759 357 c 0,47,48
 759 410 759 410 740 447.5 c 128,-1,49
 721 485 721 485 680.5 504 c 128,-1,50
 640 523 640 523 575 524 c 1,51,-1
 575 606 l 1,52,53
 698 606 698 606 781.5 576 c 128,-1,54
 865 546 865 546 908.5 490 c 128,-1,55
 952 434 952 434 952 357 c 256,56,57
 952 280 952 280 909 224 c 128,-1,58
 866 168 866 168 782 138 c 128,-1,59
 698 108 698 108 575 108 c 1,42,-1
EndSplineSet
EndChar

StartChar: Tsecyr
Encoding: 1062 1062 292
Width: 830
GlyphClass: 2
Flags: W
AnchorPoint: "Anchor-0" 416 741 basechar 0
LayerCount: 2
Fore
SplineSet
208 0 m 1,0,-1
 208 78 l 1,1,-1
 642 78 l 1,2,-1
 642 0 l 1,3,-1
 208 0 l 1,0,-1
31 710 m 1,4,-1
 364 710 l 1,5,-1
 364 643 l 1,6,-1
 355 643 l 2,7,8
 342 643 342 643 328 642 c 128,-1,9
 314 641 314 641 304 639 c 128,-1,10
 294 637 294 637 294 633 c 2,11,-1
 294 0 l 1,12,-1
 31 0 l 1,13,-1
 31 67 l 1,14,-1
 41 67 l 2,15,16
 67 67 67 67 84 74 c 128,-1,17
 101 81 101 81 101 103 c 2,18,-1
 101 607 l 2,19,20
 101 629 101 629 84 636 c 128,-1,21
 67 643 67 643 41 643 c 2,22,-1
 31 643 l 1,23,-1
 31 710 l 1,4,-1
454 710 m 1,24,-1
 787 710 l 1,25,-1
 787 643 l 1,26,-1
 777 643 l 2,27,28
 751 643 751 643 734 636 c 128,-1,29
 717 629 717 629 717 607 c 2,30,-1
 717 0 l 1,31,-1
 524 0 l 1,32,-1
 524 633 l 2,33,34
 524 637 524 637 514 639 c 128,-1,35
 504 641 504 641 490 642 c 128,-1,36
 476 643 476 643 463 643 c 2,37,-1
 454 643 l 1,38,-1
 454 710 l 1,24,-1
548 0 m 1,39,-1
 548 78 l 1,40,-1
 812 78 l 1,41,-1
 812 -157 l 1,42,-1
 724 -157 l 1,43,-1
 714 -46 l 2,44,45
 712 -27 712 -27 701.5 -16.5 c 128,-1,46
 691 -6 691 -6 670.5 -3 c 128,-1,47
 650 0 650 0 616 0 c 2,48,-1
 548 0 l 1,39,-1
EndSplineSet
EndChar

StartChar: Checyr
Encoding: 1063 1063 293
Width: 796
GlyphClass: 2
Flags: W
AnchorPoint: "Anchor-0" 391 741 basechar 0
LayerCount: 2
Fore
SplineSet
432 0 m 1,0,-1
 432 67 l 1,1,-1
 441 67 l 2,2,3
 454 67 454 67 468 68 c 128,-1,4
 482 69 482 69 492 71.5 c 128,-1,5
 502 74 502 74 502 77 c 2,6,-1
 502 633 l 2,7,8
 502 637 502 637 492 639 c 128,-1,9
 482 641 482 641 468 642 c 128,-1,10
 454 643 454 643 441 643 c 2,11,-1
 432 643 l 1,12,-1
 432 710 l 1,13,-1
 765 710 l 1,14,-1
 765 643 l 1,15,-1
 755 643 l 2,16,17
 729 643 729 643 712 636 c 128,-1,18
 695 629 695 629 695 607 c 2,19,-1
 695 103 l 2,20,21
 695 81 695 81 712 74 c 128,-1,22
 729 67 729 67 755 67 c 2,23,-1
 765 67 l 1,24,-1
 765 0 l 1,25,-1
 432 0 l 1,0,-1
328 271 m 0,26,27
 249 271 249 271 196.5 292 c 128,-1,28
 144 313 144 313 117.5 360 c 128,-1,29
 91 407 91 407 91 483 c 2,30,-1
 91 607 l 2,31,32
 91 629 91 629 74 636 c 128,-1,33
 57 643 57 643 31 643 c 2,34,-1
 21 643 l 1,35,-1
 21 710 l 1,36,-1
 354 710 l 1,37,-1
 354 643 l 1,38,-1
 345 643 l 2,39,40
 332 643 332 643 318 642 c 128,-1,41
 304 641 304 641 294 639 c 128,-1,42
 284 637 284 637 284 633 c 2,43,-1
 284 496 l 2,44,45
 284 442 284 442 294 410 c 128,-1,46
 304 378 304 378 328.5 364.5 c 128,-1,47
 353 351 353 351 394 351 c 0,48,49
 432 351 432 351 467 358 c 128,-1,50
 502 365 502 365 535 384 c 1,51,-1
 535 310 l 1,52,53
 497 293 497 293 443 282 c 128,-1,54
 389 271 389 271 328 271 c 0,26,27
EndSplineSet
EndChar

StartChar: Shacyr
Encoding: 1064 1064 294
Width: 1171
GlyphClass: 2
Flags: W
AnchorPoint: "Anchor-0" 578 741 basechar 0
LayerCount: 2
Fore
SplineSet
993 0 m 1,0,-1
 205 0 l 1,1,-1
 205 78 l 1,2,-1
 993 78 l 1,3,-1
 993 0 l 1,0,-1
1140 710 m 1,4,-1
 1140 643 l 1,5,-1
 1130 643 l 2,6,7
 1104 643 1104 643 1087 636 c 128,-1,8
 1070 629 1070 629 1070 607 c 2,9,-1
 1070 103 l 2,10,11
 1070 81 1070 81 1087 74 c 128,-1,12
 1104 67 1104 67 1130 67 c 2,13,-1
 1140 67 l 1,14,-1
 1140 0 l 1,15,-1
 877 0 l 1,16,-1
 877 633 l 2,17,18
 877 637 877 637 867 639 c 128,-1,19
 857 641 857 641 843 642 c 128,-1,20
 829 643 829 643 816 643 c 2,21,-1
 807 643 l 1,22,-1
 807 710 l 1,23,-1
 1140 710 l 1,4,-1
364 710 m 1,24,-1
 364 643 l 1,25,-1
 355 643 l 2,26,27
 342 643 342 643 328 642 c 128,-1,28
 314 641 314 641 304 639 c 128,-1,29
 294 637 294 637 294 633 c 2,30,-1
 294 0 l 1,31,-1
 31 0 l 1,32,-1
 31 67 l 1,33,-1
 41 67 l 2,34,35
 67 67 67 67 84 74 c 128,-1,36
 101 81 101 81 101 103 c 2,37,-1
 101 607 l 2,38,39
 101 629 101 629 84 636 c 128,-1,40
 67 643 67 643 41 643 c 2,41,-1
 31 643 l 1,42,-1
 31 710 l 1,43,-1
 364 710 l 1,24,-1
419 710 m 1,44,-1
 752 710 l 1,45,-1
 752 643 l 1,46,-1
 743 643 l 2,47,48
 730 643 730 643 716 642 c 128,-1,49
 702 641 702 641 692 639 c 128,-1,50
 682 637 682 637 682 633 c 2,51,-1
 682 0 l 1,52,-1
 489 0 l 1,53,-1
 489 633 l 2,54,55
 489 637 489 637 479 639 c 128,-1,56
 469 641 469 641 455 642 c 128,-1,57
 441 643 441 643 428 643 c 2,58,-1
 419 643 l 1,59,-1
 419 710 l 1,44,-1
EndSplineSet
EndChar

StartChar: Shchacyr
Encoding: 1065 1065 295
Width: 1183
GlyphClass: 2
Flags: W
AnchorPoint: "Anchor-0" 584 741 basechar 0
LayerCount: 2
Fore
SplineSet
952 0 m 1,0,-1
 205 0 l 1,1,-1
 205 78 l 1,2,-1
 952 78 l 1,3,-1
 952 0 l 1,0,-1
364 710 m 1,4,-1
 364 643 l 1,5,-1
 355 643 l 2,6,7
 342 643 342 643 328 642 c 128,-1,8
 314 641 314 641 304 639 c 128,-1,9
 294 637 294 637 294 633 c 2,10,-1
 294 0 l 1,11,-1
 31 0 l 1,12,-1
 31 67 l 1,13,-1
 41 67 l 2,14,15
 67 67 67 67 84 74 c 128,-1,16
 101 81 101 81 101 103 c 2,17,-1
 101 607 l 2,18,19
 101 629 101 629 84 636 c 128,-1,20
 67 643 67 643 41 643 c 2,21,-1
 31 643 l 1,22,-1
 31 710 l 1,23,-1
 364 710 l 1,4,-1
807 710 m 1,24,-1
 1140 710 l 1,25,-1
 1140 643 l 1,26,-1
 1130 643 l 2,27,28
 1104 643 1104 643 1087 636 c 128,-1,29
 1070 629 1070 629 1070 607 c 2,30,-1
 1070 0 l 1,31,-1
 877 0 l 1,32,-1
 877 633 l 2,33,34
 877 637 877 637 867 639 c 128,-1,35
 857 641 857 641 843 642 c 128,-1,36
 829 643 829 643 816 643 c 2,37,-1
 807 643 l 1,38,-1
 807 710 l 1,24,-1
968 0 m 2,39,-1
 913 0 l 1,40,-1
 913 78 l 1,41,-1
 1165 78 l 1,42,-1
 1165 -157 l 1,43,-1
 1076 -157 l 1,44,-1
 1066 -46 l 2,45,46
 1065 -26 1065 -26 1054.5 -16.5 c 128,-1,47
 1044 -7 1044 -7 1023 -3.5 c 128,-1,48
 1002 0 1002 0 968 0 c 2,39,-1
419 710 m 1,49,-1
 752 710 l 1,50,-1
 752 643 l 1,51,-1
 743 643 l 2,52,53
 730 643 730 643 716 642 c 128,-1,54
 702 641 702 641 692 639 c 128,-1,55
 682 637 682 637 682 633 c 2,56,-1
 682 0 l 1,57,-1
 489 0 l 1,58,-1
 489 633 l 2,59,60
 489 637 489 637 479 639 c 128,-1,61
 469 641 469 641 455 642 c 128,-1,62
 441 643 441 643 428 643 c 2,63,-1
 419 643 l 1,64,-1
 419 710 l 1,49,-1
EndSplineSet
EndChar

StartChar: Hardcyr
Encoding: 1066 1066 296
Width: 833
GlyphClass: 2
Flags: W
AnchorPoint: "Anchor-0" 293 741 basechar 0
LayerCount: 2
Fore
SplineSet
533 0 m 2,0,-1
 174 0 l 1,1,-1
 174 67 l 1,2,-1
 184 67 l 2,3,4
 210 67 210 67 227 74 c 128,-1,5
 244 81 244 81 244 103 c 2,6,-1
 244 633 l 1,7,-1
 234 633 l 2,8,9
 197 633 197 633 173.5 630 c 128,-1,10
 150 627 150 627 138.5 617.5 c 128,-1,11
 127 608 127 608 126 590 c 2,12,-1
 117 481 l 1,13,-1
 30 481 l 1,14,-1
 30 710 l 1,15,-1
 515 710 l 1,16,-1
 515 643 l 1,17,-1
 494 643 l 2,18,19
 481 643 481 643 468 642 c 128,-1,20
 455 641 455 641 446 639 c 128,-1,21
 437 637 437 637 437 633 c 2,22,-1
 437 78 l 1,23,-1
 494 78 l 2,24,25
 535 78 535 78 564 94.5 c 128,-1,26
 593 111 593 111 607.5 143.5 c 128,-1,27
 622 176 622 176 622 223 c 0,28,29
 622 269 622 269 607.5 299.5 c 128,-1,30
 593 330 593 330 565 345 c 128,-1,31
 537 360 537 360 498 360 c 2,32,-1
 401 360 l 1,33,-1
 401 438 l 1,34,-1
 538 438 l 2,35,36
 626 438 626 438 687.5 412.5 c 128,-1,37
 749 387 749 387 781.5 340 c 128,-1,38
 814 293 814 293 814 226 c 0,39,40
 814 157 814 157 780 106.5 c 128,-1,41
 746 56 746 56 683 28 c 128,-1,42
 620 0 620 0 533 0 c 2,0,-1
EndSplineSet
EndChar

StartChar: Ylongcyr
Encoding: 1067 1067 297
Width: 1045
GlyphClass: 2
Flags: W
AnchorPoint: "Anchor-1" 515 0 basechar 0
AnchorPoint: "Anchor-0" 515 741 basechar 0
LayerCount: 2
Fore
SplineSet
751 77 m 2,0,-1
 751 633 l 2,1,2
 751 637 751 637 741 639 c 128,-1,3
 731 641 731 641 717 642 c 128,-1,4
 703 643 703 643 690 643 c 2,5,-1
 681 643 l 1,6,-1
 681 710 l 1,7,-1
 1014 710 l 1,8,-1
 1014 643 l 1,9,-1
 1004 643 l 2,10,11
 978 643 978 643 961 636 c 128,-1,12
 944 629 944 629 944 607 c 2,13,-1
 944 103 l 2,14,15
 944 81 944 81 961 74 c 128,-1,16
 978 67 978 67 1004 67 c 2,17,-1
 1014 67 l 1,18,-1
 1014 0 l 1,19,-1
 681 0 l 1,20,-1
 681 67 l 1,21,-1
 690 67 l 2,22,23
 703 67 703 67 717 68 c 128,-1,24
 731 69 731 69 741 71.5 c 128,-1,25
 751 74 751 74 751 77 c 2,0,-1
390 0 m 2,26,-1
 31 0 l 1,27,-1
 31 67 l 1,28,-1
 41 67 l 2,29,30
 67 67 67 67 84 74 c 128,-1,31
 101 81 101 81 101 103 c 2,32,-1
 101 607 l 2,33,34
 101 629 101 629 84 636 c 128,-1,35
 67 643 67 643 41 643 c 2,36,-1
 31 643 l 1,37,-1
 31 710 l 1,38,-1
 373 710 l 1,39,-1
 373 643 l 1,40,-1
 351 643 l 2,41,42
 339 643 339 643 325.5 642 c 128,-1,43
 312 641 312 641 303 639 c 128,-1,44
 294 637 294 637 294 633 c 2,45,-1
 294 78 l 1,46,-1
 351 78 l 2,47,48
 392 78 392 78 420.5 94.5 c 128,-1,49
 449 111 449 111 464 143.5 c 128,-1,50
 479 176 479 176 479 223 c 0,51,52
 479 269 479 269 464.5 299.5 c 128,-1,53
 450 330 450 330 422 345 c 128,-1,54
 394 360 394 360 355 360 c 2,55,-1
 262 360 l 1,56,-1
 262 438 l 1,57,-1
 395 438 l 2,58,59
 483 438 483 438 544.5 412.5 c 128,-1,60
 606 387 606 387 638.5 340 c 128,-1,61
 671 293 671 293 671 226 c 0,62,63
 671 157 671 157 637 106.5 c 128,-1,64
 603 56 603 56 540 28 c 128,-1,65
 477 0 477 0 390 0 c 2,26,-1
EndSplineSet
EndChar

StartChar: Softcyr
Encoding: 1068 1068 298
Width: 691
GlyphClass: 2
Flags: W
AnchorPoint: "Anchor-0" 203 741 basechar 0
LayerCount: 2
Fore
SplineSet
390 0 m 2,0,-1
 31 0 l 1,1,-1
 31 67 l 1,2,-1
 41 67 l 2,3,4
 68 67 68 67 84.5 74 c 128,-1,5
 101 81 101 81 101 103 c 2,6,-1
 101 607 l 2,7,8
 101 629 101 629 84.5 636 c 128,-1,9
 68 643 68 643 41 643 c 2,10,-1
 31 643 l 1,11,-1
 31 710 l 1,12,-1
 373 710 l 1,13,-1
 373 643 l 1,14,-1
 351 643 l 2,15,16
 338 643 338 643 325 642 c 128,-1,17
 312 641 312 641 303 639 c 128,-1,18
 294 637 294 637 294 633 c 2,19,-1
 294 78 l 1,20,-1
 351 78 l 2,21,22
 392 78 392 78 420.5 94.5 c 128,-1,23
 449 111 449 111 464 143.5 c 128,-1,24
 479 176 479 176 479 222 c 0,25,26
 479 269 479 269 464.5 299.5 c 128,-1,27
 450 330 450 330 422 345 c 128,-1,28
 394 360 394 360 355 360 c 2,29,-1
 262 360 l 1,30,-1
 262 438 l 1,31,-1
 395 438 l 2,32,33
 483 438 483 438 544.5 412.5 c 128,-1,34
 606 387 606 387 638.5 340 c 128,-1,35
 671 293 671 293 671 226 c 0,36,37
 671 157 671 157 637 106.5 c 128,-1,38
 603 56 603 56 540 28 c 128,-1,39
 477 0 477 0 390 0 c 2,0,-1
EndSplineSet
EndChar

StartChar: Ereversedcyr
Encoding: 1069 1069 299
Width: 717
GlyphClass: 2
Flags: W
AnchorPoint: "Anchor-1" 347 0 basechar 0
AnchorPoint: "Anchor-0" 347 741 basechar 0
LayerCount: 2
Fore
SplineSet
509 397 m 1,0,-1
 509 330 l 1,1,2
 475 328 475 328 441 326.5 c 128,-1,3
 407 325 407 325 373.5 323.5 c 128,-1,4
 340 322 340 322 306.5 320.5 c 128,-1,5
 273 319 273 319 239 317 c 1,6,-1
 239 409 l 1,7,8
 273 408 273 408 306.5 406.5 c 128,-1,9
 340 405 340 405 373.5 403.5 c 128,-1,10
 407 402 407 402 441 400.5 c 128,-1,11
 475 399 475 399 509 397 c 1,0,-1
338 -10 m 0,12,13
 267 -10 267 -10 221 13.5 c 128,-1,14
 175 37 175 37 147 79 c 128,-1,15
 119 121 119 121 103 176 c 1,16,-1
 156 169 l 1,17,-1
 137 0 l 1,18,-1
 56 0 l 1,19,-1
 56 224 l 1,20,-1
 150 224 l 1,21,22
 165 180 165 180 186.5 146 c 128,-1,23
 208 112 208 112 240 93 c 128,-1,24
 272 74 272 74 316 74 c 0,25,26
 352 74 352 74 382 93 c 128,-1,27
 412 112 412 112 434 148.5 c 128,-1,28
 456 185 456 185 468 237 c 128,-1,29
 480 289 480 289 480 355 c 0,30,31
 480 419 480 419 469.5 471 c 128,-1,32
 459 523 459 523 438 559.5 c 128,-1,33
 417 596 417 596 385.5 616 c 128,-1,34
 354 636 354 636 311 636 c 0,35,36
 269 636 269 636 238 617.5 c 128,-1,37
 207 599 207 599 186 565 c 128,-1,38
 165 531 165 531 150 486 c 1,39,-1
 56 486 l 1,40,-1
 56 710 l 1,41,-1
 137 710 l 1,42,-1
 156 541 l 1,43,-1
 102 531 l 1,44,45
 119 587 119 587 147 629 c 128,-1,46
 175 671 175 671 221.5 695.5 c 128,-1,47
 268 720 268 720 338 720 c 0,48,49
 416 720 416 720 479 694.5 c 128,-1,50
 542 669 542 669 587.5 621.5 c 128,-1,51
 633 574 633 574 657.5 506.5 c 128,-1,52
 682 439 682 439 682 355 c 0,53,54
 682 276 682 276 656 209.5 c 128,-1,55
 630 143 630 143 583 93.5 c 128,-1,56
 536 44 536 44 474 17 c 128,-1,57
 412 -10 412 -10 338 -10 c 0,12,13
EndSplineSet
Substitution2: "'ss01' Style Set 1 lookup 61 subtable" Ecyr.alt1
EndChar

StartChar: Yucyr
Encoding: 1070 1070 300
Width: 1143
GlyphClass: 2
Flags: W
AnchorPoint: "Anchor-1" 596 0 basechar 0
AnchorPoint: "Anchor-0" 596 741 basechar 0
LayerCount: 2
Fore
SplineSet
184 405 m 1,0,-1
 527 405 l 1,1,-1
 527 327 l 1,2,-1
 184 327 l 1,3,-1
 184 405 l 1,0,-1
31 0 m 1,4,-1
 31 67 l 1,5,-1
 41 67 l 2,6,7
 67 67 67 67 84 74 c 128,-1,8
 101 81 101 81 101 103 c 2,9,-1
 101 607 l 2,10,11
 101 629 101 629 84 636 c 128,-1,12
 67 643 67 643 41 643 c 2,13,-1
 31 643 l 1,14,-1
 31 710 l 1,15,-1
 364 710 l 1,16,-1
 364 643 l 1,17,-1
 355 643 l 2,18,19
 346 643 346 643 335 642.5 c 128,-1,20
 324 642 324 642 315 640.5 c 128,-1,21
 306 639 306 639 300 637.5 c 128,-1,22
 294 636 294 636 294 633 c 2,23,-1
 294 77 l 2,24,25
 294 74 294 74 300 72.5 c 128,-1,26
 306 71 306 71 315 69.5 c 128,-1,27
 324 68 324 68 335 67.5 c 128,-1,28
 346 67 346 67 355 67 c 2,29,-1
 364 67 l 1,30,-1
 364 0 l 1,31,-1
 31 0 l 1,4,-1
748 -10 m 256,32,33
 670 -10 670 -10 604 16 c 128,-1,34
 538 42 538 42 489.5 90 c 128,-1,35
 441 138 441 138 414.5 205.5 c 128,-1,36
 388 273 388 273 388 355 c 256,37,38
 388 437 388 437 414.5 504 c 128,-1,39
 441 571 441 571 489.5 619.5 c 128,-1,40
 538 668 538 668 604 694 c 128,-1,41
 670 720 670 720 748 720 c 256,42,43
 826 720 826 720 891.5 694 c 128,-1,44
 957 668 957 668 1005.5 619.5 c 128,-1,45
 1054 571 1054 571 1081 504 c 128,-1,46
 1108 437 1108 437 1108 355 c 256,47,48
 1108 273 1108 273 1081 205.5 c 128,-1,49
 1054 138 1054 138 1005.5 90 c 128,-1,50
 957 42 957 42 891.5 16 c 128,-1,51
 826 -10 826 -10 748 -10 c 256,32,33
748 73 m 256,52,53
 783 73 783 73 812 91 c 128,-1,54
 841 109 841 109 862 145.5 c 128,-1,55
 883 182 883 182 894.5 234.5 c 128,-1,56
 906 287 906 287 906 355 c 256,57,58
 906 423 906 423 894.5 475.5 c 128,-1,59
 883 528 883 528 862 564.5 c 128,-1,60
 841 601 841 601 812 619 c 128,-1,61
 783 637 783 637 748 637 c 256,62,63
 713 637 713 637 684 619 c 128,-1,64
 655 601 655 601 634 564.5 c 128,-1,65
 613 528 613 528 601.5 475.5 c 128,-1,66
 590 423 590 423 590 355 c 256,67,68
 590 287 590 287 601.5 234.5 c 128,-1,69
 613 182 613 182 634 145.5 c 128,-1,70
 655 109 655 109 684 91 c 128,-1,71
 713 73 713 73 748 73 c 256,52,53
EndSplineSet
EndChar

StartChar: Yacyr
Encoding: 1071 1071 301
Width: 742
GlyphClass: 2
Flags: W
AnchorPoint: "Anchor-1" 371 0 basechar 0
AnchorPoint: "Anchor-0" 410 741 basechar 0
LayerCount: 2
Fore
SplineSet
385 314 m 1,0,-1
 235 0 l 1,1,-1
 21 0 l 1,2,-1
 21 67 l 1,3,-1
 29 67 l 2,4,5
 41 67 41 67 50 69.5 c 128,-1,6
 59 72 59 72 66 78 c 128,-1,7
 73 84 73 84 79 95 c 2,8,-1
 207 330 l 1,9,-1
 385 314 l 1,0,-1
448 77 m 2,10,-1
 448 633 l 1,11,-1
 381 633 l 2,12,13
 345 633 345 633 320.5 617 c 128,-1,14
 296 601 296 601 284 571 c 128,-1,15
 272 541 272 541 272 500 c 0,16,17
 272 456 272 456 284 424.5 c 128,-1,18
 296 393 296 393 321.5 376 c 128,-1,19
 347 359 347 359 385 359 c 2,20,-1
 468 359 l 1,21,-1
 468 284 l 1,22,-1
 341 284 l 1,23,-1
 321 288 l 1,24,25
 240 293 240 293 184.5 320 c 128,-1,26
 129 347 129 347 101 393 c 128,-1,27
 73 439 73 439 73 499 c 0,28,29
 73 563 73 563 105 610.5 c 128,-1,30
 137 658 137 658 198.5 684 c 128,-1,31
 260 710 260 710 348 710 c 2,32,-1
 710 710 l 1,33,-1
 710 643 l 1,34,-1
 700 643 l 2,35,36
 674 643 674 643 657 636 c 128,-1,37
 640 629 640 629 640 607 c 2,38,-1
 640 103 l 2,39,40
 640 81 640 81 657 74 c 128,-1,41
 674 67 674 67 700 67 c 2,42,-1
 710 67 l 1,43,-1
 710 0 l 1,44,-1
 384 0 l 1,45,-1
 384 67 l 1,46,-1
 395 67 l 2,47,48
 404 67 404 67 413.5 67.5 c 128,-1,49
 423 68 423 68 430.5 69.5 c 128,-1,50
 438 71 438 71 443 72.5 c 128,-1,51
 448 74 448 74 448 77 c 2,10,-1
EndSplineSet
EndChar

StartChar: Geupcyr
Encoding: 1168 1168 302
Width: 610
GlyphClass: 2
Flags: W
AnchorPoint: "Anchor-0" 288 741 basechar 0
LayerCount: 2
Fore
SplineSet
294 632 m 1,0,-1
 294 103 l 2,1,2
 294 86 294 86 305.5 78 c 128,-1,3
 317 70 317 70 333.5 68.5 c 128,-1,4
 350 67 350 67 365 67 c 2,5,-1
 383 67 l 1,6,-1
 383 0 l 1,7,-1
 31 0 l 1,8,-1
 31 67 l 1,9,-1
 41 67 l 2,10,11
 67 67 67 67 84 74 c 128,-1,12
 101 81 101 81 101 103 c 2,13,-1
 101 607 l 2,14,15
 101 629 101 629 84 636 c 128,-1,16
 67 643 67 643 41 643 c 2,17,-1
 31 643 l 1,18,-1
 31 710 l 1,19,-1
 393 710 l 2,20,21
 420 710 420 710 439 713.5 c 128,-1,22
 458 717 458 717 468.5 726.5 c 128,-1,23
 479 736 479 736 480 755 c 2,24,-1
 490 867 l 1,25,-1
 579 867 l 1,26,-1
 579 632 l 1,27,-1
 294 632 l 1,0,-1
EndSplineSet
EndChar

StartChar: Gestrokecyr
Encoding: 1170 1170 303
Width: 610
GlyphClass: 2
Flags: W
AnchorPoint: "Anchor-0" 311 741 basechar 0
LayerCount: 2
Fore
SplineSet
31 395 m 1,0,-1
 417 395 l 1,1,-1
 417 315 l 1,2,-1
 31 315 l 1,3,-1
 31 395 l 1,0,-1
294 632 m 1,4,-1
 294 103 l 2,5,6
 294 86 294 86 305.5 78 c 128,-1,7
 317 70 317 70 333.5 68.5 c 128,-1,8
 350 67 350 67 365 67 c 2,9,-1
 383 67 l 1,10,-1
 383 0 l 1,11,-1
 31 0 l 1,12,-1
 31 67 l 1,13,-1
 41 67 l 2,14,15
 67 67 67 67 84 74 c 128,-1,16
 101 81 101 81 101 103 c 2,17,-1
 101 607 l 2,18,19
 101 629 101 629 84 636 c 128,-1,20
 67 643 67 643 41 643 c 2,21,-1
 31 643 l 1,22,-1
 31 710 l 1,23,-1
 579 710 l 1,24,-1
 579 483 l 1,25,-1
 492 483 l 1,26,-1
 483 589 l 2,27,28
 481 607 481 607 470.5 616.5 c 128,-1,29
 460 626 460 626 438.5 629 c 128,-1,30
 417 632 417 632 385 632 c 2,31,-1
 294 632 l 1,4,-1
EndSplineSet
EndChar

StartChar: Zhetailcyr
Encoding: 1174 1174 304
Width: 1137
GlyphClass: 2
Flags: W
AnchorPoint: "Anchor-0" 560 741 basechar 0
LayerCount: 2
Fore
SplineSet
782 0 m 1,0,-1
 782 67 l 1,1,-1
 790 67 l 2,2,3
 803 67 803 67 816 68 c 128,-1,4
 829 69 829 69 837.5 71.5 c 128,-1,5
 846 74 846 74 846 77 c 2,6,-1
 686 337 l 1,7,-1
 686 363 l 1,8,-1
 910 634 l 2,9,10
 910 638 910 638 898.5 640 c 128,-1,11
 887 642 887 642 870.5 642.5 c 128,-1,12
 854 643 854 643 838 643 c 2,13,-1
 827 643 l 1,14,-1
 827 710 l 1,15,-1
 1084 710 l 1,16,-1
 1084 643 l 1,17,-1
 1066 643 l 2,18,19
 1049 643 1049 643 1036.5 640 c 128,-1,20
 1024 637 1024 637 1012.5 630 c 128,-1,21
 1001 623 1001 623 989 609 c 2,22,-1
 781 357 l 1,23,-1
 830 453 l 1,24,-1
 1059 74 l 1,25,-1
 1059 0 l 1,26,-1
 782 0 l 1,0,-1
343 0 m 1,27,-1
 15 0 l 1,28,-1
 15 67 l 1,29,-1
 25 67 l 2,30,31
 41 67 41 67 52 70 c 128,-1,32
 63 73 63 73 71.5 80 c 128,-1,33
 80 87 80 87 88 100 c 2,34,-1
 307 453 l 1,35,-1
 339 357 l 1,36,-1
 130 609 l 2,37,38
 119 623 119 623 108 630 c 128,-1,39
 97 637 97 637 84 640 c 128,-1,40
 71 643 71 643 54 643 c 2,41,-1
 35 643 l 1,42,-1
 35 710 l 1,43,-1
 297 710 l 1,44,-1
 297 643 l 1,45,-1
 287 643 l 2,46,47
 272 643 272 643 255 642 c 128,-1,48
 238 641 238 641 227 639.5 c 128,-1,49
 216 638 216 638 215 634 c 2,50,-1
 439 363 l 1,51,-1
 439 337 l 1,52,-1
 279 77 l 2,53,54
 279 74 279 74 287.5 71.5 c 128,-1,55
 296 69 296 69 309 68 c 128,-1,56
 322 67 322 67 335 67 c 2,57,-1
 343 67 l 1,58,-1
 343 0 l 1,27,-1
935 0 m 2,59,-1
 870 0 l 1,60,-1
 870 78 l 1,61,-1
 1131 78 l 1,62,-1
 1131 -157 l 1,63,-1
 1043 -157 l 1,64,-1
 1033 -46 l 2,65,66
 1032 -26 1032 -26 1021.5 -16.5 c 128,-1,67
 1011 -7 1011 -7 990 -3.5 c 128,-1,68
 969 0 969 0 935 0 c 2,59,-1
396 0 m 1,69,-1
 396 67 l 1,70,-1
 405 67 l 2,71,72
 415 67 415 67 426 67.5 c 128,-1,73
 437 68 437 68 446 69.5 c 128,-1,74
 455 71 455 71 460.5 72.5 c 128,-1,75
 466 74 466 74 466 77 c 2,76,-1
 466 633 l 2,77,78
 466 636 466 636 460.5 637.5 c 128,-1,79
 455 639 455 639 446 640.5 c 128,-1,80
 437 642 437 642 426 642.5 c 128,-1,81
 415 643 415 643 404 643 c 2,82,-1
 395 643 l 1,83,-1
 395 710 l 1,84,-1
 729 710 l 1,85,-1
 729 643 l 1,86,-1
 720 643 l 2,87,88
 710 643 710 643 699.5 642.5 c 128,-1,89
 689 642 689 642 679.5 640.5 c 128,-1,90
 670 639 670 639 664.5 637.5 c 128,-1,91
 659 636 659 636 659 633 c 2,92,-1
 659 77 l 2,93,94
 659 74 659 74 664.5 72.5 c 128,-1,95
 670 71 670 71 679 69.5 c 128,-1,96
 688 68 688 68 699 67.5 c 128,-1,97
 710 67 710 67 720 67 c 2,98,-1
 729 67 l 1,99,-1
 729 0 l 1,100,-1
 396 0 l 1,69,-1
EndSplineSet
EndChar

StartChar: Katailcyr
Encoding: 1178 1178 306
Width: 793
GlyphClass: 2
Flags: W
AnchorPoint: "Anchor-0" 406 741 basechar 0
LayerCount: 2
Fore
SplineSet
31 0 m 1,0,-1
 31 67 l 1,1,-1
 41 67 l 2,2,3
 68 67 68 67 84.5 74 c 128,-1,4
 101 81 101 81 101 103 c 2,5,-1
 101 607 l 2,6,7
 101 629 101 629 84.5 636 c 128,-1,8
 68 643 68 643 41 643 c 2,9,-1
 31 643 l 1,10,-1
 31 710 l 1,11,-1
 375 710 l 1,12,-1
 375 643 l 1,13,-1
 365 643 l 2,14,15
 353 643 353 643 340 642.5 c 128,-1,16
 327 642 327 642 317 640.5 c 128,-1,17
 307 639 307 639 300.5 637.5 c 128,-1,18
 294 636 294 636 294 633 c 2,19,-1
 294 77 l 2,20,21
 294 74 294 74 299 72.5 c 128,-1,22
 304 71 304 71 312.5 69.5 c 128,-1,23
 321 68 321 68 331 67.5 c 128,-1,24
 341 67 341 67 351 67 c 2,25,-1
 360 67 l 1,26,-1
 360 0 l 1,27,-1
 31 0 l 1,0,-1
429 0 m 1,28,-1
 429 67 l 1,29,-1
 438 67 l 2,30,31
 451 67 451 67 464 68 c 128,-1,32
 477 69 477 69 485.5 71.5 c 128,-1,33
 494 74 494 74 494 77 c 2,34,-1
 322 337 l 1,35,-1
 322 363 l 1,36,-1
 558 634 l 2,37,38
 558 638 558 638 546.5 640 c 128,-1,39
 535 642 535 642 518.5 642.5 c 128,-1,40
 502 643 502 643 486 643 c 2,41,-1
 476 643 l 1,42,-1
 476 710 l 1,43,-1
 734 710 l 1,44,-1
 734 643 l 1,45,-1
 715 643 l 2,46,47
 698 643 698 643 685.5 640 c 128,-1,48
 673 637 673 637 662 630 c 128,-1,49
 651 623 651 623 639 609 c 2,50,-1
 418 355 l 1,51,-1
 464 453 l 1,52,-1
 716 74 l 1,53,-1
 716 0 l 1,54,-1
 429 0 l 1,28,-1
592 0 m 2,55,-1
 527 0 l 1,56,-1
 527 78 l 1,57,-1
 788 78 l 1,58,-1
 788 -157 l 1,59,-1
 700 -157 l 1,60,-1
 690 -46 l 2,61,62
 688 -26 688 -26 677.5 -16 c 128,-1,63
 667 -6 667 -6 646.5 -3 c 128,-1,64
 626 0 626 0 592 0 c 2,55,-1
EndSplineSet
EndChar

StartChar: Kaverticalstrokecyr
Encoding: 1180 1180 307
Width: 873
GlyphClass: 2
Flags: W
AnchorPoint: "Anchor-0" 457 741 basechar 0
LayerCount: 2
Fore
SplineSet
366 164 m 1,0,-1
 366 537 l 1,1,-1
 444 537 l 1,2,-1
 444 164 l 1,3,-1
 366 164 l 1,0,-1
31 0 m 1,4,-1
 31 67 l 1,5,-1
 41 67 l 2,6,7
 68 67 68 67 84.5 74 c 128,-1,8
 101 81 101 81 101 103 c 2,9,-1
 101 607 l 2,10,11
 101 629 101 629 84.5 636 c 128,-1,12
 68 643 68 643 41 643 c 2,13,-1
 31 643 l 1,14,-1
 31 710 l 1,15,-1
 375 710 l 1,16,-1
 375 643 l 1,17,-1
 365 643 l 2,18,19
 353 643 353 643 340 642.5 c 128,-1,20
 327 642 327 642 317 640.5 c 128,-1,21
 307 639 307 639 300.5 637.5 c 128,-1,22
 294 636 294 636 294 633 c 2,23,-1
 294 77 l 2,24,25
 294 74 294 74 299 72.5 c 128,-1,26
 304 71 304 71 312.5 69.5 c 128,-1,27
 321 68 321 68 331 67.5 c 128,-1,28
 341 67 341 67 351 67 c 2,29,-1
 360 67 l 1,30,-1
 360 0 l 1,31,-1
 31 0 l 1,4,-1
529 0 m 1,32,-1
 529 67 l 1,33,-1
 538 67 l 2,34,35
 551 67 551 67 564 68 c 128,-1,36
 577 69 577 69 585.5 71.5 c 128,-1,37
 594 74 594 74 594 77 c 2,38,-1
 469 337 l 1,39,-1
 469 363 l 1,40,-1
 658 634 l 2,41,42
 658 638 658 638 646.5 640 c 128,-1,43
 635 642 635 642 618.5 642.5 c 128,-1,44
 602 643 602 643 586 643 c 2,45,-1
 576 643 l 1,46,-1
 576 710 l 1,47,-1
 830 710 l 1,48,-1
 830 643 l 1,49,-1
 811 643 l 2,50,51
 786 643 786 643 769 637.5 c 128,-1,52
 752 632 752 632 735 609 c 2,53,-1
 558 355 l 1,54,-1
 611 463 l 1,55,-1
 784 100 l 2,56,57
 792 86 792 86 800.5 79 c 128,-1,58
 809 72 809 72 821 69.5 c 128,-1,59
 833 67 833 67 847 67 c 2,60,-1
 858 67 l 1,61,-1
 858 0 l 1,62,-1
 529 0 l 1,32,-1
EndSplineSet
EndChar

StartChar: Kabashkcyr
Encoding: 1184 1184 308
Width: 940
GlyphClass: 2
Flags: W
AnchorPoint: "Anchor-0" 556 741 basechar 0
LayerCount: 2
Fore
SplineSet
583 0 m 1,0,-1
 583 67 l 1,1,-1
 592 67 l 2,2,3
 605 67 605 67 618 68 c 128,-1,4
 631 69 631 69 639.5 71.5 c 128,-1,5
 648 74 648 74 648 77 c 2,6,-1
 476 337 l 1,7,-1
 476 363 l 1,8,-1
 712 634 l 2,9,10
 712 638 712 638 701 640 c 128,-1,11
 690 642 690 642 673 642.5 c 128,-1,12
 656 643 656 643 640 643 c 2,13,-1
 630 643 l 1,14,-1
 630 710 l 1,15,-1
 888 710 l 1,16,-1
 888 643 l 1,17,-1
 869 643 l 2,18,19
 852 643 852 643 839.5 640 c 128,-1,20
 827 637 827 637 816 630 c 128,-1,21
 805 623 805 623 793 609 c 2,22,-1
 572 355 l 1,23,-1
 618 453 l 1,24,-1
 852 100 l 2,25,26
 861 87 861 87 869.5 80 c 128,-1,27
 878 73 878 73 889 70 c 128,-1,28
 900 67 900 67 915 67 c 2,29,-1
 925 67 l 1,30,-1
 925 0 l 1,31,-1
 583 0 l 1,0,-1
185 0 m 1,32,-1
 185 67 l 1,33,-1
 196 67 l 2,34,35
 222 67 222 67 238.5 74 c 128,-1,36
 255 81 255 81 255 103 c 2,37,-1
 255 633 l 1,38,-1
 234 633 l 2,39,40
 197 633 197 633 173.5 630 c 128,-1,41
 150 627 150 627 138.5 617.5 c 128,-1,42
 127 608 127 608 126 590 c 2,43,-1
 117 481 l 1,44,-1
 30 481 l 1,45,-1
 30 710 l 1,46,-1
 529 710 l 1,47,-1
 529 643 l 1,48,-1
 519 643 l 2,49,50
 503 643 503 643 486.5 642 c 128,-1,51
 470 641 470 641 459 639 c 128,-1,52
 448 637 448 637 448 633 c 2,53,-1
 448 77 l 2,54,55
 448 74 448 74 457 71.5 c 128,-1,56
 466 69 466 69 479 68 c 128,-1,57
 492 67 492 67 505 67 c 2,58,-1
 514 67 l 1,59,-1
 514 0 l 1,60,-1
 185 0 l 1,32,-1
EndSplineSet
EndChar

StartChar: Entailcyr
Encoding: 1186 1186 309
Width: 838
GlyphClass: 2
Flags: W
AnchorPoint: "Anchor-0" 419 741 basechar 0
LayerCount: 2
Fore
SplineSet
184 405 m 1,0,-1
 613 405 l 1,1,-1
 613 327 l 1,2,-1
 184 327 l 1,3,-1
 184 405 l 1,0,-1
31 0 m 1,4,-1
 31 67 l 1,5,-1
 41 67 l 2,6,7
 67 67 67 67 84 74 c 128,-1,8
 101 81 101 81 101 103 c 2,9,-1
 101 607 l 2,10,11
 101 629 101 629 84 636 c 128,-1,12
 67 643 67 643 41 643 c 2,13,-1
 31 643 l 1,14,-1
 31 710 l 1,15,-1
 364 710 l 1,16,-1
 364 643 l 1,17,-1
 355 643 l 2,18,19
 346 643 346 643 335 642.5 c 128,-1,20
 324 642 324 642 315 640.5 c 128,-1,21
 306 639 306 639 300 637.5 c 128,-1,22
 294 636 294 636 294 633 c 2,23,-1
 294 77 l 2,24,25
 294 74 294 74 300 72.5 c 128,-1,26
 306 71 306 71 315 69.5 c 128,-1,27
 324 68 324 68 335 67.5 c 128,-1,28
 346 67 346 67 355 67 c 2,29,-1
 364 67 l 1,30,-1
 364 0 l 1,31,-1
 31 0 l 1,4,-1
462 0 m 1,32,-1
 462 67 l 1,33,-1
 470 67 l 2,34,35
 481 67 481 67 491.5 67.5 c 128,-1,36
 502 68 502 68 511 69.5 c 128,-1,37
 520 71 520 71 526 72.5 c 128,-1,38
 532 74 532 74 532 77 c 2,39,-1
 532 633 l 2,40,41
 532 636 532 636 526 637.5 c 128,-1,42
 520 639 520 639 511 640.5 c 128,-1,43
 502 642 502 642 491.5 642.5 c 128,-1,44
 481 643 481 643 470 643 c 2,45,-1
 462 643 l 1,46,-1
 462 710 l 1,47,-1
 795 710 l 1,48,-1
 795 643 l 1,49,-1
 784 643 l 2,50,51
 758 643 758 643 741.5 636 c 128,-1,52
 725 629 725 629 725 607 c 2,53,-1
 725 0 l 1,54,-1
 462 0 l 1,32,-1
623 0 m 2,55,-1
 556 0 l 1,56,-1
 556 78 l 1,57,-1
 819 78 l 1,58,-1
 819 -157 l 1,59,-1
 731 -157 l 1,60,-1
 721 -46 l 2,61,62
 720 -26 720 -26 709.5 -16.5 c 128,-1,63
 699 -7 699 -7 678 -3.5 c 128,-1,64
 657 0 657 0 623 0 c 2,55,-1
EndSplineSet
EndChar

StartChar: Tetailcyr
Encoding: 1196 1196 311
Width: 721
GlyphClass: 2
Flags: W
AnchorPoint: "Anchor-0" 355 741 basechar 0
LayerCount: 2
Fore
SplineSet
264 103 m 2,0,-1
 264 633 l 1,1,-1
 234 633 l 2,2,3
 197 633 197 633 173.5 630 c 128,-1,4
 150 627 150 627 138.5 617.5 c 128,-1,5
 127 608 127 608 126 590 c 2,6,-1
 117 481 l 1,7,-1
 30 481 l 1,8,-1
 30 710 l 1,9,-1
 691 710 l 1,10,-1
 691 481 l 1,11,-1
 604 481 l 1,12,-1
 595 590 l 2,13,14
 594 608 594 608 582.5 617.5 c 128,-1,15
 571 627 571 627 547.5 630 c 128,-1,16
 524 633 524 633 487 633 c 2,17,-1
 457 633 l 1,18,-1
 457 0 l 1,19,-1
 190 0 l 1,20,-1
 190 67 l 1,21,-1
 205 67 l 2,22,23
 231 67 231 67 247.5 74 c 128,-1,24
 264 81 264 81 264 103 c 2,0,-1
359 0 m 2,25,-1
 292 0 l 1,26,-1
 292 78 l 1,27,-1
 556 78 l 1,28,-1
 556 -157 l 1,29,-1
 467 -157 l 1,30,-1
 457 -46 l 2,31,32
 456 -26 456 -26 445.5 -16.5 c 128,-1,33
 435 -7 435 -7 414 -3.5 c 128,-1,34
 393 0 393 0 359 0 c 2,25,-1
EndSplineSet
EndChar

StartChar: Ustraightstrokecyr
Encoding: 1200 1200 313
Width: 693
GlyphClass: 2
Flags: W
AnchorPoint: "Anchor-1" 347 0 basechar 0
AnchorPoint: "Anchor-0" 349 741 basechar 0
LayerCount: 2
Fore
SplineSet
128 296 m 1,0,-1
 569 296 l 1,1,-1
 569 221 l 1,2,-1
 128 221 l 1,3,-1
 128 296 l 1,0,-1
252 316 m 1,4,-1
 257 289 l 1,5,-1
 72 617 l 2,6,7
 64 630 64 630 56 635.5 c 128,-1,8
 48 641 48 641 37.5 642 c 128,-1,9
 27 643 27 643 15 643 c 2,10,-1
 10 643 l 1,11,-1
 10 710 l 1,12,-1
 335 710 l 1,13,-1
 335 643 l 1,14,-1
 319 643 l 2,15,16
 305 643 305 643 291.5 642 c 128,-1,17
 278 641 278 641 269.5 639 c 128,-1,18
 261 637 261 637 261 633 c 2,19,-1
 422 338 l 1,20,-1
 379 331 l 1,21,-1
 538 625 l 2,22,23
 538 631 538 631 529 635 c 128,-1,24
 520 639 520 639 506 641 c 128,-1,25
 492 643 492 643 477 643 c 2,26,-1
 464 643 l 1,27,-1
 464 710 l 1,28,-1
 683 710 l 1,29,-1
 683 643 l 1,30,-1
 679 643 l 2,31,32
 666 643 666 643 654.5 640 c 128,-1,33
 643 637 643 637 632.5 628.5 c 128,-1,34
 622 620 622 620 613 602 c 2,35,-1
 440 288 l 1,36,-1
 445 323 l 1,37,-1
 445 103 l 2,38,39
 445 81 445 81 461.5 74 c 128,-1,40
 478 67 478 67 504 67 c 2,41,-1
 519 67 l 1,42,-1
 519 0 l 1,43,-1
 178 0 l 1,44,-1
 178 67 l 1,45,-1
 193 67 l 2,46,47
 218 67 218 67 235 74 c 128,-1,48
 252 81 252 81 252 103 c 2,49,-1
 252 316 l 1,4,-1
EndSplineSet
EndChar

StartChar: Xatailcyr
Encoding: 1202 1202 314
Width: 747
GlyphClass: 2
Flags: W
AnchorPoint: "Anchor-0" 381 741 basechar 0
LayerCount: 2
Fore
SplineSet
25 643 m 1,0,-1
 25 710 l 1,1,-1
 363 710 l 1,2,-1
 363 643 l 1,3,-1
 348 643 l 2,4,5
 336 643 336 643 322.5 642 c 128,-1,6
 309 641 309 641 300 639 c 128,-1,7
 291 637 291 637 291 633 c 2,8,-1
 438 407 l 1,9,-1
 444 404 l 1,10,-1
 668 74 l 1,11,-1
 668 0 l 1,12,-1
 376 0 l 1,13,-1
 376 67 l 1,14,-1
 391 67 l 2,15,16
 404 67 404 67 417 68 c 128,-1,17
 430 69 430 69 439 71.5 c 128,-1,18
 448 74 448 74 448 77 c 2,19,-1
 280 328 l 1,20,-1
 274 332 l 1,21,-1
 90 611 l 2,22,23
 76 633 76 633 63.5 638 c 128,-1,24
 51 643 51 643 30 643 c 2,25,-1
 25 643 l 1,0,-1
16 0 m 1,26,-1
 16 67 l 1,27,-1
 25 67 l 2,28,29
 46 67 46 67 60 77 c 128,-1,30
 74 87 74 87 92 113 c 2,31,-1
 284 391 l 1,32,-1
 342 347 l 1,33,-1
 162 85 l 2,34,35
 162 80 162 80 171.5 75.5 c 128,-1,36
 181 71 181 71 195 69 c 128,-1,37
 209 67 209 67 221 67 c 2,38,-1
 235 67 l 1,39,-1
 235 0 l 1,40,-1
 16 0 l 1,26,-1
463 361 m 1,41,-1
 404 402 l 1,42,-1
 549 625 l 2,43,44
 549 631 549 631 540 635 c 128,-1,45
 531 639 531 639 518 641 c 128,-1,46
 505 643 505 643 491 643 c 2,47,-1
 478 643 l 1,48,-1
 478 710 l 1,49,-1
 693 710 l 1,50,-1
 693 643 l 1,51,-1
 689 643 l 2,52,53
 667 643 667 643 652 633.5 c 128,-1,54
 637 624 637 624 619 598 c 2,55,-1
 463 361 l 1,41,-1
544 0 m 2,56,-1
 479 0 l 1,57,-1
 479 78 l 1,58,-1
 740 78 l 1,59,-1
 740 -157 l 1,60,-1
 651 -157 l 1,61,-1
 642 -46 l 2,62,63
 640 -26 640 -26 630 -16.5 c 128,-1,64
 620 -7 620 -7 599 -3.5 c 128,-1,65
 578 0 578 0 544 0 c 2,56,-1
EndSplineSet
EndChar

StartChar: Chetailcyr
Encoding: 1206 1206 315
Width: 808
GlyphClass: 2
Flags: W
AnchorPoint: "Anchor-0" 399 741 basechar 0
LayerCount: 2
Fore
SplineSet
328 271 m 0,0,1
 249 271 249 271 196.5 292.5 c 128,-1,2
 144 314 144 314 117.5 361 c 128,-1,3
 91 408 91 408 91 486 c 2,4,-1
 91 607 l 2,5,6
 91 629 91 629 74 636 c 128,-1,7
 57 643 57 643 31 643 c 2,8,-1
 21 643 l 1,9,-1
 21 710 l 1,10,-1
 354 710 l 1,11,-1
 354 643 l 1,12,-1
 345 643 l 2,13,14
 332 643 332 643 318 642 c 128,-1,15
 304 641 304 641 294 639 c 128,-1,16
 284 637 284 637 284 633 c 2,17,-1
 284 499 l 2,18,19
 284 443 284 443 295 410.5 c 128,-1,20
 306 378 306 378 330 364.5 c 128,-1,21
 354 351 354 351 394 351 c 0,22,23
 431 351 431 351 465 358.5 c 128,-1,24
 499 366 499 366 532 385 c 1,25,-1
 532 313 l 1,26,27
 494 294 494 294 441 282.5 c 128,-1,28
 388 271 388 271 328 271 c 0,0,1
432 0 m 1,29,-1
 432 67 l 1,30,-1
 441 67 l 2,31,32
 454 67 454 67 468 68 c 128,-1,33
 482 69 482 69 492 71.5 c 128,-1,34
 502 74 502 74 502 77 c 2,35,-1
 502 633 l 2,36,37
 502 637 502 637 492 639 c 128,-1,38
 482 641 482 641 468 642 c 128,-1,39
 454 643 454 643 441 643 c 2,40,-1
 432 643 l 1,41,-1
 432 710 l 1,42,-1
 765 710 l 1,43,-1
 765 643 l 1,44,-1
 755 643 l 2,45,46
 729 643 729 643 712 636 c 128,-1,47
 695 629 695 629 695 607 c 2,48,-1
 695 0 l 1,49,-1
 432 0 l 1,29,-1
593 0 m 2,50,-1
 526 0 l 1,51,-1
 526 78 l 1,52,-1
 790 78 l 1,53,-1
 790 -157 l 1,54,-1
 701 -157 l 1,55,-1
 691 -46 l 2,56,57
 690 -26 690 -26 679.5 -16.5 c 128,-1,58
 669 -7 669 -7 648 -3.5 c 128,-1,59
 627 0 627 0 593 0 c 2,50,-1
EndSplineSet
EndChar

StartChar: Chevertcyr
Encoding: 1208 1208 316
Width: 840
GlyphClass: 2
Flags: W
AnchorPoint: "Anchor-0" 413 741 basechar 0
LayerCount: 2
Fore
SplineSet
475 0 m 1,0,-1
 475 67 l 1,1,-1
 484 67 l 2,2,3
 497 67 497 67 511.5 68 c 128,-1,4
 526 69 526 69 535.5 71.5 c 128,-1,5
 545 74 545 74 545 77 c 2,6,-1
 545 633 l 2,7,8
 545 637 545 637 535.5 639 c 128,-1,9
 526 641 526 641 511.5 642 c 128,-1,10
 497 643 497 643 484 643 c 2,11,-1
 476 643 l 1,12,-1
 476 710 l 1,13,-1
 808 710 l 1,14,-1
 808 643 l 1,15,-1
 798 643 l 2,16,17
 772 643 772 643 755 636 c 128,-1,18
 738 629 738 629 738 607 c 2,19,-1
 738 103 l 2,20,21
 738 81 738 81 755 74 c 128,-1,22
 772 67 772 67 798 67 c 2,23,-1
 808 67 l 1,24,-1
 808 0 l 1,25,-1
 475 0 l 1,0,-1
338 271 m 0,26,27
 256 271 256 271 201 292.5 c 128,-1,28
 146 314 146 314 118.5 361 c 128,-1,29
 91 408 91 408 91 486 c 2,30,-1
 91 607 l 2,31,32
 91 629 91 629 74 636 c 128,-1,33
 57 643 57 643 31 643 c 2,34,-1
 21 643 l 1,35,-1
 21 710 l 1,36,-1
 354 710 l 1,37,-1
 354 643 l 1,38,-1
 345 643 l 2,39,40
 332 643 332 643 318 642 c 128,-1,41
 304 641 304 641 294 639 c 128,-1,42
 284 637 284 637 284 633 c 2,43,-1
 284 499 l 2,44,45
 284 443 284 443 296.5 410.5 c 128,-1,46
 309 378 309 378 337 364.5 c 128,-1,47
 365 351 365 351 410 351 c 0,48,49
 453 351 453 351 492 358 c 128,-1,50
 531 365 531 365 567 384 c 1,51,-1
 567 310 l 1,52,53
 526 291 526 291 468 281 c 128,-1,54
 410 271 410 271 338 271 c 0,26,27
378 158 m 1,55,-1
 378 531 l 1,56,-1
 457 531 l 1,57,-1
 457 158 l 1,58,-1
 378 158 l 1,55,-1
EndSplineSet
EndChar

StartChar: Shhacyr
Encoding: 1210 1210 317
Width: 794
GlyphClass: 1
Flags: W
LayerCount: 2
Fore
SplineSet
364 710 m 1,0,-1
 364 643 l 1,1,-1
 355 643 l 2,2,3
 342 643 342 643 328 642 c 128,-1,4
 314 641 314 641 304 639 c 128,-1,5
 294 637 294 637 294 633 c 2,6,-1
 294 77 l 2,7,8
 294 74 294 74 304 71.5 c 128,-1,9
 314 69 314 69 328 68 c 128,-1,10
 342 67 342 67 355 67 c 2,11,-1
 364 67 l 1,12,-1
 364 0 l 1,13,-1
 31 0 l 1,14,-1
 31 67 l 1,15,-1
 41 67 l 2,16,17
 67 67 67 67 84 74 c 128,-1,18
 101 81 101 81 101 103 c 2,19,-1
 101 607 l 2,20,21
 101 629 101 629 84 636 c 128,-1,22
 67 643 67 643 41 643 c 2,23,-1
 31 643 l 1,24,-1
 31 710 l 1,25,-1
 364 710 l 1,0,-1
468 439 m 0,26,27
 547 439 547 439 599.5 418 c 128,-1,28
 652 397 652 397 678.5 350.5 c 128,-1,29
 705 304 705 304 705 227 c 2,30,-1
 705 103 l 2,31,32
 705 81 705 81 722 74 c 128,-1,33
 739 67 739 67 765 67 c 2,34,-1
 775 67 l 1,35,-1
 775 0 l 1,36,-1
 442 0 l 1,37,-1
 442 67 l 1,38,-1
 451 67 l 2,39,40
 464 67 464 67 478 68 c 128,-1,41
 492 69 492 69 502 71.5 c 128,-1,42
 512 74 512 74 512 77 c 2,43,-1
 512 214 l 2,44,45
 512 269 512 269 502 300.5 c 128,-1,46
 492 332 492 332 468 345.5 c 128,-1,47
 444 359 444 359 402 359 c 0,48,49
 364 359 364 359 329 352 c 128,-1,50
 294 345 294 345 261 326 c 1,51,-1
 261 400 l 1,52,53
 300 418 300 418 354 428.5 c 128,-1,54
 408 439 408 439 468 439 c 0,26,27
EndSplineSet
EndChar

StartChar: Obarcyr
Encoding: 1256 1256 320
Width: 806
GlyphClass: 2
Flags: W
AnchorPoint: "Anchor-1" 397 0 basechar 0
AnchorPoint: "Anchor-0" 397 741 basechar 0
LayerCount: 2
Fore
SplineSet
141 405 m 1,0,-1
 641 405 l 1,1,-1
 641 327 l 1,2,-1
 141 327 l 1,3,-1
 141 405 l 1,0,-1
403 -10 m 256,4,5
 323 -10 323 -10 256 16 c 128,-1,6
 189 42 189 42 139.5 90 c 128,-1,7
 90 138 90 138 63 205.5 c 128,-1,8
 36 273 36 273 36 355 c 256,9,10
 36 437 36 437 63 504 c 128,-1,11
 90 571 90 571 139.5 619.5 c 128,-1,12
 189 668 189 668 256 694 c 128,-1,13
 323 720 323 720 403 720 c 256,14,15
 483 720 483 720 550 694 c 128,-1,16
 617 668 617 668 666.5 619.5 c 128,-1,17
 716 571 716 571 743 504 c 128,-1,18
 770 437 770 437 770 355 c 256,19,20
 770 273 770 273 743 205.5 c 128,-1,21
 716 138 716 138 666.5 90 c 128,-1,22
 617 42 617 42 550 16 c 128,-1,23
 483 -10 483 -10 403 -10 c 256,4,5
403 73 m 256,24,25
 440 73 440 73 470.5 91 c 128,-1,26
 501 109 501 109 523 145.5 c 128,-1,27
 545 182 545 182 557 234.5 c 128,-1,28
 569 287 569 287 569 355 c 256,29,30
 569 423 569 423 557 475.5 c 128,-1,31
 545 528 545 528 523 564.5 c 128,-1,32
 501 601 501 601 470.5 619 c 128,-1,33
 440 637 440 637 403 637 c 256,34,35
 366 637 366 637 335.5 619 c 128,-1,36
 305 601 305 601 283 564.5 c 128,-1,37
 261 528 261 528 249 475.5 c 128,-1,38
 237 423 237 423 237 355 c 256,39,40
 237 287 237 287 249 234.5 c 128,-1,41
 261 182 261 182 283 145.5 c 128,-1,42
 305 109 305 109 335.5 91 c 128,-1,43
 366 73 366 73 403 73 c 256,24,25
EndSplineSet
EndChar

StartChar: Hastrokecyr
Encoding: 1278 1278 321
Width: 735
GlyphClass: 2
Flags: W
AnchorPoint: "Anchor-1" 348 0 basechar 0
AnchorPoint: "Anchor-0" 375 741 basechar 0
LayerCount: 2
Fore
SplineSet
132 404 m 1,0,-1
 601 404 l 1,1,-1
 601 329 l 1,2,-1
 132 329 l 1,3,-1
 132 404 l 1,0,-1
25 643 m 1,4,-1
 25 710 l 1,5,-1
 363 710 l 1,6,-1
 363 643 l 1,7,-1
 348 643 l 2,8,9
 336 643 336 643 322.5 642 c 128,-1,10
 309 641 309 641 300 639 c 128,-1,11
 291 637 291 637 291 633 c 2,12,-1
 438 407 l 1,13,-1
 439 404 l 1,14,-1
 649 101 l 2,15,16
 664 79 664 79 676.5 73 c 128,-1,17
 689 67 689 67 710 67 c 2,18,-1
 720 67 l 1,19,-1
 720 0 l 1,20,-1
 376 0 l 1,21,-1
 376 67 l 1,22,-1
 391 67 l 2,23,24
 404 67 404 67 417 68 c 128,-1,25
 430 69 430 69 439 71.5 c 128,-1,26
 448 74 448 74 448 77 c 2,27,-1
 280 328 l 1,28,-1
 279 332 l 1,29,-1
 90 611 l 2,30,31
 76 633 76 633 63.5 638 c 128,-1,32
 51 643 51 643 30 643 c 2,33,-1
 25 643 l 1,4,-1
16 0 m 1,34,-1
 16 67 l 1,35,-1
 25 67 l 2,36,37
 46 67 46 67 60 77 c 128,-1,38
 74 87 74 87 92 113 c 2,39,-1
 289 391 l 1,40,-1
 342 347 l 1,41,-1
 162 85 l 2,42,43
 162 80 162 80 171.5 75.5 c 128,-1,44
 181 71 181 71 195 69 c 128,-1,45
 209 67 209 67 221 67 c 2,46,-1
 235 67 l 1,47,-1
 235 0 l 1,48,-1
 16 0 l 1,34,-1
458 361 m 1,49,-1
 404 402 l 1,50,-1
 549 625 l 2,51,52
 549 631 549 631 540 635 c 128,-1,53
 531 639 531 639 518 641 c 128,-1,54
 505 643 505 643 491 643 c 2,55,-1
 478 643 l 1,56,-1
 478 710 l 1,57,-1
 693 710 l 1,58,-1
 693 643 l 1,59,-1
 689 643 l 2,60,61
 667 643 667 643 652 633.5 c 128,-1,62
 637 624 637 624 619 598 c 2,63,-1
 458 361 l 1,49,-1
EndSplineSet
EndChar

StartChar: a
Encoding: 97 97 322
Width: 587
GlyphClass: 2
Flags: W
AnchorPoint: "Anchor-2" 441 -6 basechar 0
AnchorPoint: "Anchor-1" 302 0 basechar 0
AnchorPoint: "Anchor-0" 272 512 basechar 0
LayerCount: 2
Fore
SplineSet
366 308 m 1,0,-1
 366 247 l 1,1,2
 333 243 333 243 306 235.5 c 128,-1,3
 279 228 279 228 259 218 c 128,-1,4
 239 208 239 208 226.5 195.5 c 128,-1,5
 214 183 214 183 208 167 c 128,-1,6
 202 151 202 151 202 133 c 0,7,8
 202 111 202 111 209 96.5 c 128,-1,9
 216 82 216 82 230 74 c 128,-1,10
 244 66 244 66 263 66 c 0,11,12
 287 66 287 66 305.5 79 c 128,-1,13
 324 92 324 92 339 115 c 128,-1,14
 354 138 354 138 365 170 c 1,15,-1
 366 97 l 1,16,17
 352 63 352 63 328.5 39 c 128,-1,18
 305 15 305 15 273 2.5 c 128,-1,19
 241 -10 241 -10 199 -10 c 0,20,21
 147 -10 147 -10 109.5 5.5 c 128,-1,22
 72 21 72 21 51.5 51.5 c 128,-1,23
 31 82 31 82 31 126 c 0,24,25
 31 168 31 168 52.5 198 c 128,-1,26
 74 228 74 228 116.5 249 c 128,-1,27
 159 270 159 270 221.5 284.5 c 128,-1,28
 284 299 284 299 366 308 c 1,0,-1
356 0 m 1,29,-1
 356 99 l 1,30,-1
 344 98 l 1,31,-1
 344 368 l 2,32,33
 344 396 344 396 336 413 c 128,-1,34
 328 430 328 430 312 437.5 c 128,-1,35
 296 445 296 445 271 445 c 0,36,37
 236 445 236 445 212.5 429.5 c 128,-1,38
 189 414 189 414 176 391 c 1,39,40
 167 401 167 401 166 410 c 128,-1,41
 165 419 165 419 169.5 427.5 c 128,-1,42
 174 436 174 436 184 442.5 c 128,-1,43
 194 449 194 449 208 451 c 1,44,-1
 208 346 l 1,45,-1
 66 346 l 1,46,-1
 66 455 l 1,47,48
 81 466 81 466 110.5 482 c 128,-1,49
 140 498 140 498 185 510 c 128,-1,50
 230 522 230 522 291 522 c 0,51,52
 341 522 341 522 383.5 512 c 128,-1,53
 426 502 426 502 457 480.5 c 128,-1,54
 488 459 488 459 505 425.5 c 128,-1,55
 522 392 522 392 522 345 c 2,56,-1
 522 96 l 2,57,58
 522 86 522 86 528 80 c 128,-1,59
 534 74 534 74 545 71 c 128,-1,60
 556 68 556 68 571 66 c 2,61,-1
 576 65 l 1,62,-1
 576 0 l 1,63,-1
 356 0 l 1,29,-1
EndSplineSet
Substitution2: "'ss06' Style Set 6 lookup 66 subtable" a.alt
EndChar

StartChar: aogonek
Encoding: 261 261 331
Width: 587
GlyphClass: 1
Flags: W
LayerCount: 2
Fore
SplineSet
233 -141 m 0,0,1
 233 -111 233 -111 247.5 -86 c 128,-1,2
 262 -61 262 -61 290 -39.5 c 128,-1,3
 318 -18 318 -18 358.5 1.5 c 128,-1,4
 399 21 399 21 451 40 c 1,5,-1
 489 13 l 1,6,7
 455 -4 455 -4 432.5 -21 c 128,-1,8
 410 -38 410 -38 397 -54.5 c 128,-1,9
 384 -71 384 -71 378.5 -86.5 c 128,-1,10
 373 -102 373 -102 373 -116 c 0,11,12
 373 -138 373 -138 384 -148.5 c 128,-1,13
 395 -159 395 -159 412 -159 c 0,14,15
 431 -159 431 -159 444 -149 c 128,-1,16
 457 -139 457 -139 465 -131 c 1,17,-1
 505 -176 l 1,18,19
 481 -205 481 -205 449 -223.5 c 128,-1,20
 417 -242 417 -242 364 -242 c 0,21,22
 306 -242 306 -242 269.5 -216 c 128,-1,23
 233 -190 233 -190 233 -141 c 0,0,1
576 0 m 1,24,-1
 356 0 l 1,25,-1
 356 99 l 1,26,-1
 344 98 l 1,27,-1
 344 368 l 2,28,29
 344 396 344 396 336 413 c 128,-1,30
 328 430 328 430 312 437.5 c 128,-1,31
 296 445 296 445 271 445 c 0,32,33
 236 445 236 445 212.5 429.5 c 128,-1,34
 189 414 189 414 176 391 c 1,35,36
 167 400 167 400 166 409.5 c 128,-1,37
 165 419 165 419 169.5 427.5 c 128,-1,38
 174 436 174 436 184 442.5 c 128,-1,39
 194 449 194 449 208 451 c 1,40,-1
 208 346 l 1,41,-1
 66 346 l 1,42,-1
 66 455 l 1,43,44
 81 466 81 466 110.5 482 c 128,-1,45
 140 498 140 498 185 510 c 128,-1,46
 230 522 230 522 291 522 c 0,47,48
 341 522 341 522 383.5 512 c 128,-1,49
 426 502 426 502 457 480.5 c 128,-1,50
 488 459 488 459 505 425.5 c 128,-1,51
 522 392 522 392 522 345 c 2,52,-1
 522 96 l 2,53,54
 522 86 522 86 528 80 c 128,-1,55
 534 74 534 74 545 71 c 128,-1,56
 556 68 556 68 571 66 c 2,57,-1
 576 65 l 1,58,-1
 576 0 l 1,24,-1
31 126 m 0,59,60
 31 168 31 168 52.5 198 c 128,-1,61
 74 228 74 228 116.5 249 c 128,-1,62
 159 270 159 270 221.5 284.5 c 128,-1,63
 284 299 284 299 366 308 c 1,64,-1
 366 247 l 1,65,66
 333 243 333 243 306 235.5 c 128,-1,67
 279 228 279 228 259 218 c 128,-1,68
 239 208 239 208 226.5 195.5 c 128,-1,69
 214 183 214 183 208 167 c 128,-1,70
 202 151 202 151 202 133 c 0,71,72
 202 111 202 111 209 96.5 c 128,-1,73
 216 82 216 82 230 74 c 128,-1,74
 244 66 244 66 263 66 c 0,75,76
 287 66 287 66 305.5 79 c 128,-1,77
 324 92 324 92 339 115 c 128,-1,78
 354 138 354 138 365 170 c 1,79,-1
 366 97 l 1,80,81
 352 63 352 63 328.5 39 c 128,-1,82
 305 15 305 15 273 2.5 c 128,-1,83
 241 -10 241 -10 199 -10 c 0,84,85
 147 -10 147 -10 109.5 5.5 c 128,-1,86
 72 21 72 21 51.5 51.5 c 128,-1,87
 31 82 31 82 31 126 c 0,59,60
EndSplineSet
Substitution2: "'ss06' Style Set 6 lookup 66 subtable" aogonek.alt
EndChar

StartChar: acaron
Encoding: 462 462 332
Width: 587
GlyphClass: 1
Flags: W
LayerCount: 2
Fore
SplineSet
229 570 m 1,0,-1
 365 570 l 1,1,-1
 480 721 l 1,2,-1
 480 741 l 1,3,-1
 412 741 l 1,4,-1
 254 633 l 1,5,-1
 349 633 l 1,6,-1
 193 741 l 1,7,-1
 115 741 l 1,8,-1
 115 721 l 1,9,-1
 229 570 l 1,0,-1
366 308 m 1,10,-1
 366 247 l 1,11,12
 333 243 333 243 306 235.5 c 128,-1,13
 279 228 279 228 259 218 c 128,-1,14
 239 208 239 208 226.5 195.5 c 128,-1,15
 214 183 214 183 208 167 c 128,-1,16
 202 151 202 151 202 133 c 0,17,18
 202 111 202 111 209 96.5 c 128,-1,19
 216 82 216 82 230 74 c 128,-1,20
 244 66 244 66 263 66 c 0,21,22
 287 66 287 66 305.5 79 c 128,-1,23
 324 92 324 92 339 115 c 128,-1,24
 354 138 354 138 365 170 c 1,25,-1
 366 97 l 1,26,27
 352 63 352 63 328.5 39 c 128,-1,28
 305 15 305 15 273 2.5 c 128,-1,29
 241 -10 241 -10 199 -10 c 0,30,31
 147 -10 147 -10 109.5 5.5 c 128,-1,32
 72 21 72 21 51.5 51.5 c 128,-1,33
 31 82 31 82 31 126 c 0,34,35
 31 168 31 168 52.5 198 c 128,-1,36
 74 228 74 228 116.5 249 c 128,-1,37
 159 270 159 270 221.5 284.5 c 128,-1,38
 284 299 284 299 366 308 c 1,10,-1
356 0 m 1,39,-1
 356 99 l 1,40,-1
 344 98 l 1,41,-1
 344 368 l 2,42,43
 344 396 344 396 336 413 c 128,-1,44
 328 430 328 430 312 437.5 c 128,-1,45
 296 445 296 445 271 445 c 0,46,47
 236 445 236 445 212.5 429.5 c 128,-1,48
 189 414 189 414 176 391 c 1,49,50
 167 401 167 401 166 410 c 128,-1,51
 165 419 165 419 169.5 427.5 c 128,-1,52
 174 436 174 436 184 442.5 c 128,-1,53
 194 449 194 449 208 451 c 1,54,-1
 208 346 l 1,55,-1
 66 346 l 1,56,-1
 66 455 l 1,57,58
 81 466 81 466 110.5 482 c 128,-1,59
 140 498 140 498 185 510 c 128,-1,60
 230 522 230 522 291 522 c 0,61,62
 341 522 341 522 383.5 512 c 128,-1,63
 426 502 426 502 457 480.5 c 128,-1,64
 488 459 488 459 505 425.5 c 128,-1,65
 522 392 522 392 522 345 c 2,66,-1
 522 96 l 2,67,68
 522 86 522 86 528 80 c 128,-1,69
 534 74 534 74 545 71 c 128,-1,70
 556 68 556 68 571 66 c 2,71,-1
 576 65 l 1,72,-1
 576 0 l 1,73,-1
 356 0 l 1,39,-1
EndSplineSet
Substitution2: "'ss06' Style Set 6 lookup 66 subtable" acaron.alt
EndChar

StartChar: adblgrave
Encoding: 513 513 334
Width: 587
GlyphClass: 1
Flags: W
LayerCount: 2
Fore
SplineSet
422 693 m 2,0,-1
 434 587 l 1,1,-1
 434 563 l 1,2,-1
 375 563 l 1,3,-1
 326 632 l 2,4,5
 301 665 301 665 290.5 688 c 128,-1,6
 280 711 280 711 280 731 c 0,7,8
 280 755 280 755 296 771 c 128,-1,9
 312 787 312 787 343 787 c 0,10,11
 380 787 380 787 399 763.5 c 128,-1,12
 418 740 418 740 422 693 c 2,0,-1
239 693 m 2,13,-1
 251 587 l 1,14,-1
 251 563 l 1,15,-1
 192 563 l 1,16,-1
 142 632 l 2,17,18
 117 665 117 665 106.5 688 c 128,-1,19
 96 711 96 711 96 731 c 0,20,21
 96 755 96 755 112 771 c 128,-1,22
 128 787 128 787 160 787 c 0,23,24
 197 787 197 787 216 763.5 c 128,-1,25
 235 740 235 740 239 693 c 2,13,-1
366 308 m 1,26,-1
 366 247 l 1,27,28
 333 243 333 243 306 235.5 c 128,-1,29
 279 228 279 228 259 218 c 128,-1,30
 239 208 239 208 226.5 195.5 c 128,-1,31
 214 183 214 183 208 167 c 128,-1,32
 202 151 202 151 202 133 c 0,33,34
 202 111 202 111 209 96.5 c 128,-1,35
 216 82 216 82 230 74 c 128,-1,36
 244 66 244 66 263 66 c 0,37,38
 287 66 287 66 305.5 79 c 128,-1,39
 324 92 324 92 339 115 c 128,-1,40
 354 138 354 138 365 170 c 1,41,-1
 366 97 l 1,42,43
 352 63 352 63 328.5 39 c 128,-1,44
 305 15 305 15 273 2.5 c 128,-1,45
 241 -10 241 -10 199 -10 c 0,46,47
 147 -10 147 -10 109.5 5.5 c 128,-1,48
 72 21 72 21 51.5 51.5 c 128,-1,49
 31 82 31 82 31 126 c 0,50,51
 31 168 31 168 52.5 198 c 128,-1,52
 74 228 74 228 116.5 249 c 128,-1,53
 159 270 159 270 221.5 284.5 c 128,-1,54
 284 299 284 299 366 308 c 1,26,-1
356 0 m 1,55,-1
 356 99 l 1,56,-1
 344 98 l 1,57,-1
 344 368 l 2,58,59
 344 396 344 396 336 413 c 128,-1,60
 328 430 328 430 312 437.5 c 128,-1,61
 296 445 296 445 271 445 c 0,62,63
 236 445 236 445 212.5 429.5 c 128,-1,64
 189 414 189 414 176 391 c 1,65,66
 167 401 167 401 166 410 c 128,-1,67
 165 419 165 419 169.5 427.5 c 128,-1,68
 174 436 174 436 184 442.5 c 128,-1,69
 194 449 194 449 208 451 c 1,70,-1
 208 346 l 1,71,-1
 66 346 l 1,72,-1
 66 455 l 1,73,74
 81 466 81 466 110.5 482 c 128,-1,75
 140 498 140 498 185 510 c 128,-1,76
 230 522 230 522 291 522 c 0,77,78
 341 522 341 522 383.5 512 c 128,-1,79
 426 502 426 502 457 480.5 c 128,-1,80
 488 459 488 459 505 425.5 c 128,-1,81
 522 392 522 392 522 345 c 2,82,-1
 522 96 l 2,83,84
 522 86 522 86 528 80 c 128,-1,85
 534 74 534 74 545 71 c 128,-1,86
 556 68 556 68 571 66 c 2,87,-1
 576 65 l 1,88,-1
 576 0 l 1,89,-1
 356 0 l 1,55,-1
EndSplineSet
Substitution2: "'ss06' Style Set 6 lookup 66 subtable" adblgrave.alt
EndChar

StartChar: ainvertedbreve
Encoding: 515 515 335
Width: 587
GlyphClass: 1
Flags: W
LayerCount: 2
Fore
SplineSet
294 746 m 0,0,1
 248 746 248 746 211.5 726.5 c 128,-1,2
 175 707 175 707 154.5 667 c 128,-1,3
 134 627 134 627 133 566 c 1,4,-1
 215 566 l 1,5,6
 219 594 219 594 228.5 609 c 128,-1,7
 238 624 238 624 253.5 630 c 128,-1,8
 269 636 269 636 291 636 c 256,9,10
 313 636 313 636 329 630 c 128,-1,11
 345 624 345 624 354.5 609 c 128,-1,12
 364 594 364 594 367 566 c 1,13,-1
 454 566 l 1,14,15
 455 627 455 627 434 667 c 128,-1,16
 413 707 413 707 377 726.5 c 128,-1,17
 341 746 341 746 294 746 c 0,0,1
366 308 m 1,18,-1
 366 247 l 1,19,20
 333 243 333 243 306 235.5 c 128,-1,21
 279 228 279 228 259 218 c 128,-1,22
 239 208 239 208 226.5 195.5 c 128,-1,23
 214 183 214 183 208 167 c 128,-1,24
 202 151 202 151 202 133 c 0,25,26
 202 111 202 111 209 96.5 c 128,-1,27
 216 82 216 82 230 74 c 128,-1,28
 244 66 244 66 263 66 c 0,29,30
 287 66 287 66 305.5 79 c 128,-1,31
 324 92 324 92 339 115 c 128,-1,32
 354 138 354 138 365 170 c 1,33,-1
 366 97 l 1,34,35
 352 63 352 63 328.5 39 c 128,-1,36
 305 15 305 15 273 2.5 c 128,-1,37
 241 -10 241 -10 199 -10 c 0,38,39
 147 -10 147 -10 109.5 5.5 c 128,-1,40
 72 21 72 21 51.5 51.5 c 128,-1,41
 31 82 31 82 31 126 c 0,42,43
 31 168 31 168 52.5 198 c 128,-1,44
 74 228 74 228 116.5 249 c 128,-1,45
 159 270 159 270 221.5 284.5 c 128,-1,46
 284 299 284 299 366 308 c 1,18,-1
356 0 m 1,47,-1
 356 99 l 1,48,-1
 344 98 l 1,49,-1
 344 368 l 2,50,51
 344 396 344 396 336 413 c 128,-1,52
 328 430 328 430 312 437.5 c 128,-1,53
 296 445 296 445 271 445 c 0,54,55
 236 445 236 445 212.5 429.5 c 128,-1,56
 189 414 189 414 176 391 c 1,57,58
 167 401 167 401 166 410 c 128,-1,59
 165 419 165 419 169.5 427.5 c 128,-1,60
 174 436 174 436 184 442.5 c 128,-1,61
 194 449 194 449 208 451 c 1,62,-1
 208 346 l 1,63,-1
 66 346 l 1,64,-1
 66 455 l 1,65,66
 81 466 81 466 110.5 482 c 128,-1,67
 140 498 140 498 185 510 c 128,-1,68
 230 522 230 522 291 522 c 0,69,70
 341 522 341 522 383.5 512 c 128,-1,71
 426 502 426 502 457 480.5 c 128,-1,72
 488 459 488 459 505 425.5 c 128,-1,73
 522 392 522 392 522 345 c 2,74,-1
 522 96 l 2,75,76
 522 86 522 86 528 80 c 128,-1,77
 534 74 534 74 545 71 c 128,-1,78
 556 68 556 68 571 66 c 2,79,-1
 576 65 l 1,80,-1
 576 0 l 1,81,-1
 356 0 l 1,47,-1
EndSplineSet
Substitution2: "'ss06' Style Set 6 lookup 66 subtable" ainvertedbreve.alt
EndChar

StartChar: b
Encoding: 98 98 348
Width: 669
GlyphClass: 2
Flags: W
AnchorPoint: "Anchor-1" 349 0 basechar 0
AnchorPoint: "Anchor-0" 329 755 basechar 0
LayerCount: 2
Fore
SplineSet
401 -10 m 0,0,1
 358 -10 358 -10 324.5 1 c 128,-1,2
 291 12 291 12 265 34.5 c 128,-1,3
 239 57 239 57 217 92 c 1,4,-1
 218 220 l 1,5,6
 240 177 240 177 259 146 c 128,-1,7
 278 115 278 115 300.5 98 c 128,-1,8
 323 81 323 81 352 81 c 0,9,10
 378 81 378 81 396 93.5 c 128,-1,11
 414 106 414 106 426 130 c 128,-1,12
 438 154 438 154 444 187 c 128,-1,13
 450 220 450 220 450 261 c 256,14,15
 450 302 450 302 444 333.5 c 128,-1,16
 438 365 438 365 427 387 c 128,-1,17
 416 409 416 409 399 420 c 128,-1,18
 382 431 382 431 359 431 c 0,19,20
 331 431 331 431 308.5 415 c 128,-1,21
 286 399 286 399 265 365.5 c 128,-1,22
 244 332 244 332 218 281 c 1,23,-1
 217 384 l 1,24,25
 246 432 246 432 274 462.5 c 128,-1,26
 302 493 302 493 334 507.5 c 128,-1,27
 366 522 366 522 409 522 c 0,28,29
 478 522 478 522 529.5 489.5 c 128,-1,30
 581 457 581 457 609 398.5 c 128,-1,31
 637 340 637 340 637 261 c 256,32,33
 637 182 637 182 607 120.5 c 128,-1,34
 577 59 577 59 524 24.5 c 128,-1,35
 471 -10 471 -10 401 -10 c 0,0,1
72 635 m 2,36,37
 72 645 72 645 67 651 c 128,-1,38
 62 657 62 657 52 661 c 128,-1,39
 42 665 42 665 26 668 c 2,40,-1
 17 670 l 1,41,-1
 17 735 l 1,42,-1
 254 735 l 1,43,-1
 254 113 l 1,44,-1
 233 105 l 1,45,-1
 182 -1 l 1,46,-1
 72 -1 l 1,47,-1
 72 635 l 2,36,37
EndSplineSet
EndChar

StartChar: c
Encoding: 99 99 349
Width: 575
GlyphClass: 2
Flags: W
AnchorPoint: "Anchor-1" 318 0 basechar 0
AnchorPoint: "Anchor-0" 308 512 basechar 0
LayerCount: 2
Fore
SplineSet
350 71 m 0,0,1
 385 71 385 71 411.5 87 c 128,-1,2
 438 103 438 103 457 127.5 c 128,-1,3
 476 152 476 152 489 175 c 1,4,-1
 550 130 l 1,5,6
 529 90 529 90 498.5 58 c 128,-1,7
 468 26 468 26 424.5 8 c 128,-1,8
 381 -10 381 -10 320 -10 c 0,9,10
 237 -10 237 -10 171.5 22 c 128,-1,11
 106 54 106 54 69 114 c 128,-1,12
 32 174 32 174 32 256 c 0,13,14
 32 339 32 339 69 398 c 128,-1,15
 106 457 106 457 172.5 489.5 c 128,-1,16
 239 522 239 522 329 522 c 0,17,18
 387 522 387 522 429.5 511 c 128,-1,19
 472 500 472 500 499.5 486.5 c 128,-1,20
 527 473 527 473 539 462 c 1,21,-1
 539 327 l 1,22,-1
 400 327 l 1,23,-1
 400 455 l 1,24,25
 413 453 413 453 421 446.5 c 128,-1,26
 429 440 429 440 432.5 431.5 c 128,-1,27
 436 423 436 423 434 413.5 c 128,-1,28
 432 404 432 404 425 398 c 1,29,30
 414 418 414 418 391 430.5 c 128,-1,31
 368 443 368 443 338 443 c 0,32,33
 300 443 300 443 273.5 420.5 c 128,-1,34
 247 398 247 398 233.5 356 c 128,-1,35
 220 314 220 314 220 256 c 0,36,37
 220 212 220 212 228.5 178 c 128,-1,38
 237 144 237 144 254 120 c 128,-1,39
 271 96 271 96 295 83.5 c 128,-1,40
 319 71 319 71 350 71 c 0,0,1
EndSplineSet
EndChar

StartChar: ccaron
Encoding: 269 269 354
Width: 575
GlyphClass: 1
Flags: W
LayerCount: 2
Fore
SplineSet
239 571 m 1,0,-1
 375 571 l 1,1,-1
 490 722 l 1,2,-1
 490 743 l 1,3,-1
 422 743 l 1,4,-1
 264 634 l 1,5,-1
 359 634 l 1,6,-1
 202 743 l 1,7,-1
 124 743 l 1,8,-1
 124 722 l 1,9,-1
 239 571 l 1,0,-1
350 71 m 0,10,11
 385 71 385 71 411.5 87 c 128,-1,12
 438 103 438 103 457 127.5 c 128,-1,13
 476 152 476 152 489 175 c 1,14,-1
 550 130 l 1,15,16
 529 90 529 90 498.5 58 c 128,-1,17
 468 26 468 26 424.5 8 c 128,-1,18
 381 -10 381 -10 320 -10 c 0,19,20
 237 -10 237 -10 171.5 22 c 128,-1,21
 106 54 106 54 69 114 c 128,-1,22
 32 174 32 174 32 256 c 0,23,24
 32 339 32 339 69 398 c 128,-1,25
 106 457 106 457 172.5 489.5 c 128,-1,26
 239 522 239 522 329 522 c 0,27,28
 387 522 387 522 429.5 511 c 128,-1,29
 472 500 472 500 499.5 486.5 c 128,-1,30
 527 473 527 473 539 462 c 1,31,-1
 539 327 l 1,32,-1
 400 327 l 1,33,-1
 400 455 l 1,34,35
 413 453 413 453 421 446.5 c 128,-1,36
 429 440 429 440 432.5 431.5 c 128,-1,37
 436 423 436 423 434 413.5 c 128,-1,38
 432 404 432 404 425 398 c 1,39,40
 414 418 414 418 391 430.5 c 128,-1,41
 368 443 368 443 338 443 c 0,42,43
 300 443 300 443 273.5 420.5 c 128,-1,44
 247 398 247 398 233.5 356 c 128,-1,45
 220 314 220 314 220 256 c 0,46,47
 220 212 220 212 228.5 178 c 128,-1,48
 237 144 237 144 254 120 c 128,-1,49
 271 96 271 96 295 83.5 c 128,-1,50
 319 71 319 71 350 71 c 0,10,11
EndSplineSet
EndChar

StartChar: d
Encoding: 100 100 356
Width: 667
GlyphClass: 2
Flags: W
AnchorPoint: "Anchor-2" 632 735 basechar 0
AnchorPoint: "Anchor-1" 311 0 basechar 0
LayerCount: 2
Fore
SplineSet
598 96 m 2,0,1
 598 80 598 80 611 74.5 c 128,-1,2
 624 69 624 69 647 66 c 2,3,-1
 652 65 l 1,4,-1
 652 0 l 1,5,-1
 427 0 l 1,6,-1
 427 118 l 1,7,-1
 415 110 l 1,8,-1
 415 635 l 2,9,10
 415 645 415 645 409.5 651 c 128,-1,11
 404 657 404 657 393 661 c 128,-1,12
 382 665 382 665 366 668 c 2,13,-1
 357 670 l 1,14,-1
 357 735 l 1,15,-1
 598 735 l 1,16,-1
 598 96 l 2,0,1
269 522 m 0,17,18
 314 522 314 522 347.5 508.5 c 128,-1,19
 381 495 381 495 407 467 c 128,-1,20
 433 439 433 439 453 397 c 1,21,-1
 452 294 l 1,22,23
 430 341 430 341 410 371 c 128,-1,24
 390 401 390 401 368 416 c 128,-1,25
 346 431 346 431 318 431 c 0,26,27
 293 431 293 431 274.5 418.5 c 128,-1,28
 256 406 256 406 244 382.5 c 128,-1,29
 232 359 232 359 226 325.5 c 128,-1,30
 220 292 220 292 220 250 c 0,31,32
 220 210 220 210 225.5 178.5 c 128,-1,33
 231 147 231 147 242.5 125 c 128,-1,34
 254 103 254 103 271.5 92 c 128,-1,35
 289 81 289 81 312 81 c 0,36,37
 340 81 340 81 361.5 97 c 128,-1,38
 383 113 383 113 404.5 147 c 128,-1,39
 426 181 426 181 451 233 c 1,40,-1
 452 131 l 1,41,42
 428 84 428 84 401.5 53 c 128,-1,43
 375 22 375 22 341.5 6 c 128,-1,44
 308 -10 308 -10 261 -10 c 0,45,46
 192 -10 192 -10 140.5 22.5 c 128,-1,47
 89 55 89 55 60.5 113.5 c 128,-1,48
 32 172 32 172 32 250 c 0,49,50
 32 330 32 330 62 391.5 c 128,-1,51
 92 453 92 453 145.5 487.5 c 128,-1,52
 199 522 199 522 269 522 c 0,17,18
EndSplineSet
EndChar

StartChar: e
Encoding: 101 101 360
Width: 587
GlyphClass: 2
Flags: W
AnchorPoint: "Anchor-2" 465 1 basechar 0
AnchorPoint: "Anchor-1" 322 0 basechar 0
AnchorPoint: "Anchor-0" 300 512 basechar 0
LayerCount: 2
Fore
SplineSet
215 254 m 0,0,1
 215 210 215 210 223.5 176 c 128,-1,2
 232 142 232 142 248 118.5 c 128,-1,3
 264 95 264 95 290 83.5 c 128,-1,4
 316 72 316 72 350 72 c 0,5,6
 386 72 386 72 411.5 85.5 c 128,-1,7
 437 99 437 99 455.5 120.5 c 128,-1,8
 474 142 474 142 486 164 c 1,9,-1
 551 119 l 1,10,11
 531 82 531 82 500 52.5 c 128,-1,12
 469 23 469 23 425.5 6.5 c 128,-1,13
 382 -10 382 -10 322 -10 c 0,14,15
 235 -10 235 -10 169.5 22 c 128,-1,16
 104 54 104 54 68 113.5 c 128,-1,17
 32 173 32 173 32 255 c 0,18,19
 32 335 32 335 67.5 395 c 128,-1,20
 103 455 103 455 164.5 488.5 c 128,-1,21
 226 522 226 522 304 522 c 0,22,23
 367 522 367 522 414.5 503.5 c 128,-1,24
 462 485 462 485 494.5 448 c 128,-1,25
 527 411 527 411 543.5 355.5 c 128,-1,26
 560 300 560 300 560 226 c 1,27,-1
 195 226 l 1,28,-1
 195 298 l 1,29,-1
 412 298 l 1,30,-1
 390 268 l 1,31,32
 389 319 389 319 384 352.5 c 128,-1,33
 379 386 379 386 369 406 c 128,-1,34
 359 426 359 426 344 434.5 c 128,-1,35
 329 443 329 443 308 443 c 256,36,37
 287 443 287 443 270.5 432 c 128,-1,38
 254 421 254 421 241.5 398 c 128,-1,39
 229 375 229 375 222 339.5 c 128,-1,40
 215 304 215 304 215 254 c 0,0,1
EndSplineSet
EndChar

StartChar: eogonek
Encoding: 281 281 368
Width: 587
GlyphClass: 1
Flags: W
LayerCount: 2
Fore
SplineSet
441 41 m 1,0,-1
 444 14 l 1,1,2
 419 3 419 3 389 -3.5 c 128,-1,3
 359 -10 359 -10 322 -10 c 0,4,5
 235 -10 235 -10 169.5 22 c 128,-1,6
 104 54 104 54 68 113.5 c 128,-1,7
 32 173 32 173 32 255 c 0,8,9
 32 335 32 335 67.5 395 c 128,-1,10
 103 455 103 455 164.5 488.5 c 128,-1,11
 226 522 226 522 304 522 c 0,12,13
 367 522 367 522 414.5 503.5 c 128,-1,14
 462 485 462 485 494.5 448 c 128,-1,15
 527 411 527 411 543.5 355.5 c 128,-1,16
 560 300 560 300 560 226 c 1,17,-1
 127 226 l 1,18,-1
 126 298 l 1,19,-1
 412 298 l 1,20,-1
 390 268 l 1,21,22
 389 319 389 319 384 352.5 c 128,-1,23
 379 386 379 386 369 406 c 128,-1,24
 359 426 359 426 344 434.5 c 128,-1,25
 329 443 329 443 308 443 c 256,26,27
 287 443 287 443 270.5 432 c 128,-1,28
 254 421 254 421 241.5 398 c 128,-1,29
 229 375 229 375 222 339.5 c 128,-1,30
 215 304 215 304 215 254 c 0,31,32
 215 210 215 210 223.5 176 c 128,-1,33
 232 142 232 142 248 118.5 c 128,-1,34
 264 95 264 95 290 83.5 c 128,-1,35
 316 72 316 72 350 72 c 0,36,37
 386 72 386 72 411.5 85.5 c 128,-1,38
 437 99 437 99 455.5 120.5 c 128,-1,39
 474 142 474 142 486 164 c 1,40,-1
 551 119 l 1,41,42
 536 92 536 92 518.5 71.5 c 128,-1,43
 501 51 501 51 474 31 c 0,44,45
 443 7 443 7 420.5 -12.5 c 128,-1,46
 398 -32 398 -32 384 -49 c 128,-1,47
 370 -66 370 -66 364 -82 c 128,-1,48
 358 -98 358 -98 358 -116 c 0,49,50
 358 -138 358 -138 368.5 -148.5 c 128,-1,51
 379 -159 379 -159 397 -159 c 256,52,53
 415 -159 415 -159 428.5 -149 c 128,-1,54
 442 -139 442 -139 450 -131 c 1,55,-1
 490 -176 l 1,56,57
 466 -205 466 -205 433.5 -223.5 c 128,-1,58
 401 -242 401 -242 349 -242 c 0,59,60
 310 -242 310 -242 280.5 -230 c 128,-1,61
 251 -218 251 -218 234.5 -195.5 c 128,-1,62
 218 -173 218 -173 218 -140 c 0,63,64
 218 -111 218 -111 232.5 -86.5 c 128,-1,65
 247 -62 247 -62 275 -41 c 128,-1,66
 303 -20 303 -20 345 0.5 c 128,-1,67
 387 21 387 21 441 41 c 1,0,-1
EndSplineSet
EndChar

